<svg width="24" height="24" viewBox="0 0 24 24" fill="none" xmlns="http://www.w3.org/2000/svg">
<mask id="mask0_233_8553" style="mask-type:alpha" maskUnits="userSpaceOnUse" x="0" y="0" width="24" height="24">
<rect width="24" height="24" fill="#D9D9D9"/>
</mask>
<g mask="url(#mask0_233_8553)">
<path d="M10.5 19V17H4.3077C3.80257 17 3.375 16.825 3.025 16.475C2.675 16.125 2.5 15.6974 2.5 15.1923V5.3077C2.5 4.80257 2.675 4.375 3.025 4.025C3.375 3.675 3.80257 3.5 4.3077 3.5H19.6923C20.1974 3.5 20.625 3.675 20.975 4.025C21.325 4.375 21.5 4.80257 21.5 5.3077V15.1923C21.5 15.6974 21.325 16.125 20.975 16.475C20.625 16.825 20.1974 17 19.6923 17H13.5V19H14.75C14.9628 19 15.141 19.0718 15.2846 19.2154C15.4282 19.3589 15.5 19.5371 15.5 19.75C15.5 19.9628 15.4282 20.141 15.2846 20.2846C15.141 20.4282 14.9628 20.5 14.75 20.5H9.25C9.03718 20.5 8.85898 20.4282 8.7154 20.2846C8.5718 20.141 8.5 19.9628 8.5 19.75C8.5 19.5371 8.5718 19.3589 8.7154 19.2154C8.85898 19.0718 9.03718 19 9.25 19H10.5Z" fill="#0A7EFE"/>
</g>
</svg>
