<svg width="28" height="28" viewBox="0 0 28 28" fill="none" xmlns="http://www.w3.org/2000/svg">
<mask id="mask0_233_8115" style="mask-type:alpha" maskUnits="userSpaceOnUse" x="0" y="0" width="28" height="28">
<rect width="28" height="28" fill="#D9D9D9"/>
</mask>
<g mask="url(#mask0_233_8115)">
<path d="M13.9999 15.6333L8.28327 21.3499C8.06938 21.5638 7.79716 21.6708 7.4666 21.6708C7.13605 21.6708 6.86382 21.5638 6.64993 21.3499C6.43605 21.136 6.3291 20.8638 6.3291 20.5333C6.3291 20.2027 6.43605 19.9305 6.64993 19.7166L12.3666 13.9999L6.64993 8.28327C6.43605 8.06938 6.3291 7.79716 6.3291 7.4666C6.3291 7.13605 6.43605 6.86382 6.64993 6.64993C6.86382 6.43605 7.13605 6.3291 7.4666 6.3291C7.79716 6.3291 8.06938 6.43605 8.28327 6.64993L13.9999 12.3666L19.7166 6.64993C19.9305 6.43605 20.2027 6.3291 20.5333 6.3291C20.8638 6.3291 21.136 6.43605 21.3499 6.64993C21.5638 6.86382 21.6708 7.13605 21.6708 7.4666C21.6708 7.79716 21.5638 8.06938 21.3499 8.28327L15.6333 13.9999L21.3499 19.7166C21.5638 19.9305 21.6708 20.2027 21.6708 20.5333C21.6708 20.8638 21.5638 21.136 21.3499 21.3499C21.136 21.5638 20.8638 21.6708 20.5333 21.6708C20.2027 21.6708 19.9305 21.5638 19.7166 21.3499L13.9999 15.6333Z" fill="white"/>
</g>
</svg>
