<svg width="20" height="20" viewBox="0 0 20 20" fill="none" xmlns="http://www.w3.org/2000/svg">
<path fill-rule="evenodd" clip-rule="evenodd" d="M2.18362 6.18362C2.24167 6.12541 2.31064 6.07923 2.38658 6.04773C2.46251 6.01622 2.54391 6 2.62612 6C2.70833 6 2.78973 6.01622 2.86566 6.04773C2.94159 6.07923 3.01056 6.12541 3.06862 6.18362L10.1261 13.2424L17.1836 6.18362C17.2417 6.12551 17.3107 6.07941 17.3866 6.04796C17.4626 6.01651 17.5439 6.00033 17.6261 6.00033C17.7083 6.00033 17.7897 6.01651 17.8656 6.04796C17.9415 6.07941 18.0105 6.12551 18.0686 6.18362C18.1267 6.24173 18.1728 6.31071 18.2043 6.38664C18.2357 6.46256 18.2519 6.54394 18.2519 6.62612C18.2519 6.7083 18.2357 6.78967 18.2043 6.8656C18.1728 6.94152 18.1267 7.01051 18.0686 7.06862L10.5686 14.5686C10.5106 14.6268 10.4416 14.673 10.3657 14.7045C10.2897 14.736 10.2083 14.7522 10.1261 14.7522C10.0439 14.7522 9.96251 14.736 9.88658 14.7045C9.81064 14.673 9.74167 14.6268 9.68362 14.5686L2.18362 7.06862C2.12541 7.01056 2.07923 6.94159 2.04773 6.86566C2.01622 6.78973 2 6.70833 2 6.62612C2 6.54391 2.01622 6.46251 2.04773 6.38657C2.07923 6.31064 2.12541 6.24167 2.18362 6.18362Z" fill="#5F5F5F"/>
</svg>
