<svg width="29" height="29" viewBox="0 0 29 29" fill="none" xmlns="http://www.w3.org/2000/svg">
<circle cx="14.5" cy="14.5" r="14" stroke="#F4F4F4"/>
<mask id="mask0_233_8769" style="mask-type:alpha" maskUnits="userSpaceOnUse" x="3" y="4" width="24" height="24">
<rect x="3" y="4" width="24" height="24" fill="#D9D9D9"/>
</mask>
<g mask="url(#mask0_233_8769)">
<path d="M14.7695 23.001C14.5503 23.001 14.3673 22.9276 14.2205 22.7808C14.0737 22.634 14.0003 22.451 14.0003 22.2318V16.6548L8.60413 9.83175C8.46951 9.65225 8.45123 9.46892 8.5493 9.28175C8.64738 9.09457 8.80412 9.00098 9.0195 9.00098H20.9811C21.1964 9.00098 21.3532 9.09457 21.4513 9.28175C21.5493 9.46892 21.531 9.65225 21.3964 9.83175L16.0003 16.6548V22.2318C16.0003 22.451 15.9269 22.634 15.7801 22.7808C15.6333 22.9276 15.4503 23.001 15.2311 23.001H14.7695Z" fill="#5F5F5F"/>
</g>
</svg>
