<svg width="72" height="186" viewBox="0 0 72 186" fill="none" xmlns="http://www.w3.org/2000/svg">
<path d="M52.7099 20.3287C52.1292 17.3761 51.2003 15.1774 47.4262 17.8159C47.4262 17.8159 47.393 14.8911 46.0576 13.7363C44.7222 12.5814 36.2852 7.43604 35.9624 15.8925C35.9624 15.8925 35.8076 22.6862 35.8076 24.3824C35.8076 26.0785 38.2524 31.8246 40.2846 31.8246C40.9171 31.8091 41.5425 31.6874 42.135 31.4646C41.8546 33.8681 41.1122 36.1941 39.9489 38.3134L52.4323 35.8667C52.4323 35.8667 50.1927 32.367 49.8007 25.4918C51.5548 23.911 53.1062 22.3441 52.7099 20.3287Z" fill="#F8CDCC"/>
<path d="M58.3487 30.1507C56.1004 27.9193 58.7836 27.6143 58.288 23.6657C57.9714 21.1429 54.6216 20.6819 54.0584 19.2198C53.5369 17.8663 54.4644 16.0567 54.0857 13.7364C53.5369 10.3743 49.7162 5.62015 43.3484 6.06693C39.4748 6.33868 37.1001 7.65342 35.8092 9.31035L35.8075 9.30798C35.8075 9.30798 31.8416 13.4754 32.2515 17.3351C32.4523 19.2252 33.7465 20.5288 33.8092 22.3102C33.8638 23.8645 31.832 24.9381 32.1695 27.3816C32.5521 30.1507 34.3186 30.3894 31.4952 33.9775C26.6584 40.1245 36.6075 44.0055 36.6075 44.0055L42.2035 39.4325L42.8399 37.7468L39.9488 38.3135C41.1121 36.1942 41.8545 33.8682 42.1349 31.4646C41.5424 31.6875 40.917 31.8092 40.2845 31.8246C38.2523 31.8246 35.8075 26.0786 35.8075 24.3825C35.8075 22.6863 35.9803 15.5518 35.9937 15.3889C36.217 14.5946 36.7082 13.6264 37.7917 13.2139C37.7917 13.2139 39.4446 16.8784 44.4666 17.8252C47.0422 18.3107 46.5371 22.2701 47.3654 22.0602C47.6978 21.976 48.0311 19.0225 49.5755 18.4015C51.7643 17.5213 53.5959 20.5962 52.2569 22.4898C51.5367 23.5398 50.7027 24.5062 49.7702 25.3714C49.7702 25.3714 49.5111 31.089 52.1125 35.2854L55.2334 42.4008C55.2334 42.4008 65.1071 36.8585 58.3487 30.1507Z" fill="#201F20"/>
<g style="mix-blend-mode:overlay" opacity="0.6">
<path d="M42.1346 31.4648C42.1346 31.4648 45.8262 29.5398 46.9964 28.3086C47.2495 30.2563 46.7229 32.2254 45.5321 33.7837C44.4664 35.2003 42.1288 35.4199 41.2017 35.4981C41.6659 34.1941 41.979 32.8407 42.1346 31.4648Z" fill="#030F1C"/>
</g>
<path d="M46.0574 13.8602C46.0059 13.8602 45.9598 13.828 45.9419 13.7794C45.043 11.3422 41.6351 10.2143 41.6008 10.2032C41.5588 10.1896 41.5272 10.1546 41.5179 10.1114C41.5086 10.0681 41.523 10.0231 41.5557 9.99342C41.5884 9.96372 41.6344 9.95381 41.6764 9.96744C41.8211 10.0142 45.2323 11.1425 46.173 13.6933C46.187 13.7313 46.1816 13.7738 46.1586 13.8071C46.1355 13.8403 46.0978 13.8601 46.0574 13.8602Z" fill="white"/>
<path d="M57.9633 35.4091C57.9597 35.4091 57.9561 35.4088 57.9523 35.4086C57.8845 35.4025 57.8345 35.3424 57.8404 35.2744C57.8944 33.4052 57.1322 31.6057 55.754 30.3483C53.3633 28.2006 53.0171 25.0599 53.0138 25.0285C53.0069 24.9605 53.0562 24.8998 53.1239 24.8928C53.1915 24.8857 53.2521 24.9351 53.2591 25.0031C53.2623 25.0337 53.6005 28.0816 55.9185 30.1638C57.3535 31.474 58.1455 33.3494 58.0859 35.2962C58.0803 35.3601 58.0271 35.409 57.9633 35.4091Z" fill="white"/>
<path d="M36.1963 35.9234C36.1488 35.9233 36.1056 35.8959 36.0852 35.8528C36.0648 35.8097 36.0708 35.7587 36.1008 35.7216C36.9927 34.6183 36.8915 31.3906 36.8904 31.3582C36.8893 31.3254 36.9011 31.2934 36.9234 31.2694C36.9457 31.2454 36.9766 31.2313 37.0092 31.2302C37.0421 31.2284 37.0742 31.2401 37.0982 31.2626C37.1223 31.2851 37.1362 31.3165 37.1367 31.3495C37.1415 31.4858 37.2422 34.7026 36.2922 35.8776C36.2688 35.9067 36.2335 35.9235 36.1963 35.9234Z" fill="white"/>
<path d="M51.0098 19.6764C50.4157 19.474 49.8415 20.0163 49.407 20.6294L49.406 20.6307C49.1069 21.065 48.8508 21.5277 48.6415 22.0121C48.6151 22.0751 48.6446 22.1477 48.7074 22.1742C48.7701 22.2007 48.8424 22.1711 48.8688 22.1081C49.064 21.6526 49.3031 21.2174 49.5826 20.8086C49.8371 20.7641 50.0991 20.8123 50.3213 20.9447C50.5421 21.1097 50.683 21.3608 50.7093 21.6359C50.7191 21.6956 50.7705 21.7394 50.8308 21.7395C50.8375 21.7395 50.8443 21.739 50.851 21.7378C50.8832 21.7325 50.912 21.7145 50.9311 21.6878C50.9501 21.6611 50.9578 21.6279 50.9525 21.5955C50.9165 21.2516 50.7361 20.9395 50.4565 20.7376C50.2541 20.6087 50.0184 20.5424 49.7788 20.5472C50.1382 20.0998 50.5484 19.7805 50.9305 19.911C50.9723 19.9252 51.0184 19.9159 51.0515 19.8868C51.0846 19.8576 51.0997 19.8129 51.0911 19.7695C51.0825 19.7261 51.0515 19.6906 51.0098 19.6764Z" fill="#0B122D"/>
<path d="M41.9319 31.6598C41.8737 31.6598 41.8234 31.6189 41.8113 31.5617C41.7992 31.5045 41.8286 31.4466 41.8819 31.4229C41.9234 31.4044 46.0538 29.5487 47.7973 27.3054C47.8244 27.2706 47.868 27.2529 47.9116 27.259C47.9552 27.2651 47.9922 27.2942 48.0087 27.3352C48.0252 27.3762 48.0187 27.4229 47.9916 27.4577C46.2099 29.7503 42.1535 31.5728 41.9818 31.6492C41.9661 31.6562 41.9491 31.6598 41.9319 31.6598Z" fill="#0B122D"/>
<path d="M40.6666 16.8904C40.8338 16.7015 41.0636 16.5546 41.7532 16.5966C42.4428 16.6385 43.4877 17.2891 43.2578 17.457C43.0279 17.6249 42.3383 17.0583 41.795 17.2471C41.2517 17.436 40.9398 17.5914 40.7571 17.4885C40.5273 17.3591 40.5862 16.9812 40.6666 16.8904Z" fill="#161B36"/>
<path d="M37.6783 16.6977C37.4593 16.5731 37.1946 16.5086 36.5554 16.772C35.9162 17.0353 35.1365 17.9898 35.408 18.0742C35.6796 18.1585 36.1501 17.3987 36.725 17.4012C37.2999 17.4038 37.6451 17.4497 37.7849 17.2932C37.9608 17.0961 37.7835 16.7576 37.6783 16.6977Z" fill="#161B36"/>
<g style="mix-blend-mode:overlay" opacity="0.6">
<path d="M38.8688 25.2013C38.5905 25.2057 38.316 25.1351 38.0741 24.9967C37.9007 24.9039 37.7774 24.7384 37.7377 24.5452C37.6799 24.181 38.0053 23.4675 38.3435 22.7679C38.3982 22.6546 38.4429 22.5623 38.4689 22.5022C38.9057 21.4948 38.7073 19.5752 38.7052 19.5559C38.7005 19.5119 38.7196 19.4688 38.7551 19.4427C38.7907 19.4167 38.8374 19.4116 38.8777 19.4295C38.9179 19.4475 38.9456 19.4856 38.9503 19.5295C38.959 19.6108 39.1578 21.5334 38.695 22.6011C38.668 22.6632 38.6219 22.7588 38.5652 22.876C38.3593 23.302 37.9307 24.1885 37.9811 24.5063C38.0123 24.6268 38.0931 24.7284 38.2032 24.7858C38.5305 24.9632 38.9147 25.0023 39.2708 24.8943C39.3127 24.8808 39.3586 24.8908 39.3912 24.9205C39.4239 24.9502 39.4382 24.9951 39.4289 25.0384C39.4196 25.0816 39.388 25.1165 39.3461 25.1301C39.1916 25.1783 39.0306 25.2023 38.8688 25.2013Z" fill="#030F1C"/>
</g>
<path d="M38.3941 27.6357C38.3728 27.5611 38.382 27.4812 38.4196 27.4135C38.4573 27.3458 38.5203 27.296 38.5946 27.2752C38.9644 27.1677 39.6461 26.9654 40.1653 26.7879C40.7067 26.5724 41.2332 26.3209 41.7412 26.0351C41.8298 25.9868 41.9369 25.9877 42.0247 26.0376C42.1124 26.0874 42.1684 26.1791 42.1727 26.2802C42.208 27.0572 42.1149 28.5746 40.8983 28.8839C39.4187 29.26 38.6442 28.4562 38.3941 27.6357Z" fill="#161B36"/>
<path d="M39.0371 28.6045C39.0371 28.6045 40.3103 26.8186 42.1289 27.2266C42.1289 27.2266 42.1317 28.6214 40.9592 28.9357C39.6969 29.2741 39.0371 28.6045 39.0371 28.6045Z" fill="#E55151"/>
<path d="M42.3577 19.3068C42.1213 19.254 41.8803 19.2248 41.6382 19.2197C41.3785 19.2197 41.168 19.5674 41.168 19.9962C41.168 20.425 41.3785 20.7727 41.6382 20.7727C41.8978 20.7727 42.1083 20.425 42.1083 19.9962C42.1117 19.808 42.066 19.6221 41.9756 19.4572C42.1644 19.4634 42.3518 19.492 42.534 19.5424C42.7102 19.5938 42.7224 19.3923 42.3577 19.3068Z" fill="#161B36"/>
<path d="M37.6592 19.6296C37.4408 19.5807 37.2184 19.552 36.9947 19.5439C36.9919 19.5438 36.9892 19.5425 36.9863 19.5425C36.9843 19.5425 36.9824 19.5434 36.9804 19.5435C36.9563 19.5427 36.9397 19.5425 36.9397 19.5425L36.9375 19.5506C36.7011 19.5915 36.5161 19.9177 36.5161 20.319C36.5161 20.7478 36.7266 21.0954 36.9863 21.0954C37.2459 21.0954 37.4565 20.7478 37.4565 20.319C37.4598 20.1315 37.4144 19.9464 37.3248 19.782C37.4975 19.7911 37.6687 19.819 37.8355 19.8651C38.0117 19.9165 38.0239 19.7151 37.6592 19.6296Z" fill="#161B36"/>
<path d="M62.9704 170.19C62.9512 170.192 62.9229 170.198 62.8976 170.202C62.7696 166.848 62.4821 159.575 62.5128 158.261C62.6343 153.051 62.3374 131.93 60.5153 122.814C60.5153 122.814 61.3761 114.618 62.5082 108.526C63.2264 104.661 64.2182 98.3867 63.3436 92.5818C62.2324 85.2054 59.7501 82.9304 58.4795 75.9205C50.7983 72.5841 41.0711 72.3646 33.0643 76.5085C30.2497 98.1216 28.6551 116.263 28.5758 119.284C28.5167 121.533 29.5124 150.195 30.0168 164.464C30.0123 164.458 30.0224 168.269 30.0422 170.672H30.0422C29.8491 170.791 29.7244 170.995 29.7071 171.221C29.6538 171.623 29.3983 172.894 30.5374 173.295C30.5652 173.308 30.5939 173.319 30.6233 173.327C30.9564 173.418 31.2954 173.485 31.638 173.528C31.6859 173.535 31.7338 173.542 31.7822 173.548C31.793 173.55 31.8036 173.551 31.8144 173.552C32.5757 173.644 33.3418 173.687 34.1084 173.681C34.1731 173.681 34.2379 173.68 34.3028 173.68C34.3112 173.68 34.3195 173.68 34.3279 173.68C34.6017 173.677 34.8759 173.67 35.1481 173.657C35.2369 173.653 35.3221 173.648 35.4053 173.644C35.4154 173.643 35.4256 173.643 35.4357 173.642C35.8364 173.627 36.2359 173.588 36.6323 173.528C36.6323 173.528 37.2288 173.465 37.3586 172.95C37.4563 172.563 37.789 170.974 37.332 170.955C37.4983 169.166 37.7354 166.36 37.7893 164.412C38.3 158.878 38.9565 151.984 39.3567 148.623C40.0855 142.503 41.9446 129.319 41.9446 123.422C43.7913 115.387 45.3297 105.726 45.3297 105.726C45.3297 105.726 46.4387 112.644 47.9612 122.046C49.8926 133.972 54.5905 163.983 55.6659 171.008C55.5263 171.155 55.4529 171.353 55.4629 171.555C55.4678 171.971 55.3893 173.326 56.6711 173.507C57.6929 173.595 58.7216 173.564 59.7361 173.413C60.3515 173.334 60.8245 173.258 61.5344 173.112C61.92 173.03 62.2951 172.939 62.6463 172.838C62.6463 172.838 63.2277 172.689 63.2824 172.161C63.3237 171.764 63.4255 170.144 62.9704 170.19Z" fill="#292863"/>
<g style="mix-blend-mode:overlay" opacity="0.6">
<path d="M30.0421 170.672C29.849 170.791 29.7243 170.995 29.707 171.221C29.6523 171.633 29.3807 172.962 30.6233 173.327C31.8658 173.691 34.5942 173.803 36.6322 173.528C36.6322 173.528 37.2287 173.465 37.3585 172.95C37.4562 172.563 37.7889 170.974 37.3319 170.955C36.8261 170.933 34.039 171.441 30.0421 170.672Z" fill="white"/>
</g>
<g style="mix-blend-mode:overlay" opacity="0.6">
<path d="M55.7161 170.964C55.5419 171.109 55.4478 171.329 55.463 171.555C55.4679 171.971 55.3894 173.326 56.6712 173.507C57.953 173.688 60.6691 173.405 62.6465 172.838C62.6465 172.838 63.2278 172.689 63.2826 172.161C63.3238 171.764 63.4256 170.144 62.9705 170.19C62.4668 170.242 59.7815 171.147 55.7161 170.964Z" fill="white"/>
</g>
<g style="mix-blend-mode:overlay" opacity="0.6">
<path d="M45.3297 105.726L42.5208 93.3428C42.5208 93.3428 39.5385 100.131 39.8614 105.399C40.1842 110.667 42.1226 110.365 42.629 120.313L45.3297 105.726Z" fill="#030F1C"/>
</g>
<g style="mix-blend-mode:overlay" opacity="0.6">
<path d="M30.8225 95.0283C30.8225 95.0283 34.1606 96.7271 33.942 99.5114C33.7234 102.296 32.1946 115.501 32.171 120.66C32.1474 125.819 33.0691 140.457 32.2803 143.201C31.4916 145.946 29.3585 146.292 29.3585 146.292C29.3585 146.292 28.6632 125.211 28.5757 119.284C28.8747 113.181 30.8225 95.0283 30.8225 95.0283Z" fill="white"/>
</g>
<g style="mix-blend-mode:overlay" opacity="0.6">
<path d="M47.1353 116.94C47.1353 116.94 50.4799 117.633 51.6276 122.839C52.7753 128.045 55.312 145.836 55.8359 150.282C56.1186 153.002 55.4178 155.732 53.8615 157.976L47.1353 116.94Z" fill="white"/>
</g>
<g style="mix-blend-mode:overlay" opacity="0.6">
<path d="M33.0644 76.5084L32.5142 80.7624C32.5142 80.7624 42.3999 86.4325 60.7488 83.5105C60.7488 83.5105 58.732 78.2477 58.4796 75.9204L33.0644 76.5084Z" fill="#030F1C"/>
</g>
<path fill-rule="evenodd" clip-rule="evenodd" d="M60.6573 105.929C60.6976 106.104 58.8711 106.679 56.5775 107.213C54.284 107.747 52.392 108.038 52.3516 107.863C52.3112 107.688 54.1378 107.114 56.4314 106.58C58.7249 106.046 60.6169 105.754 60.6573 105.929ZM53.767 108.391C56.0605 107.857 57.9526 107.566 57.9929 107.74C58.0333 107.915 56.2067 108.49 53.9131 109.024C51.6196 109.558 49.7276 109.849 49.6873 109.674C49.6469 109.5 51.4734 108.925 53.767 108.391ZM36.3566 115.718C34.0631 116.252 32.2365 116.826 32.2769 117.001C32.3173 117.176 34.2092 116.885 36.5028 116.351C38.7963 115.817 40.6229 115.242 40.5825 115.067C40.5421 114.892 38.6501 115.184 36.3566 115.718ZM29.6125 118.813C29.5721 118.638 31.3987 118.063 33.6923 117.529C35.9858 116.995 37.8778 116.704 37.9181 116.878C37.9585 117.053 36.132 117.628 33.8384 118.162C31.5449 118.696 29.6529 118.987 29.6125 118.813ZM64.8565 183.073C64.7622 182.839 62.612 178.11 62.612 178.11C62.612 178.11 62.4792 175.791 62.3913 172.905C62.1145 172.979 61.8295 173.049 61.5344 173.112C60.8246 173.258 60.3516 173.334 59.7362 173.413C58.8061 173.544 57.8655 173.585 56.9275 173.535C57.2391 176.049 57.562 178.381 57.562 178.381C57.562 178.381 56.3273 182.92 56.3247 183.342C56.3196 184.164 64.2162 183.891 64.558 183.68C64.8015 183.53 64.9914 183.408 64.8565 183.073ZM35.4358 173.642C35.6942 173.628 35.9202 173.61 36.1078 173.593C36.1044 175.217 36.1039 176.779 36.1133 177.09C36.1216 177.365 36.2252 177.926 36.3479 178.59C36.6375 180.159 37.0337 182.304 36.5344 182.623C35.6891 183.163 33.5905 183.362 31.8365 183.528C31.1324 183.594 30.4838 183.656 29.994 183.732C28.8334 183.912 23.8045 184.276 18.6397 184.065C18.5578 182.864 19.3038 181.329 22.0953 180.998C26.1 180.524 27.867 179.878 29.6442 177.213C30.1559 176.446 30.4938 174.908 30.7148 173.351C31.0187 173.429 31.327 173.488 31.6381 173.528C31.686 173.535 31.734 173.542 31.7823 173.548L31.8145 173.552C32.5757 173.644 33.3419 173.687 34.1085 173.681C34.1732 173.681 34.238 173.68 34.3029 173.68L34.328 173.68C34.6018 173.677 34.876 173.67 35.1481 173.657C35.237 173.653 35.3221 173.648 35.4053 173.644L35.4358 173.642Z" fill="#F8CDCC"/>
<path fill-rule="evenodd" clip-rule="evenodd" d="M17.9839 183.763H23.7752C28.5592 183.763 37.484 182.436 37.484 182.436C38.5541 184.522 37.2322 185.027 37.2322 185.027H19.9982C18.1098 185.027 17.9839 183.763 17.9839 183.763ZM64.558 183.68C64.7838 183.541 64.96 183.424 64.8773 183.14L65.1442 183.442L65.1338 183.984C65.1215 184.573 64.6366 185.04 64.0505 185.028H57.1347C56.5485 185.04 56.0636 184.573 56.0512 183.984V183.546L56.2166 183.307L56.3274 183.303L56.3274 183.304C56.326 183.318 56.3247 183.332 56.3246 183.342C56.3196 184.164 64.2162 183.891 64.558 183.68Z" fill="#0300A2"/>
<path fill-rule="evenodd" clip-rule="evenodd" d="M36.6174 177.861C36.592 177.777 36.5305 177.709 36.4496 177.674C36.3687 177.64 36.2769 177.644 36.1992 177.685L32.8834 179.426C32.6845 179.526 32.4456 179.5 32.2729 179.359L29.2237 176.869C29.0584 176.734 28.8201 176.74 28.6608 176.882L26.8759 178.474C26.7886 178.552 26.7362 178.661 26.7304 178.778C26.7245 178.895 26.7657 179.01 26.8447 179.096L31.1929 183.84C31.4775 184.151 31.8905 184.31 32.309 184.27C33.5534 184.15 36.3807 183.731 36.3807 183.731C37.0444 183.502 36.9678 182.51 36.9678 182.51L33.9415 182.04L37.0816 180.186C37.1987 180.117 37.2535 179.976 37.2143 179.846L36.6174 177.861ZM63.2797 179.579C61.9885 178.884 58.6667 178.918 57.2008 179.716L57.0853 180.165C56.8046 179.893 56.884 178.017 57.5215 177.638C58.0728 177.31 59.2559 177.096 59.9072 177.074C60.9863 177.037 62.4107 177.073 62.7991 177.484C63.5793 178.31 63.4706 180 63.4706 180L63.2797 179.579ZM64.1371 181.702C64.3625 181.805 64.5497 181.977 64.6713 182.193L65.1443 183.442C65.1443 183.442 63.8566 182.435 60.7273 182.435C57.5979 182.435 56.0513 183.546 56.0513 183.546L56.2707 182.394C56.2707 182.394 56.3196 182.064 57.1079 181.698C58.1152 181.15 59.2475 180.875 60.3928 180.901C62.3135 180.901 63.4152 181.291 64.1371 181.702ZM21.472 180.911L23.7962 180.55C23.903 180.533 24.0117 180.563 24.0948 180.633L28.1816 184.037C28.1105 184.29 27.9234 184.493 27.6781 184.585H21.5297C21.4296 184.585 21.3336 184.545 21.2629 184.474C21.1921 184.403 21.1523 184.306 21.1523 184.206V181.285C21.1523 181.098 21.2881 180.939 21.472 180.911Z" fill="#030F1C"/>
<path d="M59.3293 76.2649C58.5651 72.8755 56.8074 65.3317 58.3186 57.8077C59.7435 50.7196 59.5389 37.4246 58.6785 37.1027C57.1451 36.5333 54.0192 35.7212 54.0192 35.7212L52.683 35.3597C52.5006 34.3917 51.4775 31.2499 50.8932 30.9479C50.3878 30.6878 42.0108 32.5298 41.8358 32.9928C41.5301 33.795 41.3378 35.8945 41.2761 36.1223C41.2687 36.1495 41.2638 36.1495 41.2614 36.1223L39.9128 36.61L35.6257 38.0781C35.6257 38.0781 34.1343 38.3777 33.8655 40.4871C32.9583 47.5976 31.2992 53.1285 31.1143 55.3023C30.8653 58.241 31.6813 59.5755 32.5441 61.7666C33.4095 63.965 33.9296 69.0603 32.7709 76.7897C32.6831 77.3527 32.9012 77.92 33.3429 78.2776C37.593 81.6323 54.6478 80.4365 58.8117 77.6216C59.2457 77.3193 59.451 76.781 59.3293 76.2649Z" fill="#CAC6BB"/>
<g style="mix-blend-mode:overlay" opacity="0.6">
<path d="M42.6591 35.7792C42.592 35.7791 42.5373 35.7253 42.5359 35.6579L42.4873 33.2978C42.4862 33.2535 42.5089 33.2119 42.5466 33.1889C42.5844 33.1659 42.6315 33.1649 42.6702 33.1863C42.7089 33.2078 42.7332 33.2484 42.7339 33.2927L42.7824 35.6528C42.7837 35.7212 42.7297 35.7777 42.6616 35.7792H42.6591Z" fill="white"/>
</g>
<g style="mix-blend-mode:overlay" opacity="0.6">
<path d="M44.3178 35.6696C44.2533 35.6695 44.1998 35.6195 44.195 35.555L44.0028 32.9612C44.0004 32.9285 44.011 32.8961 44.0323 32.8712C44.0536 32.8463 44.0839 32.831 44.1165 32.8286C44.1492 32.8258 44.1816 32.8363 44.2065 32.8578C44.2313 32.8793 44.2465 32.9099 44.2486 32.9428L44.4408 35.5366C44.4433 35.5693 44.4326 35.6017 44.4113 35.6266C44.39 35.6514 44.3597 35.6668 44.3271 35.6692L44.3178 35.6696Z" fill="white"/>
</g>
<g style="mix-blend-mode:overlay" opacity="0.6">
<path d="M46.0092 35.4502C45.9447 35.4502 45.8912 35.4002 45.8864 35.3356L45.6942 32.7418C45.6891 32.6737 45.7401 32.6143 45.8079 32.6092C45.8758 32.6042 45.9349 32.6553 45.94 32.7235L46.1322 35.3173C46.1347 35.35 46.124 35.3824 46.1027 35.4072C46.0814 35.4321 46.0511 35.4474 46.0185 35.4499L46.0092 35.4502Z" fill="white"/>
</g>
<g style="mix-blend-mode:overlay" opacity="0.6">
<path d="M49.1576 34.7216C49.0932 34.7215 49.0397 34.6716 49.0349 34.607L48.8426 32.0133C48.8394 31.9692 48.8598 31.9267 48.8962 31.9018C48.9325 31.877 48.9794 31.8734 49.0191 31.8927C49.0587 31.9119 49.0852 31.9509 49.0884 31.995L49.2807 34.5886C49.2831 34.6213 49.2725 34.6537 49.2511 34.6786C49.2298 34.7035 49.1995 34.7188 49.1669 34.7212L49.1576 34.7216Z" fill="white"/>
</g>
<g style="mix-blend-mode:overlay" opacity="0.6">
<path d="M50.9052 34.599C50.8407 34.599 50.7872 34.549 50.7824 34.4844L50.5902 31.8908C50.5851 31.8226 50.6361 31.7632 50.7039 31.7582C50.7718 31.7531 50.8309 31.8042 50.836 31.8724L51.0282 34.4661C51.0307 34.4988 51.02 34.5312 50.9987 34.556C50.9774 34.5809 50.9471 34.5962 50.9145 34.5987L50.9052 34.599Z" fill="white"/>
</g>
<g style="mix-blend-mode:overlay" opacity="0.6">
<path d="M47.6048 35.1215C47.5403 35.1214 47.4868 35.0715 47.482 35.0069L47.2899 32.4132C47.2866 32.3691 47.307 32.3266 47.3434 32.3017C47.3798 32.2769 47.4267 32.2734 47.4663 32.2926C47.506 32.3118 47.5324 32.3508 47.5357 32.3949L47.7278 34.9885C47.7302 35.0213 47.7196 35.0536 47.6983 35.0785C47.677 35.1034 47.6467 35.1187 47.6141 35.1211L47.6048 35.1215Z" fill="white"/>
</g>
<path fill-rule="evenodd" clip-rule="evenodd" d="M60.9146 61.1773C61.461 60.9741 61.9505 60.791 62.316 60.6541C62.4888 60.5896 62.6273 60.456 62.6984 60.2852C62.7696 60.1143 62.7671 59.9215 62.6915 59.7526C62.1271 58.4894 60.8273 55.5865 59.5661 52.8132C59.4531 54.5147 59.2129 56.2052 58.8475 57.8705C58.8231 57.9738 58.798 58.0797 58.7723 58.1881C58.2444 60.4111 57.463 63.7021 58.2178 68.3539C59.2888 74.9537 63.3602 87.3331 64.7685 91.6152C64.9642 92.2104 65.1085 92.6491 65.1862 92.8942C63.125 95.3549 59.1728 95.4316 55.1138 95.5104C52.5538 95.5601 49.9512 95.6106 47.7538 96.2606C47.887 93.0308 47.8986 79.7677 47.908 68.9154C47.9139 62.0695 47.9191 56.1829 47.9534 54.3796C48.753 46.2277 48.0637 37.1648 47.779 33.4209C47.7702 33.3051 47.7617 33.1944 47.7538 33.089L52.5009 32.4517L52.9735 35.4388C52.9735 35.4388 56.3095 36.3143 58.1108 36.9073C62.8283 38.0345 63.3996 39.5877 66.5464 48.1427C67.5229 50.7975 68.7475 54.1265 70.4209 58.3264C72.123 62.5981 70.9509 66.4153 63.7971 67.5949C61.526 67.2899 59.8864 62.4635 60.9146 61.1773ZM38.7703 37.0011L39.4257 33.6928L42.027 33.5182C42.027 33.5182 38.9611 52.6542 38.9611 56.8567C38.9611 57.4705 39.0418 59.39 39.1572 62.1347C39.4991 70.266 40.1455 85.6406 39.9004 95.7699C38.0038 95.1344 35.8663 95.0975 33.878 95.0631C31.6443 95.0245 29.5989 94.9891 28.2949 94.112C28.2949 91.0469 29.5024 86.0782 30.6448 81.3768C31.3546 78.4559 32.0394 75.6382 32.3939 73.4442C33.2813 67.9533 32.8057 62.3747 32.4789 61.6017C32.3835 61.3761 32.2905 61.161 32.2007 60.9533C31.6091 59.5847 31.1574 58.5397 31.0778 56.9457C28.7831 60.0318 25.2399 64.2069 22.189 64.165C20.6715 64.1441 18.1941 62.757 15.8218 60.0385C15.1341 58.6151 18.5535 53.6458 20.5767 53.7159L21.8753 54.9488C22.0091 55.1012 22.2118 55.1732 22.4112 55.1392C22.6106 55.1052 22.7784 54.9701 22.8546 54.7819C23.8297 52.392 24.9412 50.0605 26.1836 47.7991C27.2564 45.8658 28.4922 43.855 29.9002 42.2118C31.0367 40.8914 32.3658 39.7516 33.8423 38.8312C34.6001 38.451 35.3864 38.131 36.194 37.8741C36.2153 37.8674 36.2368 37.8629 36.2583 37.8584C36.2689 37.8562 36.2795 37.854 36.2901 37.8515L38.7703 37.0011Z" fill="#75AED8"/>
<path d="M21.4019 58.3911C21.3627 58.3911 21.3272 58.3675 21.3119 58.3312C21.2966 58.2949 21.3044 58.2529 21.3318 58.2246C22.4816 57.0338 22.3084 55.3959 22.3065 55.3795C22.3003 55.3257 22.3387 55.277 22.3923 55.2707C22.4459 55.2644 22.4944 55.303 22.5006 55.3568C22.5903 56.4586 22.2174 57.5478 21.4721 58.3613C21.4537 58.3804 21.4284 58.3911 21.4019 58.3911Z" fill="#0B122D"/>
<g style="mix-blend-mode:overlay" opacity="0.6">
<path d="M31.142 57.6717C31.0459 56.8857 31.0366 56.0915 31.1144 55.3035C31.2213 54.0479 31.3528 51.8428 31.8321 48.7329C28.7911 52.2566 31.1191 55.5723 29.7276 57.5787C26.9344 61.606 26.3284 59.338 23.9242 61.5575C23.2186 62.2089 22.9267 63.0257 22.8857 64.096C24.8918 63.9199 28.7684 60.3631 31.142 57.6717Z" fill="#030F1C"/>
</g>
<g style="mix-blend-mode:overlay" opacity="0.6">
<path d="M58.8476 57.8701C59.1734 56.0524 59.3454 54.2102 59.3617 52.3634C58.59 50.6695 57.8501 49.0637 57.3196 47.9521C56.9795 51.0567 55.3368 58.2118 52.4053 59.6059C49.8428 60.8246 48.6269 60.3107 49.1363 61.1805C49.5462 61.8803 52.0255 61.7897 53.0122 61.8906C56.4701 62.244 57.5895 79.3034 56.4701 84.1884C54.8939 91.0671 47.7539 96.2602 47.7539 96.2602C51.9055 95.0904 56.9387 95.8002 60.2064 95.2112C64.2325 94.4856 65.1863 92.8938 65.1863 92.8938C64.7108 90.9468 60.7816 80.3206 58.8328 71.4409C57.1795 63.9077 58.2687 60.8802 58.8476 57.8701Z" fill="#030F1C"/>
</g>
<g style="mix-blend-mode:overlay" opacity="0.6">
<path d="M30.021 42.103C30.021 42.103 33.177 39.6536 38.2425 38.6411L38.7701 37.001C36.6764 37.8392 32.5265 38.4521 30.021 42.103Z" fill="white"/>
</g>
<g style="mix-blend-mode:overlay" opacity="0.6">
<path d="M52.9735 35.4385L44.6782 36.3829C44.6782 36.3829 54.1796 37.9196 58.6786 37.1027C58.6786 37.1027 55.4354 36.0318 52.9735 35.4385Z" fill="#030F1C"/>
</g>
<path d="M31.0907 55.98C31.0866 55.98 31.0824 55.9798 31.0782 55.9794C31.0456 55.9761 31.0157 55.96 30.9951 55.9345C30.9744 55.9091 30.9646 55.8764 30.9679 55.8438L31.6345 49.2147C31.6423 49.1472 31.7021 49.0981 31.7696 49.104C31.8021 49.1073 31.832 49.1234 31.8527 49.1489C31.8734 49.1743 31.8832 49.207 31.8799 49.2396L31.2132 55.8687C31.2069 55.9319 31.1539 55.98 31.0907 55.98Z" fill="#0B122D"/>
<path d="M47.8136 72.8797L40.1181 59.7646L38.0136 56.1771C37.8464 55.8917 37.5412 55.7165 37.2114 55.7168H24.7404C24.3714 55.7594 24.0435 55.9732 23.8545 56.2944C23.8134 56.3526 23.7759 56.4132 23.7422 56.4759C23.6896 56.5701 23.6467 56.6695 23.6143 56.7725C23.6143 56.7747 23.6121 56.7747 23.6121 56.7769C23.5115 57.02 23.5195 57.2948 23.6342 57.5316L23.6209 57.505C23.6266 57.5209 23.6333 57.5364 23.6408 57.5515L23.6474 57.5604C23.6496 57.5626 23.6496 57.5648 23.6518 57.567C23.6575 57.5807 23.6642 57.594 23.6716 57.6068L30.5275 69.2922L31.7704 71.408L33.4717 74.3094C33.6388 74.5949 33.9441 74.77 34.2738 74.7697H46.7448C46.7906 74.7694 46.8362 74.7657 46.8814 74.7587C47.602 74.7565 48.1794 73.5038 47.8136 72.8797Z" fill="#0064C4"/>
<g style="mix-blend-mode:overlay" opacity="0.6">
<path d="M23.5711 57.3664C23.5631 57.3343 23.5568 57.3017 23.5524 57.2689C23.5566 57.3017 23.5628 57.3343 23.5711 57.3664Z" fill="#030F1C"/>
<path d="M23.6206 57.5047C23.6279 57.5198 23.6329 57.5361 23.6414 57.5506L23.6523 57.5681C23.6411 57.547 23.63 57.526 23.6206 57.5047Z" fill="#030F1C"/>
<path d="M23.6098 57.4811C23.5945 57.444 23.5817 57.4059 23.5713 57.3671C23.5808 57.4061 23.5937 57.4443 23.6098 57.4811Z" fill="#030F1C"/>
<path d="M46.8818 74.7587C47.1881 74.7133 47.4519 74.5178 47.5854 74.2372C47.7189 73.9567 47.7046 73.6278 47.5474 73.36L39.702 59.9904L37.7473 56.6574C37.5802 56.3719 37.2749 56.1967 36.9452 56.197H24.4742C24.0977 56.1951 23.7577 56.4227 23.6147 56.7725C23.6472 56.6695 23.69 56.5701 23.7426 56.4759C23.7758 56.4129 23.8134 56.3522 23.8549 56.2944C24.0439 55.9732 24.3718 55.7594 24.7409 55.7168H37.2118C37.5416 55.7165 37.8468 55.8917 38.014 56.1771L40.1186 59.7646L47.814 72.8797C48.1798 73.5038 47.6025 74.7565 46.8818 74.7587Z" fill="#030F1C"/>
</g>
<g style="mix-blend-mode:overlay" opacity="0.6">
<path d="M24.3601 57.0571H25.2232C25.2795 57.0571 25.3316 57.0871 25.36 57.136L25.571 57.4984C25.5996 57.5476 25.5998 57.6085 25.5716 57.6579C25.5433 57.7074 25.4909 57.7379 25.4341 57.7379H24.571C24.5147 57.7379 24.4626 57.7078 24.4342 57.659L24.2233 57.2966C24.1947 57.2474 24.1944 57.1865 24.2227 57.1371C24.2509 57.0876 24.3034 57.0571 24.3601 57.0571Z" fill="#030F1C"/>
</g>
<g style="mix-blend-mode:overlay" opacity="0.6">
<path d="M32.8675 63.0151H33.9996C34.3329 63.0285 34.6445 63.1846 34.8556 63.444C35.342 64.0211 35.1167 64.7464 34.4511 64.7464H33.319C32.9857 64.7331 32.6741 64.577 32.463 64.3176C31.9766 63.7405 32.2019 63.0151 32.8675 63.0151Z" fill="#030F1C"/>
</g>
<path fill-rule="evenodd" clip-rule="evenodd" d="M8.63193 34.2434C9.25462 34.8134 9.35638 36.8622 9.35638 36.8622C9.63693 39.0972 9.77551 40.3638 9.78169 40.4203L9.78191 40.4223C9.74326 40.5505 16.4907 49.2034 20.1223 53.7776C18.4989 54.2269 16.3284 57.0937 15.835 58.9104C11.6099 53.6004 5.60468 42.8486 5.60468 42.8486C3.9914 42.2687 3.49017 41.6156 2.44836 40.2581C2.39154 40.1841 2.33312 40.1079 2.27283 40.0296L2.2711 40.0298C2.06396 39.76 1.86963 39.4905 1.69208 39.2263L1.69038 39.2256C1.66804 39.1915 1.64705 39.1598 1.6249 39.1272C1.5285 38.9813 1.43667 38.8375 1.34943 38.6961C0.648469 37.5521 0.284628 36.5811 0.428566 36.2477C0.792399 35.4107 1.69992 35.8425 1.75413 35.8687C1.71939 35.807 1.26639 34.8864 1.78048 34.3435C2.25219 33.8483 3.22423 34.2764 3.22423 34.2764C3.22423 34.2764 2.7447 33.0983 3.43192 32.8307C4.40837 32.4479 4.9104 33.0709 5.00433 33.2396C4.83808 32.7684 4.68209 32.3298 4.53715 31.9223C3.41833 28.7768 2.95819 27.4831 3.51878 27.2937C4.23044 27.0533 5.65911 29.9738 6.47862 32.245C6.53645 32.4052 6.69556 32.7634 6.84885 33.1086C6.93441 33.3012 7.01816 33.4898 7.08148 33.6376C7.15497 33.8084 7.20478 33.9227 7.20478 33.9227C7.70406 33.7866 8.23804 33.9066 8.63193 34.2434ZM46.9295 65.6874C47.048 65.6729 56.2024 62.9973 60.6795 61.6875C60.3246 63.079 61.2361 65.8601 62.6608 67.049L48.3667 69.6278C48.3652 69.6308 48.3639 69.6339 48.3625 69.637C48.3611 69.6403 48.3597 69.6437 48.3581 69.6468C47.599 69.811 46.7346 70.0557 46.2039 70.3919C45.3465 70.9351 43.2027 71.1435 42.4299 70.9895C41.1547 71.1609 39.388 71.3762 39.0579 71.3027C38.531 71.185 38.6632 70.6818 38.9413 70.495C39.0609 70.4147 38.525 70.3154 38.0852 70.2339C37.9407 70.2071 37.8065 70.1822 37.7094 70.1606C37.1201 70.0297 37.2678 69.4666 37.5786 69.2581C37.7795 69.1232 37.0528 68.9569 36.5967 68.8554C36.0075 68.7244 36.1552 68.1615 36.4659 67.953C36.5352 67.9064 36.6714 67.8437 36.8188 67.7757C37.1752 67.6115 37.5969 67.4172 37.2945 67.3498C36.7056 67.2186 36.8535 66.6558 37.1641 66.4472C37.4064 66.2845 39.8997 65.9942 40.983 65.8745C41.062 65.8634 41.1441 65.8527 41.2272 65.8418C41.7088 65.7786 42.2201 65.7115 42.3221 65.5623C42.4176 65.4226 42.1595 65.0715 41.8245 64.6158C41.6708 64.4068 41.501 64.1757 41.3416 63.933C40.8348 63.1612 41.5277 62.0787 41.7644 62.1517C41.8723 62.1848 42.3005 62.7281 42.7867 63.345C43.3678 64.0823 44.0319 64.9249 44.3313 65.1277C44.7257 65.3952 45.2384 65.516 45.6423 65.6111C45.8012 65.6485 45.9431 65.6819 46.0545 65.7187C46.3463 65.756 46.642 65.7511 46.9325 65.7041L46.9295 65.6874Z" fill="#F8CDCC"/>
<path d="M53.8163 68.67C53.7634 68.6722 53.718 68.6328 53.7125 68.58C53.707 68.5271 53.7433 68.4791 53.7955 68.4703L60.3221 67.3711C60.3574 67.365 60.3934 67.3783 60.4162 67.4061C60.4391 67.4338 60.4455 67.4718 60.4329 67.5055C60.4203 67.5393 60.3907 67.5637 60.3552 67.5695L53.8287 68.6687C53.8246 68.6694 53.8204 68.6698 53.8163 68.67Z" fill="#0B122D"/>
<g style="mix-blend-mode:overlay" opacity="0.6">
<path d="M64.5187 61.6191C62.1944 62.5528 55.513 65.6201 54.4062 63.5207C56.4703 62.9179 59.3625 62.0725 60.6656 61.7014C60.717 61.513 60.8014 61.3354 60.915 61.1768L62.3164 60.6536C62.4856 60.5986 62.6234 60.4734 62.6947 60.3097C62.766 60.146 62.7642 59.9594 62.6896 59.7972C62.1712 58.7309 61.3009 56.5352 59.7433 53.242C60.2702 53.0307 61.3663 53.2403 61.7108 53.8801C62.1102 54.6246 64.1183 58.597 64.9696 60.1989C65.1608 60.5587 65.1335 61.3721 64.5187 61.6191Z" fill="white"/>
</g>
<path d="M64.9056 62.1547C64.8567 62.1547 64.815 62.1191 64.8069 62.0707C64.796 62.0046 64.5175 60.4527 62.6867 60.4C62.6314 60.3984 62.5878 60.3521 62.5894 60.2965C62.591 60.241 62.6371 60.1972 62.6924 60.1988C63.8029 60.1747 64.7737 60.9469 65.0046 62.038C65.0135 62.0928 64.9766 62.1444 64.9221 62.1535C64.9166 62.1543 64.9111 62.1547 64.9056 62.1547Z" fill="#0B122D"/>
<path d="M59.5032 51.6535C59.4828 51.6535 59.4629 51.6472 59.4462 51.6355C56.5816 49.6381 56.5726 45.2902 56.5728 45.2465C56.5731 45.1912 56.6178 45.1465 56.6729 45.1465H56.6735C56.7288 45.1468 56.7734 45.1921 56.7731 45.2477C56.7729 45.2903 56.7833 49.5338 59.5604 51.4703C59.5964 51.4954 59.612 51.541 59.5989 51.583C59.5858 51.625 59.547 51.6535 59.5032 51.6535V51.6535Z" fill="#0B122D"/>
<g style="mix-blend-mode:overlay" opacity="0.6">
<path d="M22.0154 58.0562C20.182 56.0916 14.0068 49.498 15.9553 48.4978L20.1295 53.7875C20.2736 53.7387 20.4248 53.7143 20.5769 53.7155L21.8748 54.9479C22.0088 55.1003 22.2117 55.1724 22.4113 55.1386C22.611 55.1047 22.779 54.9697 22.8557 54.7815C23.8301 52.3911 24.9415 50.0593 26.1841 47.7979C26.9888 49.4309 25.5426 54.0004 22.934 57.9759C22.8353 58.1269 22.6732 58.2241 22.4941 58.2398C22.3149 58.2554 22.1385 58.1878 22.0154 58.0562Z" fill="white"/>
</g>
<path d="M6.19466 36.4802C6.14068 36.4811 6.09769 36.5259 6.09864 36.5801C6.10303 36.835 6.07106 37.1548 5.89372 37.2302C5.63935 37.3384 5.1141 36.9463 4.84312 36.6734C4.81278 36.6428 4.76608 36.6357 4.7281 36.656C4.69011 36.6762 4.66977 36.719 4.67799 36.7614C4.78328 37.3076 4.72237 37.6717 4.49711 37.8435C4.07559 38.1649 3.19004 37.7678 3.04914 37.7013C2.79378 37.2782 2.32083 36.5973 2.14281 36.2077C2.1203 36.1584 2.06227 36.1367 2.01319 36.1594C1.96411 36.182 1.94256 36.2402 1.96507 36.2895C2.14762 36.6891 2.63287 37.3872 2.8883 37.8136C2.92205 38.2152 2.8492 38.4924 2.66816 38.6338C2.38687 38.8538 1.92156 38.6907 1.91697 38.689C1.86619 38.6706 1.81022 38.6971 1.79194 38.7481C1.77366 38.7991 1.79998 38.8553 1.85074 38.8737C1.98928 38.9202 2.13427 38.9443 2.28034 38.9453C2.46191 38.9515 2.64035 38.8967 2.78736 38.7894C3.02133 38.5716 3.13513 38.2531 3.09242 37.9356C3.41618 38.0714 4.17842 38.3327 4.61519 38.0001C4.85993 37.8134 4.9591 37.4781 4.91118 37.0011C5.17881 37.2271 5.64202 37.55 5.96989 37.4111C6.19294 37.3163 6.30205 37.0355 6.29412 36.5766C6.29412 36.5504 6.28353 36.5254 6.26478 36.5072C6.24602 36.489 6.22071 36.4793 6.19466 36.4802Z" fill="#030F1C"/>
<path d="M7.18956 36.0776C6.49184 36.1899 4.59042 36.385 4.1757 35.9413C4.10872 35.8714 4.08446 35.7707 4.11223 35.6777C4.33652 34.6795 6.99132 34.0755 7.01804 34.0696C7.05221 34.062 7.07976 34.0367 7.0903 34.0032C7.10083 33.9697 7.09274 33.9331 7.06908 33.9073C7.04542 33.8814 7.0098 33.8702 6.97567 33.8779C6.86537 33.9025 4.36115 34.4731 3.95799 35.5177L3.47387 34.5997C3.44791 34.5523 3.38874 34.535 3.3415 34.5608C3.29426 34.5867 3.27672 34.646 3.30226 34.6936L3.90728 35.8409C3.91008 35.8461 3.91528 35.8484 3.91881 35.8528C3.93531 35.9365 3.975 36.0137 4.0333 36.0757C4.28127 36.341 4.88134 36.4182 5.49669 36.4181C6.07404 36.4107 6.65012 36.3617 7.22048 36.2715C7.2736 36.2627 7.30967 36.2125 7.30115 36.1591C7.29263 36.1057 7.24273 36.0693 7.18955 36.0776H7.18956Z" fill="#030F1C"/>
<path d="M41.1724 67.0906C41.1702 67.0668 41.1587 67.0449 41.1403 67.0297C41.1219 67.0145 41.0983 67.0073 41.0746 67.0097L37.1478 67.3908C37.0996 67.3955 37.0639 67.4378 37.0671 67.4864C37.0703 67.5349 37.1114 67.572 37.1598 67.5702L37.165 67.5699L41.0918 67.1888C41.1155 67.1865 41.1373 67.1749 41.1524 67.1565C41.1675 67.1381 41.1747 67.1144 41.1724 67.0906Z" fill="#0B122D"/>
<path d="M41.4169 68.749C41.4104 68.6999 41.3658 68.6652 41.3168 68.671L37.3279 69.1783C37.2803 69.1844 37.2459 69.2269 37.2498 69.2749C37.2537 69.3229 37.2946 69.3593 37.3425 69.3575L37.3503 69.3569L41.3393 68.8496C41.3629 68.8466 41.3843 68.8343 41.3988 68.8155C41.4134 68.7966 41.4199 68.7727 41.4169 68.749Z" fill="#0B122D"/>
<path d="M42.0441 70.0658L38.6927 70.4149C38.6446 70.4199 38.6091 70.4623 38.6125 70.5107C38.6159 70.5591 38.6569 70.5961 38.7052 70.5943L38.7111 70.5939L42.0625 70.2448C42.1117 70.2397 42.1475 70.1955 42.1424 70.1461C42.1368 70.097 42.0931 70.0613 42.0441 70.0658Z" fill="#0B122D"/>
</svg>
