<svg width="189" height="155" viewBox="0 0 189 155" fill="none" xmlns="http://www.w3.org/2000/svg">
<path d="M33.7254 86.2513C33.6649 86.1521 28.2663 76.4329 24.4519 69.89C24.3643 69.6661 24.1927 69.4855 23.9736 69.3866C23.7545 69.2878 23.5055 69.2785 23.2797 69.3609C16.1879 70.683 10.0856 71.7927 0.896484 73.5714C3.74315 80.3317 1.39276 75.3004 8.57096 90.7317C8.67717 90.9987 8.78337 91.2111 9.15657 91.1049C11.8752 90.5719 14.5938 90.1541 17.3105 89.6161C21.7899 88.7159 32.712 86.5173 33.7254 86.2513Z" fill="#38A1FF"/>
<path d="M70.3369 45.0559C70.1245 45.0559 69.8029 44.6827 69.7513 44.4157C69.4208 42.7125 63.5071 10.5237 63.3563 9.98873C63.13 9.19468 63.4615 8.6984 64.3151 8.59915C67.2928 8.25274 110.147 3.63634 112.599 3.37629C113.131 3.32071 113.46 3.42691 113.612 4.0155C114.063 5.76836 121.278 36.1 121.872 38.7095C121.911 38.8653 121.915 39.0281 121.883 39.1857C121.851 39.3433 121.784 39.4916 121.687 39.6196C121.589 39.7476 121.464 39.8521 121.321 39.9251C121.178 39.9981 121.02 40.0379 120.859 40.0415C118.727 40.2053 71.0834 45.1085 70.3369 45.0559Z" fill="#191919"/>
<path d="M34.6306 95.2042C34.3944 93.5526 33.7998 92.3 35.2708 91.8474C36.3994 91.499 36.3894 91.5268 36.3894 89.6091C36.2825 87.5101 36.9457 85.4443 38.2545 83.7997C39.1127 82.5521 40.2089 81.4862 41.48 80.6631C42.7512 79.8401 44.1723 79.2762 45.6619 79.0036C48.0917 78.4915 48.7051 78.1699 55.2014 78.95C57.4843 79.224 63.803 80.5024 66.7151 80.549C70.2983 80.6066 73.4536 79.3461 72.3618 75.9118C70.867 71.1842 66.4769 69.1961 61.7563 66.2125C59.3871 64.7147 57.4307 63.3718 59.1449 60.8298C59.9565 59.7085 61.038 58.8103 62.2893 58.2184C65.7692 56.3941 65.6203 56.6194 67.3514 56.3524C67.3514 56.2462 67.3514 56.0328 67.4576 55.9802C68.1524 55.4472 67.929 54.809 67.7772 54.1678C67.5226 52.7339 67.5771 51.2622 67.937 49.8511C68.0438 49.4623 68.272 49.1178 68.5884 48.8678C68.9048 48.6178 69.2928 48.4755 69.6958 48.4616C71.9916 48.2829 122.089 43.0303 124.217 42.7603C125.007 42.6284 125.817 42.6799 126.584 42.9109C127.351 43.1419 128.054 43.5461 128.64 44.0923C133.426 48.3057 142.481 55.343 147.186 59.2279C147.642 59.5207 147.985 59.9595 148.159 60.4726C148.334 60.9857 148.329 61.5427 148.146 62.0527C147.921 62.7107 147.721 64.9738 144.894 65.3033C136.313 66.3038 101.15 69.8175 89.3108 71.219C83.0825 71.9555 76.5614 67.6765 72.5236 62.9579C71.2047 61.5161 70.0597 59.9244 69.1122 58.2154C69.006 57.8958 68.3082 57.9435 68.1534 57.7886C67.7802 57.202 67.3008 57.4154 66.8214 57.5752C64.2557 58.1937 61.9346 59.5678 60.1583 61.5197C58.1871 63.9207 62.2536 65.0026 67.6194 68.6076C70.5574 70.5808 73.7623 74.1173 73.6948 77.5069C73.6506 78.2623 73.4049 78.9922 72.9832 79.6205C72.5615 80.2489 71.9792 80.7529 71.2968 81.0801C65.662 83.5714 55.7861 79.4632 48.9136 79.9079C44.6456 80.1828 41.1031 81.8394 38.8947 85.6647C37.9758 87.1879 37.5304 88.9499 37.6153 90.7268C37.6153 91.1536 37.7215 91.4732 38.2545 91.5794C39.2679 91.6866 39.4376 92.5362 39.644 93.3382C39.9259 94.4538 39.913 94.43 41.0336 94.298C56.7677 92.4598 50.463 92.9243 55.5826 92.432C56.324 92.4194 57.0537 92.6181 57.6864 93.0048C58.3191 93.3914 58.8288 93.9501 59.1558 94.6156C61.5102 99.7581 70.067 116.709 70.2943 119.503C70.3994 120.116 70.2641 120.747 69.9166 121.263C69.5691 121.779 69.0361 122.141 68.4283 122.274C66.4209 123.125 64.3316 123.768 62.193 124.193C62.0759 124.221 41.3165 128.571 38.1046 128.883C37.1438 128.976 33.7879 129.15 32.4023 128.403C29.0911 127.368 26.6087 121.477 25.2082 118.279C19.0742 104.271 19.1735 103.887 18.9194 101.066C18.8448 100.414 19.0166 99.757 19.4011 99.2245C19.7856 98.6921 20.355 98.3224 20.9978 98.1878C24.2435 97.368 27.4951 96.6772 30.7507 95.9496C32.8321 95.4831 34.4371 95.3988 34.6306 95.2042ZM21.7869 105.171C21.6895 105.188 21.5973 105.227 21.5173 105.285C21.4373 105.343 21.3717 105.419 21.3254 105.506C21.2792 105.594 21.2535 105.691 21.2504 105.789C21.2473 105.888 21.2668 105.987 21.3075 106.077C22.968 109.827 30.2078 124.942 30.5274 125.368C30.9244 125.765 67.8338 118.463 67.939 118.44C68.0508 118.416 68.1559 118.367 68.2464 118.297C68.3368 118.227 68.4104 118.138 68.4616 118.036C68.5128 117.933 68.5403 117.821 68.5421 117.707C68.5439 117.592 68.5199 117.479 68.472 117.375C66.7132 113.722 60.2645 99.9477 59.7374 98.8816C59.673 98.7883 59.5844 98.7142 59.481 98.6673C59.3777 98.6204 59.2635 98.6026 59.1508 98.6156C54.992 99.3084 27.3293 104.158 21.7869 105.171ZM70.5504 58.1122C71.6546 60.1871 73.0549 62.0903 74.7072 63.7619C79.8328 68.6254 85.6393 70.3525 87.4974 70.2135C89.2016 70.0835 140.527 64.5311 144.255 64.0854C144.866 64.056 145.448 63.8176 145.904 63.4101C146.36 63.0027 146.662 62.4509 146.76 61.8472C146.846 61.5253 146.841 61.1861 146.747 60.8665C146.653 60.547 146.473 60.2593 146.227 60.0348C140.018 54.8983 133.794 49.6606 127.628 44.4734C127.321 44.1758 126.95 43.9535 126.543 43.8239C126.136 43.6944 125.705 43.6612 125.283 43.727C121.562 44.2759 75.403 49.1921 70.1246 49.7499C68.3052 49.9415 68.7787 50.4298 69.2184 54.8655C69.266 55.3459 69.538 55.5048 70.0124 55.5048C70.5244 55.4972 71.0265 55.6461 71.4516 55.9316C71.8489 56.3539 72.141 56.864 72.3043 57.4204C72.5177 57.8472 72.3043 58.1152 71.8248 58.1152C71.4016 58.1674 70.9734 58.1664 70.5504 58.1122Z" fill="#191919"/>
<path d="M140.154 21.1801C139.675 19.5811 139.248 18.0357 138.715 16.5439C138.531 14.1883 138.692 11.8184 139.194 9.5096C139.988 9.11258 141.038 11.3845 142.446 12.8664C143.562 14.0416 143.724 15.5315 144.151 16.9171C144.365 17.6119 144.577 18.2491 144.79 18.9419C144.819 18.9452 144.849 18.9422 144.876 18.9329C144.904 18.9236 144.929 18.9084 144.95 18.8883C144.844 18.1935 144.417 11.321 144.417 8.76419C144.417 7.17609 145.617 5.53539 147.136 6.25896C148.592 6.95376 148.714 8.40984 148.947 10.0426C150.067 9.9364 150.207 10.0426 150.436 11.1622C150.665 12.3236 150.665 13.5185 150.436 14.6798C150.326 15.1186 150.183 15.2992 149.903 15.1593C149.796 13.7697 149.476 10.9488 149.423 10.9488C149.326 11.3168 149.256 11.6908 149.21 12.0684C149.37 14.573 149.583 17.0775 149.849 19.5821C149.849 19.731 149.994 20.4963 150.436 20.2769C151.119 16.2843 152.027 12.3336 153.157 8.44359C153.425 7.40041 154.169 6.42373 155.235 6.79098C155.52 6.97715 155.743 7.24374 155.876 7.55691C156.009 7.87007 156.045 8.21566 155.981 8.5498C155.981 8.656 155.928 8.7096 155.928 8.81679C156.195 8.91686 156.422 9.10072 156.576 9.34086C156.73 9.58099 156.801 9.86447 156.78 10.1488C156.807 11.3756 156.807 12.5458 156.78 13.7726C156.77 13.9032 156.713 14.0256 156.619 14.117C156.526 14.2084 156.402 14.2624 156.271 14.269C156.14 14.2756 156.012 14.2343 155.909 14.1527C155.807 14.0712 155.737 13.9551 155.714 13.8262C155.691 13.4317 155.637 13.0396 155.555 12.653C152.755 26.6541 154.751 19.86 158.112 12.8128C158.409 12.2926 158.767 11.8097 159.178 11.3746C159.588 10.7645 160.053 10.1936 160.568 9.6694C160.646 9.53638 160.754 9.42358 160.884 9.34012C161.014 9.25666 161.161 9.2049 161.314 9.189C161.794 9.189 161.854 9.50861 161.9 9.98901C162.028 11.319 162.221 12.6004 162.38 13.9325C162.469 14.3771 162.318 14.5687 159.396 21.0203C159.179 21.4987 159.396 21.7588 159.769 21.9801C160.201 22.2382 160.675 22.5131 161.101 22.7255C161.432 22.896 161.696 23.1726 161.85 23.511C162.005 23.8494 162.041 24.23 161.954 24.5916C161.535 27.2655 158.022 46.6473 157.637 49.0522C156.697 54.9153 148.13 53.8086 142.342 52.5699C139.434 51.9485 139.639 50.1877 138.931 47.1346C138.548 45.484 134.177 26.8715 133.442 24.2184C132.758 21.7687 137.646 21.0451 140.154 21.1801ZM160.303 25.1772C151.776 26.9896 143.355 27.1494 135.041 24.2184C137.35 35.7589 138.436 38.9013 141.224 49.5287C141.569 50.8478 142.405 50.679 142.876 50.9182C149.297 51.613 151.794 52.4071 154.653 51.078C155.054 50.9338 155.409 50.6846 155.681 50.3566C155.953 50.0286 156.132 49.6337 156.199 49.213C160.112 28.269 158.913 33.212 160.297 25.1772H160.303ZM139.891 16.2769C140.312 18.8901 141.025 21.4477 142.017 23.9017C142.076 24.0303 142.168 24.1407 142.284 24.2213C143.243 24.3811 144.202 24.4873 145.215 24.5945C145.054 23.9504 142.582 16.0585 142.55 15.9593C142.071 14.7315 139.673 16.0109 139.885 16.2769H139.891ZM159.876 14.7315C159.61 14.7851 159.342 15.0044 159.077 14.9449C158.863 14.8972 158.704 14.5717 158.491 14.3057C157.051 17.6625 155.294 20.8566 154.014 24.3782C154.973 24.271 155.773 24.1648 156.572 24.0586C156.96 24.0586 157.008 23.8243 160.356 16.0109C160.532 15.6466 160.167 15.2268 159.87 14.7315H159.876ZM152.149 13.986C151.403 17.6585 150.76 21.0739 150.017 24.6442C150.764 24.5916 151.243 24.538 151.776 24.538C152.659 24.538 152.157 24.5608 154.44 14.5717C153.635 14.3593 152.889 14.1985 152.143 13.986H152.149ZM148.951 24.6442C148.615 19.9374 148.383 17.7568 148.256 15.5841C148.189 14.4128 148.043 14.1945 146.817 14.3057C146.493 14.3767 146.173 14.4655 145.858 14.5717C146.178 17.9295 146.498 21.2873 146.765 24.6442H148.951ZM147.992 13.0312C147.779 11.3796 147.575 9.61878 147.246 7.91555C147.039 6.84854 145.967 7.38254 145.807 7.64855C145.595 7.94319 145.483 8.29801 145.487 8.66096C145.572 12.2401 145.807 12.5776 145.807 13.5106C146.547 13.3458 147.186 13.1821 147.986 13.0262L147.992 13.0312ZM141.436 13.9374C140.424 12.392 140.424 12.392 139.731 12.6054C139.412 15.0034 139.198 14.6302 139.891 14.6302C140.454 14.5295 140.983 14.2896 141.43 13.9325L141.436 13.9374ZM159.557 13.4044C160.303 12.9786 160.303 12.9786 161.045 14.0436H161.205C161.153 13.3508 161.1 12.658 161.045 11.9652C160.767 11.8601 160.482 11.7712 160.193 11.6992C159.177 12.8128 159.177 12.8128 159.551 13.3994L159.557 13.4044Z" fill="#191919"/>
<path d="M6.33177 146.633C5.81918 146.705 5.29894 146.705 4.78635 146.633C4.68998 146.611 4.6006 146.565 4.52626 146.5C4.45192 146.435 4.39497 146.352 4.36055 146.259C4.30695 146.153 4.52035 145.94 4.62655 145.78C4.81252 145.591 5.03791 145.445 5.28667 145.353C5.53543 145.261 5.80144 145.225 6.06577 145.247C15.4117 143.494 167.202 115.768 184.118 112.472C185.685 112.166 186.637 113.685 185.398 113.96C184.297 114.212 6.43103 146.615 6.33177 146.633Z" fill="#191919"/>
<path d="M187.582 118.388C187.768 118.316 187.973 118.314 188.159 118.383C188.345 118.452 188.5 118.586 188.595 118.761C188.489 119.346 188.009 119.456 187.53 119.613C127.083 134.094 13.236 155 7.771 155C7.771 152.72 43.8039 149.858 187.582 118.388Z" fill="#191919"/>
<path d="M32.7119 62.3229C31.223 63.6023 27.0146 62.9542 25.5178 62.0033C24.4913 61.3509 23.652 60.443 23.0822 59.3685C22.5123 58.294 22.2315 57.0899 22.2671 55.8742C22.1133 50.7228 26.4865 49.0137 29.2478 51.3442C29.4612 51.504 29.6746 51.7174 29.8344 51.3442C30.2585 50.5289 30.8807 49.8332 31.6438 49.321C32.4069 48.8089 33.2865 48.4967 34.2017 48.4132C39.5714 47.4861 42.295 46.9293 50.3497 48.4668C52.7516 48.9253 54.0221 50.971 53.8137 53.5824C53.4751 57.3504 51.985 60.9229 49.5457 63.8147C48.6771 64.9041 47.4181 65.6119 46.036 65.7879C43.5853 66.1652 41.0989 66.2545 38.6275 66.0539C35.6002 65.8018 33.7233 63.1894 32.7119 62.3229ZM30.5808 52.837C30.4122 54.7535 30.7425 56.6811 31.5396 58.4321C32.5942 60.5641 34.1044 62.4382 35.9635 63.9219C36.6373 64.5361 37.5053 64.8943 38.4161 64.9343C41.3202 65.1594 44.2413 64.9982 47.103 64.4549C47.3928 64.3699 47.652 64.2031 47.8494 63.9745C50.708 61.0256 53.0216 56.5244 52.8588 52.304C52.7665 49.9139 50.2693 49.1884 47.903 48.84C42.6265 48.0618 31.095 47.5387 30.5808 52.837ZM39.3739 49.0524C48.0678 48.1591 53.64 50.8628 51.365 51.8772C47.3114 53.6846 40.5461 54.7268 32.819 52.7298C32.0181 52.5234 30.6831 51.4395 32.4458 50.438C33.6687 49.7412 37.8811 49.2052 39.3739 49.0524ZM29.355 53.2628C29.4206 52.9344 29.3637 52.5934 29.1952 52.304C28.8543 51.8856 28.4082 51.5655 27.9026 51.3766C27.3971 51.1877 26.8504 51.1368 26.3186 51.229C25.7869 51.3213 25.2893 51.5534 24.877 51.9016C24.4646 52.2498 24.1524 52.7014 23.9724 53.2102C23.6315 54.0033 23.4613 54.8592 23.4728 55.7223C23.4843 56.5854 23.6773 57.4365 24.0392 58.2202C24.401 59.0039 24.9238 59.7027 25.5733 60.2712C26.2229 60.8397 26.9848 61.2651 27.8096 61.5199C29.2193 62.0805 30.7755 62.1552 32.2324 61.7323C31.9664 61.3591 31.6994 61.0375 31.486 60.7199C28.3783 61.8256 22.3723 56.041 26.2642 53.3124C26.7009 52.9626 27.2416 52.7678 27.8011 52.7589C28.3606 52.7499 28.9073 52.9272 29.355 53.2628ZM31.22 60.3507C30.1263 58.606 29.5191 56.6006 29.4612 54.5422C29.3755 54.329 29.243 54.1376 29.0736 53.9824C28.9041 53.8271 28.7019 53.7119 28.4819 53.6453C28.262 53.5786 28.0298 53.5621 27.8027 53.5971C27.5755 53.6321 27.3591 53.7176 27.1694 53.8474C24.2225 55.4832 27.8801 60.3507 31.22 60.3507ZM38.7873 50.7586C37.2985 50.0122 34.6305 50.2782 33.7779 51.6112C35.4831 51.2966 37.0265 51.0246 38.7873 50.7586Z" fill="#191919"/>
<path d="M66.9801 47.6139C67.1935 49.8521 66.0283 47.9325 65.9677 47.5603C65.6352 45.5285 59.3434 12.7085 59.0923 10.9477C58.8505 9.82369 58.9613 8.65246 59.4096 7.59377C59.858 6.53508 60.622 5.64049 61.5975 5.03202C62.1625 4.74231 62.777 4.5615 63.4089 4.49901C64.7916 4.26774 109.456 0.0970033 111.373 0.0225613C117.355 -0.209698 116.8 0.584354 125.496 41.1652C125.496 42.2848 124.655 41.9086 124.537 41.4312C124.391 40.8416 124.15 40.263 124.004 39.6734C116.276 8.42757 116.377 4.43152 115.69 3.16699C115.421 2.54093 114.963 2.01447 114.38 1.66095C113.798 1.30743 113.119 1.14447 112.439 1.19478C110.84 1.30396 63.2451 5.6613 62.4501 6.15163C60.59 7.29009 60.5642 8.9169 60.3181 10.4147C60.3717 10.4683 66.4471 44.523 66.9801 47.6139Z" fill="#191919"/>
<path d="M28.9285 88.2763C27.7076 88.5155 23.1716 89.4932 22.1076 89.7155C20.449 90.0619 16.4242 90.6535 9.52986 92.1672C9.26064 92.248 8.9778 92.2733 8.69851 92.2415C8.41921 92.2098 8.14928 92.1216 7.90508 91.9824C7.66088 91.8432 7.44751 91.6558 7.27791 91.4316C7.10831 91.2075 6.98601 90.9512 6.91844 90.6783C-0.339169 73.4395 -0.0949987 73.9527 0.0439598 72.981C0.0439598 72.6514 -0.238919 72.8013 19.389 69.0375C20.7786 68.7725 22.1632 68.5174 23.5458 68.1849C24.187 68.0311 24.5056 68.3983 24.7716 68.8797C31.3821 80.7785 28.6764 76.4232 33.6183 84.4411C34.0451 85.1359 34.3737 85.8207 34.7905 86.4669C35.0635 86.8887 34.8431 87.2083 34.4183 87.3195C34.0491 87.4138 30.4759 87.9736 28.9285 88.2763ZM33.7255 86.2515C33.665 86.1523 28.2664 76.4331 24.452 69.8901C24.3644 69.6663 24.1928 69.4857 23.9737 69.3868C23.7546 69.288 23.5056 69.2787 23.2798 69.3611C16.188 70.6832 10.0857 71.7929 0.89657 73.5715C3.74323 80.3319 1.39285 75.3006 8.57105 90.7319C8.67725 90.9989 8.78346 91.2113 9.15666 91.1051C11.8753 90.5721 14.5939 90.1543 17.3105 89.6163C21.79 88.716 32.7121 86.5175 33.7255 86.2515Z" fill="#191919"/>
<path d="M3.18851 42.7604C2.0421 42.9897 1.4952 41.4512 2.6555 41.1614C4.14434 40.9827 59.4439 36.139 61.2245 35.9921C61.9699 35.9306 62.2369 36.0447 62.2905 36.5777C62.3441 37.1107 62.1833 37.3777 61.5957 37.3777C59.5997 37.3817 3.50315 42.7604 3.18851 42.7604Z" fill="#191919"/>
<path d="M169.25 70.7424C166.215 69.9156 167.917 70.7355 160.083 67.8114C158.018 66.9423 156.081 65.7948 154.326 64.401C153.956 64.1459 153.54 63.9649 153.101 63.868C152.777 63.8233 152.472 63.6907 152.218 63.4846C151.964 63.2785 151.772 63.0068 151.662 62.699C151.552 62.3913 151.529 62.0593 151.595 61.7391C151.66 61.419 151.812 61.123 152.035 60.8833C153.27 59.414 154.869 58.2934 156.672 57.6327C159.774 56.3255 162.854 56.7811 165.891 57.8461C170.426 59.4342 176.036 61.0858 177.404 65.5206C177.617 66.3353 177.567 67.1966 177.261 67.981C176.954 68.7654 176.408 69.4329 175.699 69.8879C171.922 71.9693 170.909 71.1951 169.25 70.7424ZM155.713 64.6144C159.055 66.7023 162.707 68.249 166.532 69.197C165.91 68.5757 167.233 69.3618 156.086 64.5072C155.652 64.2183 155.452 64.4834 155.713 64.6144ZM159.124 57.6863C156.983 58.1826 153.962 59.5166 152.728 61.3101C152.183 62.1042 152.407 62.6501 153.369 62.9092C158.335 64.1954 163.09 66.1873 167.491 68.8238C169.936 70.0576 171.869 71.1008 175.059 68.4516C176.548 67.2169 176.605 66.1588 175.591 64.5072C174.776 63.1176 173.546 62.0182 172.074 61.3637C169.571 60.2938 167.012 59.3379 164.4 58.4317C162.703 57.8566 160.913 57.6038 159.124 57.6863Z" fill="#191919"/>
<path d="M150.544 83.9068C150.65 81.881 152.19 81.0919 153.954 82.0944C154.054 82.1529 167.671 89.6587 178.31 95.7917C179.253 96.826 180.092 97.9507 180.814 99.1495C181.059 99.5208 180.939 99.9436 180.335 99.9436C175.61 99.4185 179.802 101.083 151.93 85.4522C151.45 85.0254 150.757 84.5996 150.544 83.9068ZM177.617 96.3237L157.524 84.9192C157.363 84.7827 157.174 84.6831 156.97 84.6274C156.766 84.5717 156.553 84.5612 156.345 84.5968C156.137 84.6324 155.939 84.7131 155.765 84.8333C155.592 84.9534 155.447 85.1101 155.34 85.2924C154.903 85.8165 154.916 86.0864 155.5 86.411C164.693 91.5038 176.152 98.1887 176.391 98.1887C176.764 97.6031 177.138 96.9629 177.617 96.3237ZM179.322 98.1351L178.523 96.8567C177.51 97.2825 177.084 97.8155 177.134 98.6682C177.883 98.562 178.736 99.095 179.322 98.1351ZM151.928 84.3862C152.353 83.746 152.727 83.1604 153.153 82.5202C153.025 82.4491 152.884 82.4052 152.738 82.391C152.592 82.3768 152.444 82.3927 152.305 82.4378C152.165 82.4828 152.036 82.556 151.926 82.6528C151.816 82.7496 151.727 82.868 151.665 83.0006C151.29 83.6398 151.45 84.1728 151.93 84.3862H151.928ZM153.952 85.6646C154.485 84.9698 154.965 84.4388 155.441 83.8532C155.065 83.8281 154.692 83.9377 154.39 84.1623C154.087 84.3868 153.874 84.7118 153.789 85.079C153.795 85.2418 153.95 85.5048 153.95 85.6646H153.952ZM152.886 85.1316C153.367 84.3376 153.739 83.742 154.06 83.1068C153.26 83.2666 152.727 83.6934 152.67 84.3862C152.7 84.6453 152.774 84.8974 152.888 85.1316H152.886Z" fill="#191919"/>
<path d="M51.8446 63.1216C55.0823 63.6854 54.1602 70.4179 42.8381 71.1157C38.444 71.3866 28.8072 69.6626 30.4737 66.2134C30.6133 65.805 30.8693 65.4465 31.2103 65.1819C31.5512 64.9173 31.9621 64.7583 32.3924 64.7246C32.3112 64.8858 32.1804 65.0167 32.0192 65.0978C31.7482 65.2407 31.5231 65.4573 31.3697 65.7225C31.2163 65.9877 31.1409 66.2908 31.1521 66.597C31.1632 66.9031 31.2606 67.1999 31.433 67.4532C31.6053 67.7065 31.8457 67.906 32.1263 68.0288C36.9244 70.9449 46.7855 71.2606 51.7384 67.2348C52.0095 67.0344 52.2367 66.7808 52.4061 66.4893C52.5755 66.1979 52.6835 65.8749 52.7234 65.5402C52.7632 65.2054 52.7342 64.8661 52.638 64.543C52.5419 64.2199 52.3806 63.92 52.1642 63.6615C52.0044 63.5484 51.9508 63.335 51.8446 63.1216Z" fill="#191919"/>
<path d="M163.548 27.6821C162.773 27.6821 162.626 27.027 163.174 26.6161C164.079 25.6414 175.652 24.9109 175.752 24.9109C176.021 24.8897 176.287 24.976 176.491 25.1509C176.696 25.3258 176.823 25.5749 176.844 25.8434C176.866 26.1119 176.779 26.3778 176.604 26.5827C176.43 26.7875 176.18 26.9145 175.912 26.9357C171.808 27.4207 167.68 27.6699 163.548 27.6821Z" fill="#191919"/>
<path d="M128.107 29.4937C132.276 29.0182 132.964 28.9468 133.543 29.2803C133.652 29.3307 133.744 29.4126 133.807 29.5156C133.869 29.6186 133.9 29.7378 133.894 29.8582C133.888 29.9785 133.847 30.0943 133.775 30.1908C133.702 30.2874 133.603 30.3602 133.49 30.3999C132.747 30.6702 131.979 30.8667 131.198 30.9865C129.335 31.2168 127.414 31.3597 125.495 31.4659C124.696 31.5721 123.253 30.0475 128.107 29.4937Z" fill="#191919"/>
<path d="M144.201 78.2572C143.829 77.7778 143.407 77.1912 142.603 77.5108C142.444 77.5644 140.829 77.6805 140.42 76.9778C139.652 75.6676 136.718 74.8934 135.57 74.7941C124.676 73.6269 119.756 75.8482 114.36 78.8974C113.321 79.343 114.075 79.1167 110.735 77.9386C104.295 75.5237 93.409 76.0646 83.0229 82.682C81.6812 83.509 80.5357 84.6182 79.6661 85.9327C78.9931 86.9401 78.4839 86.7654 77.001 87.4215C76.8415 87.4579 76.6935 87.5331 76.57 87.6404C76.4466 87.7478 76.3517 87.8841 76.2936 88.037C76.2355 88.19 76.2162 88.3549 76.2373 88.5171C76.2584 88.6794 76.3192 88.8339 76.4144 88.9669C77.267 90.4061 92.7222 116.307 94.1078 118.705C94.5346 119.451 94.8542 119.611 95.6532 119.451C98.5852 118.811 123.281 114.016 128.749 112.843C129.616 112.608 130.517 112.518 131.413 112.576C133.268 112.799 135.137 112.302 136.636 111.186C137.057 110.878 137.555 110.693 138.075 110.653C140.58 110.334 159.766 107.509 161.737 107.243C167.587 106.633 169.604 111.211 144.201 78.2572ZM96.9843 116.948C96.5872 116.551 79.8368 88.9084 79.7703 88.8091C80.2358 88.3436 78.7777 86.3773 96.7173 115.989C97.29 116.943 97.2949 116.638 96.9843 116.948ZM105.404 114.283C111.984 111.372 119.053 109.727 126.242 109.434L105.404 114.283ZM107.536 112.365C112.172 110.02 117.022 108.528 121.979 108.741C117.046 109.413 112.202 110.628 107.536 112.365ZM98.3163 116.415C92.2405 106.503 86.165 96.608 80.0899 86.7307C89.1837 78.9887 101.325 76.0418 111.587 79.6964C112.854 80.135 113.928 81.0021 114.624 82.148C123.404 95.6052 131.194 107.169 132.264 108.954C119.527 105.011 108.442 108.475 98.3163 116.415ZM133.543 108.741C127.308 99.361 121.019 89.8751 114.678 80.3892C120.652 75.4443 133.206 74.8874 139.459 77.1912C139.932 77.3103 159.451 102.783 159.87 103.412C155.37 102.448 150.701 102.612 146.28 103.891C141.831 104.912 137.545 106.544 133.543 108.741ZM155.819 104.158C152.147 104.691 148.252 105.17 144.415 105.703C149.531 104.318 154.327 103.731 155.819 104.158ZM139.299 108.101C139.257 108.039 139.238 107.963 139.246 107.888C140.471 107.568 141.751 107.193 143.083 106.982C145.769 106.574 156.365 104.976 159.124 104.851C159.484 104.855 159.843 104.909 160.19 105.011C153.156 106.077 146.227 107.089 139.299 108.101Z" fill="#191919"/>
<path d="M151.93 84.3862C150.838 83.8999 151.754 81.8463 153.102 82.5202C152.729 83.1574 152.303 83.746 151.93 84.3862Z" fill="#38A1FF"/>
<path d="M58.1338 118.547C58.0266 119.133 57.7061 119.411 57.174 119.346C54.6619 119.041 57.9463 120.488 47.2087 114.123C44.4087 112.464 32.9258 106.275 32.9258 104.158C33.1868 103.897 36.1873 104.357 36.6568 104.637C60.4088 118.984 56.4286 116.416 58.1338 118.547ZM46.9953 113.111C47.2643 113.38 52.2192 116.33 55.7884 118.44C56.1586 118.659 56.3214 118.494 56.5348 118.228C56.7482 117.907 56.5348 117.749 56.2688 117.587C55.2663 116.979 49.2862 113.319 47.3685 112.205C47.2628 112.514 47.1382 112.817 46.9953 113.111Z" fill="#191919"/>
<path d="M125.336 45.7486C126.311 45.8985 125.634 45.5144 140.312 58.1655C140.866 58.5348 140.46 58.9119 140.098 58.9119C138.074 59.1243 89.8431 64.6182 87.6585 64.9338C87.3169 64.9897 86.9665 64.9495 86.6464 64.8177C86.3263 64.6859 86.0492 64.4677 85.8461 64.1874C75.4242 51.5491 75.0907 51.5819 75.2406 51.1303C75.6604 50.2905 125.219 45.7297 125.336 45.7486ZM85.0471 54.9149C84.4069 55.0211 83.9275 55.1273 83.3945 55.1809C82.9151 55.2881 83.3409 55.4479 83.6615 55.4479C85.5583 54.9208 86.3702 56.1695 88.5637 58.9119C87.8183 59.0181 87.2317 59.0717 86.6451 59.1779C86.1121 59.3913 86.5925 59.3377 86.6451 59.3913C87.1587 59.448 87.6769 59.448 88.1905 59.3913C88.4563 59.329 88.7345 59.3463 88.9904 59.4411C89.2463 59.5359 89.4687 59.704 89.6297 59.9243C90.1371 60.4316 90.6708 60.9116 91.2288 61.3626C91.3886 61.4698 91.5484 61.576 91.3886 61.2028C90.8556 60.6172 90.3761 60.0305 89.7895 59.4449C89.7786 59.4319 89.7711 59.4163 89.7679 59.3996C89.7647 59.3829 89.7658 59.3656 89.7712 59.3495C89.7766 59.3333 89.786 59.3189 89.7986 59.3074C89.8112 59.296 89.8266 59.288 89.8431 59.2841C90.6958 59.1779 94.3196 58.6985 96.1846 58.5387C96.4538 58.5749 96.7006 58.7075 96.8794 58.9119C98.2521 60.2846 100.107 62.4355 99.5444 61.31C98.798 60.4038 98.0556 59.4449 97.2526 58.5387C97.466 58.4315 98.9608 58.2936 103.062 57.8439C104.928 57.6454 105.526 57.4062 106.099 58.0573C106.695 58.7382 107.325 59.3894 107.912 60.0822C108.178 60.508 108.391 60.2956 108.072 59.9224C107.539 59.1224 106.952 58.3769 106.366 57.5243C108.657 57.2573 110.896 56.9913 113.187 56.7243C113.981 56.7243 114.906 58.4742 115.958 59.176L116.118 59.0162C115.533 58.2697 115 57.5273 114.413 56.7779C114.263 56.4802 114.224 56.6668 120.648 55.8181C121.396 55.7189 121.874 55.6057 122.407 56.3511C123.367 58.0573 123.797 58.3233 123.419 57.3645C123.26 57.0975 122.886 56.3511 122.674 55.9253C122.659 55.8978 122.651 55.8667 122.651 55.8351C122.652 55.8036 122.661 55.7727 122.677 55.7457C122.693 55.7186 122.716 55.6963 122.744 55.681C122.771 55.6656 122.802 55.6578 122.834 55.6583C123.686 55.5521 125.819 55.1352 127.736 54.9129C129.496 54.7084 130.033 54.3759 130.667 55.0727C131.151 55.6027 131.681 56.0851 132.214 56.6181C132.586 57.0439 132.746 56.9377 132.426 56.4583L130.937 54.6459C130.911 54.6261 130.893 54.5985 130.884 54.5673C130.876 54.536 130.878 54.5029 130.89 54.4728C130.902 54.4427 130.923 54.4174 130.951 54.4006C130.979 54.3838 131.011 54.3766 131.043 54.3799L132.856 53.9005C133.282 53.7933 133.069 53.6871 132.802 53.6871C130.31 53.9134 130.508 54.364 129.178 52.7809C128.595 52.0861 126.513 50.3293 126.194 50.0097C126.366 49.9099 126.544 49.8207 126.727 49.7427C127.1 49.6365 127.1 49.4767 126.567 49.5829C126.266 49.6469 125.953 49.6287 125.661 49.5302C125.554 49.4766 124.755 48.5178 124.488 48.1972C124.169 47.9312 124.169 48.091 124.329 48.3044L125.023 49.423C125.039 49.4506 125.047 49.4817 125.046 49.5132C125.046 49.5448 125.037 49.5756 125.021 49.6027C125.004 49.6297 124.981 49.6521 124.954 49.6674C124.926 49.6827 124.895 49.6905 124.864 49.6901C122.625 49.9561 120.44 50.2231 118.255 50.4355C117.544 50.4355 117.263 49.9541 116.496 49.3169C116.283 48.9436 116.123 49.1034 116.39 49.423C116.656 49.7963 116.87 50.1695 117.137 50.5427C117.243 50.7561 117.189 50.8087 117.083 50.8087C116.071 51.0221 114.045 51.0707 112.815 51.2355C109.723 51.6504 109.556 51.7218 108.339 50.2757C108.062 49.9655 107.759 49.6801 107.432 49.423C107.273 49.2106 107.166 49.3704 107.273 49.5829C107.753 50.1695 108.339 50.9159 108.872 51.5551C108.882 51.5681 108.89 51.5836 108.893 51.6002C108.896 51.6168 108.894 51.6339 108.889 51.6499C108.884 51.6659 108.874 51.6802 108.862 51.6916C108.849 51.703 108.834 51.711 108.818 51.7149C108.019 51.7685 104.716 51.9303 103.275 52.1943C102.104 52.4097 101.886 52.3541 100.985 51.2891C100.748 50.9456 100.48 50.6244 100.185 50.3293C99.8114 49.8499 99.9186 50.2231 100.025 50.4891C100.398 51.0221 100.771 51.6087 101.144 52.1943C101.156 52.2188 101.162 52.2452 101.162 52.2721C101.163 52.2991 101.158 52.3258 101.148 52.3508C101.138 52.3757 101.123 52.3984 101.104 52.4174C101.085 52.4364 101.062 52.4513 101.037 52.4613C98.5856 52.8345 96.1985 53.2156 93.7915 53.5799C92.9111 53.7139 93.2169 53.3814 91.8193 51.9819L91.6595 52.1417C91.9801 52.6747 92.3543 53.1541 92.7791 53.7397C90.7007 54.1129 88.6749 54.3759 86.6501 54.8057C86.3519 54.8929 86.0325 54.8708 85.7492 54.7435C85.4659 54.6161 85.2373 54.3918 85.1047 54.1109C83.7726 52.4593 83.5592 52.5655 83.7726 52.8325C84.1275 53.5671 84.5544 54.2646 85.0471 54.9149Z" fill="#38A1FF"/>
<path d="M85.6863 68.2382C85.587 68.1389 84.7374 67.4888 85.7925 67.2258C87.9761 66.9588 142.55 60.7235 144.895 60.4575C145.354 60.4575 145.675 61.0223 144.948 61.2029C139.331 61.9285 86.8148 68.0119 85.6863 68.2382Z" fill="#191919"/>
<path d="M70.0173 50.9183C84.599 67.2956 84.9434 66.834 84.3002 67.3859C83.927 67.7055 83.664 67.3293 83.4476 67.0663C80.6615 63.6717 69.2183 51.3461 69.2183 51.1307C69.2183 50.9709 69.2143 50.0151 70.0173 50.9183Z" fill="#191919"/>
<path d="M93.0399 87.7969C92.4226 88.1135 91.827 88.4689 91.6504 88.0103C91.4379 87.1597 95.9342 85.2033 96.3938 85.0257C100.578 83.3847 105.07 82.6754 109.557 82.9473C110.331 83.0317 111.097 83.1744 111.849 83.3741C114.149 84.5205 103.167 82.6078 93.0399 87.7969Z" fill="#191919"/>
<path d="M112.28 86.9441C113.558 87.4771 112.332 87.6389 112.119 87.6389C109.529 87.654 106.951 87.9941 104.445 88.6513C104.286 88.7049 103.006 88.5451 104.232 87.9565C108.987 86.4329 110.038 86.427 112.28 86.9441Z" fill="#191919"/>
<path d="M134.076 98.0828C133.437 97.0704 132.797 96.1105 132.158 95.1517C132.064 95.0907 131.959 95.0496 131.849 95.0311C131.739 95.0127 131.627 95.0173 131.518 95.0445C130.981 95.1924 130.399 95.3641 129.812 95.4713C130.133 94.7249 130.878 94.5651 131.518 94.1383C131.038 93.3393 130.612 92.5403 130.129 91.6877C128.207 92.3825 128.322 92.3468 127.783 92.1671C128.107 91.6817 127.538 91.8693 129.756 90.9413C129.115 89.8217 128.53 88.7577 127.89 87.6371C127.464 87.7969 127.037 87.9567 126.558 88.1165C126.558 87.3711 127.197 87.3224 127.517 86.9978C127.037 85.9854 126.558 84.972 126.078 83.906C126.132 83.8534 126.104 83.0346 126.931 84.173C128.32 86.0847 128.447 86.6246 128.849 86.6246C130.608 86.2514 132.313 85.8246 134.072 85.3988C132.26 82.0946 131.994 80.975 134.711 84.8658C134.773 85.0462 134.901 85.1963 135.069 85.2854C135.238 85.3745 135.434 85.3959 135.618 85.3452C136.895 85.2212 138.175 85.1854 139.561 85.1318C139.383 84.8106 139.241 84.4712 139.135 84.1194C137.746 79.8028 139.881 83.7998 139.881 83.8534C140.861 86.7954 143.237 84.314 144.248 86.1978C143.395 86.1452 142.489 86.0916 141.423 86.038C142.01 86.9442 142.489 87.7433 143.022 88.5433C143.147 88.7924 145.76 88.5621 146.54 89.3373C145.634 89.8167 144.727 89.3373 143.715 89.6569C144.142 90.3517 144.568 91.0465 145.048 91.7353C145.101 91.8425 145.368 91.8425 145.58 91.8425C146.38 91.8951 147.126 91.8951 147.925 91.9487C148.146 91.9955 148.36 92.0671 148.565 92.1621C148.565 92.5492 148.88 92.2435 145.686 92.7478C146.166 93.5478 146.592 94.3468 147.125 95.0932C147.402 95.3711 148.316 95.1785 150.482 95.3066C150.692 95.3066 151.673 95.656 151.388 95.9458C150.216 96.052 149.043 96.1592 147.815 96.2654C147.907 96.6657 148.031 97.0578 148.187 97.4376C149.577 101.275 149.52 101.435 147.493 97.918C147.096 97.387 146.748 96.4788 146.214 96.4788C144.825 96.6922 143.496 96.9056 142.057 97.118C142.431 98.0242 143.123 99.8366 143.336 100.529C143.816 101.808 143.016 100.636 142.964 100.582C141.612 98.6684 141.218 97.4912 140.618 97.4912C139.019 97.8108 137.474 98.186 135.875 98.5036C136.355 99.3562 136.781 100.156 137.208 100.955C137.581 101.542 137.154 101.435 136.941 101.115C136.621 100.742 136.246 100.42 135.928 100.049C135.557 99.6212 135.234 98.9304 134.81 98.8232C134.247 98.6366 133.635 99.1676 131.825 99.5696C132.158 98.7756 133.17 98.6158 134.076 98.0828ZM130.718 90.5681C132.424 90.1423 134.076 89.6619 135.728 89.2361C135.302 88.2763 134.823 87.3711 134.338 86.305C132.579 86.6246 130.765 86.9998 128.849 87.3711C129.546 88.4897 130.129 89.5557 130.718 90.5681ZM132.957 94.5651C133.651 95.6311 134.29 96.6436 134.929 97.6034C134.972 97.6583 135.031 97.6981 135.098 97.7172C135.165 97.7363 135.237 97.7336 135.302 97.7096C136.847 97.2828 138.446 96.857 140.044 96.3775C139.512 95.4713 138.979 94.6187 138.446 93.7661C138.408 93.7048 138.351 93.6566 138.285 93.6281C138.218 93.5995 138.144 93.5919 138.073 93.6063C136.421 93.9259 134.769 94.2455 132.957 94.5651ZM137.754 92.7001C137.327 91.9537 136.847 91.2113 136.421 90.4619C136.23 90.0797 135.463 90.5046 131.145 91.3145C131.625 92.1671 131.998 92.8033 132.424 93.4981C132.531 93.6053 132.744 93.7651 132.904 93.7115C134.502 93.3929 136.101 93.0733 137.754 92.7001ZM139.405 93.3393C140.768 95.5696 141.048 96.2177 141.377 96.2177C142.767 96.0043 144.149 95.7373 145.587 95.4713C145.107 94.6713 144.682 93.9259 144.197 93.1795C144.047 92.8718 143.651 92.9006 139.405 93.3393ZM135.302 86.1978C136.881 89.0931 136.407 89.116 138.287 88.9165C139.299 88.8083 140.311 88.7031 141.377 88.5959C140.951 87.7969 140.537 87.0425 140.098 86.3577C140.046 86.2728 139.976 86.2003 139.893 86.1451C139.811 86.09 139.717 86.0534 139.619 86.038C138.232 86.0648 136.847 86.1452 135.302 86.1978ZM137.38 90.0351C137.86 90.8877 138.287 91.5805 138.77 92.2733C138.821 92.3384 138.885 92.3914 138.959 92.4283C139.032 92.4652 139.113 92.4852 139.196 92.4867C140.635 92.3269 142.021 92.1135 143.512 91.9537C141.589 89.0743 143.103 89.6261 137.38 90.0351Z" fill="#191919"/>
<path d="M124.697 81.1881C124.537 80.7087 124.91 80.4417 125.283 80.3355C130.7 78.3405 136.244 78.7196 137.273 79.7489C137.737 80.2124 137.226 80.4923 136.901 80.3891C133.029 79.1563 128.546 80.2263 124.697 81.1881Z" fill="#191919"/>
<path d="M16.4047 71.3828C18.1024 71.3985 19.7576 71.9159 21.162 72.87C22.5664 73.824 23.6573 75.1721 24.2975 76.7446C24.9376 78.3171 25.0984 80.0438 24.7596 81.7075C24.4208 83.3712 23.5976 84.8975 22.3935 86.0945C21.1894 87.2914 19.6582 88.1055 17.9925 88.4344C16.3268 88.7633 14.6011 88.5922 13.0324 87.9427C11.4638 87.2932 10.1222 86.1943 9.17653 84.7842C8.23086 83.3742 7.72333 81.7159 7.71777 80.0181C7.72906 77.7224 8.64955 75.5247 10.2777 73.9063C11.9058 72.2878 14.109 71.3804 16.4047 71.3828ZM15.1262 78.6841C15.1262 78.6305 13.3674 75.1665 12.4612 73.3014C11.6086 74.1004 10.8622 74.7903 10.0096 75.5397C11.7684 76.6583 15.0726 78.6841 15.1262 78.6841ZM9.68999 83.8524C10.5426 84.7586 11.289 85.504 12.088 86.3566C13.2076 84.5452 15.3396 81.0811 15.3396 81.0275C15.1908 81.1814 11.5699 82.9134 9.68999 83.8524ZM9.31679 83.1576C11.289 82.1452 14.8592 80.2791 14.8592 80.2265C12.8344 80.1193 10.8096 80.0667 8.62398 79.9595C8.83837 81.0821 9.05078 82.0409 9.31679 83.1576ZM23.1729 83.7432C23.4935 82.6782 23.8131 81.7184 24.1327 80.7059C21.9491 80.5997 17.8975 80.4389 17.8439 80.4925C19.6027 81.5615 21.3079 82.6275 23.1729 83.7462V83.7432ZM17.2047 72.3387C17.0975 74.5223 16.9377 78.5739 16.9913 78.5739C18.0573 76.8687 19.1233 75.1635 20.2955 73.2985C19.2295 72.9818 18.2677 72.6612 17.2047 72.3387ZM15.9789 78.4141C16.0325 78.4141 16.2449 74.4171 16.3521 72.2861C15.286 72.4985 14.2736 72.7655 13.2076 72.9808C14.1664 74.8995 15.0726 76.6583 15.9789 78.4171V78.4141ZM22.6935 84.4896C20.9347 83.371 17.5779 81.3452 17.5243 81.3988C18.4305 83.104 19.3357 84.8092 20.2419 86.6216C21.0945 85.9367 21.8409 85.2419 22.6935 84.4926V84.4896ZM14.5396 79.5337C14.5396 79.4801 11.3426 77.3501 9.58379 76.2295C9.26418 77.2419 8.94359 78.2007 8.62398 79.2141C10.756 79.3233 12.6746 79.4295 14.5396 79.5367V79.5337ZM23.5461 76.9749C21.6811 77.8811 19.9223 78.7337 18.2171 79.5863C18.2171 79.6399 22.1079 79.8533 24.1863 79.9595C23.9729 78.8965 23.7595 77.9377 23.5461 76.9779V76.9749ZM19.4965 86.9948C18.5367 85.1824 16.7253 81.8246 16.7253 81.8246C16.6717 83.6906 16.5645 85.6092 16.5119 87.634C17.5243 87.4256 18.4305 87.2102 19.4965 86.9978V86.9948ZM21.0469 73.8344C19.9809 75.5397 18.9684 77.0851 17.9024 78.6305C17.955 78.6841 21.3129 76.9779 23.1253 76.0727C22.3739 75.3263 21.7347 74.5799 21.0469 73.8344ZM15.557 87.5834C15.7168 85.6122 15.8766 81.8811 15.824 81.8811C14.8116 83.4266 13.8518 85.0256 12.7332 86.7308C13.7406 87.0504 14.5952 87.3174 15.5521 87.5834H15.557Z" fill="#191919"/>
<path d="M157.205 59.1245C158.005 59.1245 158.751 59.0718 159.497 59.1245C159.924 59.1781 160.986 60.4039 161.309 60.6699C160.615 60.5637 159.071 60.2977 158.964 60.2441C158.431 59.9245 157.898 59.5513 157.205 59.1245Z" fill="#191919"/>
<path d="M105.245 56.9937C104.286 57.0999 103.487 57.213 102.687 57.3133C100.877 57.5406 99.0632 57.6865 97.2508 57.8989C97.0374 57.8989 96.7178 57.8989 96.6116 57.7391C95.6518 56.6205 94.693 55.4482 93.627 54.1659C94.7466 54.0061 99.6012 53.344 100.982 53.0998C101.226 53.0344 101.485 53.0452 101.723 53.1309C101.961 53.2166 102.167 53.3731 102.314 53.5793C103.16 54.6542 104.179 55.7678 105.245 56.9937Z" fill="#38A1FF"/>
<path d="M129.173 53.8491C129.199 53.8689 129.217 53.8965 129.226 53.9277C129.234 53.959 129.233 53.9921 129.22 54.0222C129.208 54.0523 129.187 54.0776 129.159 54.0944C129.132 54.1112 129.099 54.1184 129.067 54.1151C128.343 54.2005 125.346 54.667 122.245 54.9151C121.369 54.9151 121.989 54.9886 118.515 51.3419C118.489 51.3221 118.471 51.2945 118.462 51.2633C118.454 51.232 118.456 51.1989 118.468 51.1688C118.48 51.1387 118.501 51.1134 118.529 51.0966C118.557 51.0798 118.589 51.0726 118.621 51.0759C125.371 50.1449 125.371 49.9414 125.603 50.1697C126.829 51.3955 127.987 52.6362 129.173 53.8491Z" fill="#38A1FF"/>
<path d="M110.148 52.0366C112.609 51.729 115.784 51.4332 117.022 51.2376C117.267 51.1908 117.52 51.2107 117.754 51.295C117.988 51.3793 118.196 51.5251 118.354 51.717C119.282 52.8188 120.273 53.9007 121.286 55.0749C119.768 55.2912 119.991 55.2198 114.091 55.9275C113.868 55.9315 113.647 55.8764 113.452 55.7677C112.333 54.6481 111.269 53.4759 110.148 52.3036V52.0366Z" fill="#38A1FF"/>
<path d="M112.973 56.0876C111.16 56.301 109.4 56.4052 107.643 56.7823C107.031 56.9485 106.381 56.9014 105.8 56.6488C105.219 56.3962 104.741 55.9532 104.446 55.3928C103.862 54.6154 103.239 53.8684 102.58 53.1545C102.56 53.128 102.547 53.0971 102.541 53.0643C102.536 53.0315 102.539 52.998 102.549 52.9665C102.56 52.9351 102.578 52.9066 102.602 52.8837C102.626 52.8608 102.655 52.844 102.687 52.8349C109.184 52.1401 108.254 52.2017 108.976 52.1401C109.295 52.1401 109.456 52.3516 109.671 52.5659C110.851 53.6624 111.954 54.839 112.973 56.0876Z" fill="#38A1FF"/>
<path d="M86.2724 55.2884C88.0838 55.0214 89.0992 54.8308 91.2819 54.542C92.5623 54.3722 93.0913 53.873 93.7325 54.9678C94.7717 56.7425 95.3345 56.811 96.1315 58.006C93.0367 58.3494 91.6114 58.5886 89.7364 58.7524C88.9225 58.7524 88.8431 58.4169 86.2188 55.5008C86.1975 55.4882 86.1809 55.4692 86.1714 55.4464C86.1619 55.4236 86.16 55.3984 86.1661 55.3745C86.1721 55.3506 86.1857 55.3293 86.2049 55.3137C86.2241 55.2982 86.2478 55.2893 86.2724 55.2884Z" fill="#38A1FF"/>
</svg>
