<svg width="236" height="194" viewBox="0 0 236 194" fill="none" xmlns="http://www.w3.org/2000/svg">
<path d="M42.1331 107.753C42.0574 107.629 35.3131 95.4867 30.5478 87.3126C30.4383 87.033 30.2238 86.8073 29.9502 86.6838C29.6765 86.5603 29.3654 86.5488 29.0833 86.6517C20.2235 88.3034 12.6 89.6897 1.12007 91.9117C4.67639 100.357 1.74007 94.0718 10.7078 113.35C10.8404 113.684 10.9731 113.949 11.4394 113.816C14.8357 113.15 18.2321 112.628 21.626 111.956C27.2221 110.832 40.867 108.085 42.1331 107.753Z" fill="#38A1FF"/>
<path d="M87.8717 56.2885C87.6064 56.2885 87.2046 55.8222 87.1401 55.4887C86.7272 53.3608 79.3393 13.1476 79.1508 12.4793C78.8681 11.4873 79.2822 10.8673 80.3486 10.7433C84.0686 10.3105 137.606 4.54328 140.67 4.2184C141.334 4.14896 141.745 4.28164 141.934 5.01696C142.499 7.2068 151.512 45.1 152.254 48.3599C152.303 48.5546 152.308 48.758 152.268 48.9549C152.228 49.1517 152.144 49.337 152.023 49.497C151.901 49.6569 151.745 49.7874 151.566 49.8786C151.387 49.9699 151.19 50.0196 150.989 50.024C148.325 50.2286 88.8042 56.3542 87.8717 56.2885Z" fill="#191919"/>
<path d="M43.264 118.938C42.9688 116.875 42.2261 115.31 44.0638 114.744C45.4736 114.309 45.4612 114.344 45.4612 111.948C45.3277 109.326 46.1562 106.745 47.7912 104.69C48.8634 103.132 50.2328 101.8 51.8209 100.772C53.4089 99.7438 55.1844 99.0392 57.0453 98.6987C60.0808 98.0589 60.8472 97.6571 68.963 98.6318C71.815 98.974 79.7088 100.571 83.347 100.629C87.8233 100.701 91.7653 99.1266 90.4013 94.8362C88.5339 88.93 83.0494 86.4463 77.1519 82.7189C74.192 80.8477 71.748 79.17 73.8895 75.9944C74.9034 74.5935 76.2546 73.4713 77.8178 72.7319C82.1652 70.4528 81.9792 70.7343 84.1418 70.4007C84.1418 70.268 84.1418 70.0014 84.2745 69.9357C85.1425 69.2698 84.8635 68.4725 84.6738 67.6715C84.3557 65.8802 84.4238 64.0416 84.8734 62.2787C85.0068 61.7929 85.292 61.3625 85.6872 61.0502C86.0825 60.738 86.5672 60.5601 87.0707 60.5427C89.9388 60.3195 152.525 53.7574 155.184 53.4201C156.171 53.2554 157.182 53.3198 158.141 53.6083C159.099 53.8968 159.978 54.4018 160.709 55.0842C166.689 60.348 178.001 69.1396 183.879 73.993C184.448 74.3588 184.877 74.907 185.095 75.548C185.313 76.189 185.307 76.8849 185.078 77.522C184.796 78.3441 184.547 81.1713 181.016 81.583C170.296 82.8329 126.366 87.2225 111.576 88.9734C103.795 89.8935 95.6478 84.5479 90.6034 78.6529C88.9557 76.8517 87.5253 74.8632 86.3416 72.7282C86.2089 72.3289 85.3372 72.3884 85.1437 72.195C84.6775 71.4621 84.0786 71.7288 83.4796 71.9284C80.2744 72.7011 77.3747 74.4177 75.1555 76.8561C72.6929 79.8557 77.7732 81.2073 84.4766 85.711C88.147 88.1761 92.1509 92.5942 92.0666 96.8288C92.0114 97.7726 91.7044 98.6844 91.1776 99.4695C90.6507 100.254 89.9233 100.884 89.0708 101.293C82.0313 104.405 69.6933 99.2729 61.1076 99.8284C55.7756 100.172 51.35 102.241 48.591 107.02C47.443 108.923 46.8867 111.125 46.9926 113.344C46.9926 113.878 47.1253 114.277 47.7912 114.41C49.0572 114.543 49.2693 115.605 49.5272 116.607C49.8794 118.001 49.8632 117.971 51.2632 117.806C70.9197 115.509 63.0432 116.09 69.4391 115.475C70.3653 115.459 71.2769 115.707 72.0674 116.19C72.8578 116.673 73.4945 117.371 73.9031 118.203C76.8444 124.627 87.5344 145.804 87.8184 149.294C87.9497 150.061 87.7807 150.848 87.3465 151.493C86.9124 152.137 86.2465 152.59 85.4872 152.757C82.9794 153.82 80.3692 154.623 77.6975 155.153C77.5512 155.188 51.6166 160.623 47.604 161.012C46.4036 161.129 42.2112 161.346 40.4802 160.414C36.3435 159.12 33.2423 151.761 31.4926 147.766C23.8294 130.265 23.9534 129.786 23.636 126.261C23.5429 125.446 23.7575 124.626 24.2378 123.961C24.7181 123.295 25.4295 122.834 26.2326 122.665C30.2874 121.641 34.3496 120.778 38.4168 119.869C41.0171 119.286 43.0222 119.181 43.264 118.938ZM27.2184 131.389C27.0967 131.41 26.9814 131.459 26.8815 131.532C26.7816 131.605 26.6996 131.699 26.6419 131.808C26.5841 131.918 26.552 132.039 26.5481 132.162C26.5442 132.286 26.5686 132.408 26.6194 132.521C28.694 137.206 37.7385 156.09 38.1378 156.622C38.6338 157.118 84.7444 147.995 84.8759 147.966C85.0156 147.937 85.1469 147.876 85.2599 147.788C85.3729 147.701 85.4648 147.589 85.5287 147.461C85.5927 147.334 85.6271 147.193 85.6293 147.05C85.6316 146.907 85.6017 146.766 85.5418 146.636C83.3445 142.073 75.2882 124.864 74.6298 123.532C74.5492 123.416 74.4385 123.323 74.3094 123.264C74.1803 123.206 74.0377 123.184 73.8969 123.2C68.7013 124.065 34.1425 130.124 27.2184 131.389ZM88.1383 72.5992C89.5178 75.1914 91.2672 77.569 93.3314 79.6573C99.7348 85.7333 106.989 87.8909 109.31 87.7173C111.439 87.5549 175.56 80.6183 180.217 80.0616C180.98 80.0248 181.707 79.7269 182.277 79.2179C182.847 78.7089 183.225 78.0195 183.347 77.2654C183.453 76.8631 183.448 76.4394 183.33 76.0401C183.213 75.6409 182.988 75.2816 182.681 75.0011C174.923 68.5841 167.149 62.0406 159.445 55.5604C159.062 55.1886 158.598 54.9108 158.09 54.7489C157.582 54.5871 157.043 54.5457 156.516 54.6279C151.867 55.3136 94.2007 61.4553 87.6064 62.1522C85.3334 62.3915 85.9249 63.0016 86.4742 68.5432C86.5338 69.1433 86.8735 69.3417 87.4662 69.3417C88.1059 69.3323 88.7332 69.5183 89.2642 69.8749C89.7606 70.4026 90.1255 71.0398 90.3294 71.7349C90.596 72.2681 90.3294 72.603 89.7305 72.603C89.2017 72.6682 88.6668 72.667 88.1383 72.5992Z" fill="#191919"/>
<path d="M175.093 26.4604C174.494 24.4627 173.961 22.532 173.295 20.6683C173.065 17.7255 173.267 14.7648 173.894 11.8804C174.886 11.3844 176.198 14.2228 177.956 16.0741C179.35 17.5423 179.554 19.4035 180.087 21.1346C180.353 22.0026 180.619 22.7986 180.885 23.6641C180.922 23.6683 180.958 23.6645 180.993 23.6529C181.027 23.6413 181.059 23.6223 181.085 23.5972C180.952 22.7292 180.419 14.1434 180.419 10.9492C180.419 8.96519 181.918 6.91547 183.815 7.81943C185.635 8.68743 185.787 10.5065 186.078 12.5463C187.477 12.4136 187.652 12.5463 187.938 13.945C188.224 15.3959 188.224 16.8887 187.938 18.3396C187.801 18.8877 187.622 19.1134 187.273 18.9385C187.139 17.2025 186.739 13.6784 186.672 13.6784C186.552 14.1381 186.464 14.6054 186.407 15.0771C186.607 18.2061 186.873 21.335 187.206 24.4639C187.206 24.65 187.387 25.606 187.938 25.332C188.792 20.3441 189.927 15.4084 191.337 10.5487C191.672 9.24543 192.602 8.02527 193.934 8.48407C194.29 8.71665 194.568 9.04971 194.734 9.44094C194.9 9.83217 194.946 10.2639 194.866 10.6814C194.866 10.814 194.799 10.881 194.799 11.0149C195.133 11.1399 195.417 11.3696 195.609 11.6696C195.801 11.9696 195.891 12.3238 195.865 12.679C195.898 14.2116 195.898 15.6736 195.865 17.2062C195.852 17.3693 195.781 17.5223 195.663 17.6365C195.546 17.7506 195.392 17.8181 195.228 17.8263C195.065 17.8346 194.904 17.7829 194.776 17.6811C194.648 17.5792 194.562 17.4342 194.533 17.2732C194.503 16.7803 194.436 16.2904 194.333 15.8075C190.835 33.299 193.329 24.8111 197.529 16.0071C197.899 15.3572 198.346 14.754 198.86 14.2104C199.372 13.4482 199.953 12.735 200.596 12.0801C200.694 11.9139 200.829 11.773 200.991 11.6687C201.153 11.5644 201.337 11.4998 201.529 11.4799C202.128 11.4799 202.203 11.8792 202.26 12.4794C202.42 14.141 202.661 15.7418 202.861 17.4059C202.971 17.9614 202.783 18.2007 199.132 26.2607C198.862 26.8584 199.132 27.1833 199.598 27.4598C200.138 27.7822 200.73 28.1257 201.262 28.391C201.675 28.604 202.005 28.9496 202.198 29.3723C202.391 29.7951 202.437 30.2705 202.327 30.7222C201.804 34.0628 197.416 58.2763 196.935 61.2808C195.76 68.6055 185.058 67.2229 177.826 65.6754C174.194 64.8991 174.45 62.6993 173.566 58.8851C173.087 56.823 167.626 33.5705 166.708 30.256C165.854 27.1957 171.96 26.2917 175.093 26.4604ZM200.265 31.4538C189.612 33.7181 179.092 33.9177 168.706 30.256C171.59 44.6735 172.947 48.5993 176.43 61.876C176.862 63.5239 177.906 63.3132 178.493 63.612C186.515 64.48 189.635 65.472 193.207 63.8116C193.708 63.6314 194.151 63.3201 194.491 62.9103C194.83 62.5005 195.054 62.0072 195.138 61.4817C200.027 35.3164 198.529 41.4916 200.258 31.4538H200.265ZM174.765 20.3348C175.291 23.5994 176.182 26.7947 177.421 29.8604C177.494 30.0211 177.609 30.159 177.754 30.2597C178.952 30.4594 180.15 30.592 181.416 30.726C181.215 29.9212 178.126 20.062 178.087 19.938C177.488 18.4041 174.492 20.0024 174.757 20.3348H174.765ZM199.732 18.4041C199.4 18.471 199.065 18.7451 198.734 18.6707C198.466 18.6112 198.268 18.2044 198.001 17.8721C196.203 22.0658 194.007 26.0561 192.409 30.4556C193.607 30.3217 194.606 30.189 195.604 30.0564C196.089 30.0564 196.149 29.7637 200.331 20.0024C200.552 19.5473 200.095 19.0228 199.725 18.4041H199.732ZM190.079 17.4728C189.146 22.0608 188.343 26.3277 187.415 30.788C188.348 30.7222 188.947 30.6553 189.612 30.6553C190.716 30.6553 190.089 30.6838 192.941 18.2044C191.935 17.9391 191.003 17.7382 190.071 17.4728H190.079ZM186.083 30.788C185.663 24.9079 185.374 22.1836 185.215 19.4692C185.131 18.006 184.949 17.7332 183.417 17.8721C183.012 17.9609 182.613 18.0718 182.22 18.2044C182.619 22.3993 183.018 26.5943 183.352 30.788H186.083ZM184.886 16.28C184.619 14.2166 184.365 12.0168 183.953 9.88899C183.695 8.55599 182.355 9.22311 182.155 9.55543C181.89 9.92353 181.75 10.3668 181.756 10.8202C181.862 15.2917 182.155 15.7133 182.155 16.8789C183.08 16.673 183.879 16.4684 184.878 16.2738L184.886 16.28ZM176.695 17.4121C175.431 15.4814 175.431 15.4814 174.565 15.748C174.166 18.7438 173.899 18.2776 174.765 18.2776C175.468 18.1517 176.129 17.8521 176.688 17.4059L176.695 17.4121ZM199.333 16.7462C200.265 16.2142 200.265 16.2142 201.193 17.5448H201.392C201.327 16.6792 201.261 15.8137 201.193 14.9482C200.845 14.8168 200.489 14.7059 200.128 14.6159C198.859 16.0072 198.859 16.0071 199.325 16.74L199.333 16.7462Z" fill="#191919"/>
<path d="M7.91033 183.188C7.26995 183.278 6.62002 183.278 5.97965 183.188C5.85925 183.16 5.74758 183.103 5.65471 183.022C5.56184 182.94 5.4907 182.837 5.44769 182.721C5.38073 182.589 5.64732 182.322 5.78 182.122C6.01233 181.886 6.29391 181.704 6.60469 181.589C6.91546 181.474 7.24779 181.429 7.57801 181.457C19.2538 179.267 208.885 144.629 230.018 140.51C231.975 140.129 233.165 142.026 231.616 142.37C230.241 142.684 8.03433 183.165 7.91033 183.188Z" fill="#191919"/>
<path d="M234.345 147.901C234.577 147.811 234.833 147.809 235.066 147.895C235.299 147.981 235.492 148.149 235.61 148.367C235.478 149.099 234.879 149.235 234.28 149.432C158.764 167.523 16.5358 193.641 9.70831 193.641C9.70831 190.792 54.724 187.216 234.345 147.901Z" fill="#191919"/>
<path d="M40.867 77.8589C39.007 79.4572 33.7494 78.6475 31.8795 77.4596C30.5972 76.6446 29.5487 75.5103 28.8368 74.168C28.1248 72.8256 27.774 71.3214 27.8185 69.8026C27.6263 63.367 33.0898 61.2317 36.5394 64.1432C36.806 64.3429 37.0726 64.6095 37.2723 64.1432C37.8021 63.1247 38.5794 62.2555 39.5327 61.6157C40.4861 60.9759 41.5849 60.5859 42.7283 60.4815C49.4367 59.3233 52.8392 58.6277 62.9018 60.5485C65.9026 61.1214 67.4898 63.677 67.2294 66.9394C66.8064 71.6468 64.9448 76.1099 61.8974 79.7226C60.8123 81.0835 59.2394 81.9678 57.5128 82.1877C54.4512 82.659 51.345 82.7706 48.2574 82.52C44.4754 82.2051 42.1306 78.9414 40.867 77.8589ZM38.2048 66.0082C37.9941 68.4025 38.4068 70.8105 39.4026 72.9981C40.7201 75.6615 42.6068 78.0029 44.9293 79.8565C45.7711 80.6237 46.8554 81.0713 47.9933 81.1213C51.6214 81.4025 55.2707 81.2011 58.8458 80.5224C59.2079 80.4162 59.5316 80.2078 59.7783 79.9222C63.3495 76.2382 66.2399 70.6148 66.0366 65.3423C65.9212 62.3564 62.8014 61.4499 59.8452 61.0147C53.2534 60.0426 38.8471 59.3891 38.2048 66.0082ZM49.1899 61.2801C60.0511 60.1641 67.0124 63.5418 64.1704 64.8091C59.1062 67.0671 50.6544 68.3691 41.001 65.8743C40.0003 65.6163 38.3325 64.2623 40.5347 63.0111C42.0624 62.1406 47.325 61.471 49.1899 61.2801ZM36.6734 66.5402C36.7553 66.1299 36.6842 65.7038 36.4737 65.3423C36.0478 64.8196 35.4905 64.4198 34.8589 64.1838C34.2273 63.9477 33.5443 63.8841 32.8801 63.9994C32.2158 64.1146 31.5941 64.4046 31.079 64.8396C30.5638 65.2746 30.1738 65.8388 29.9488 66.4744C29.523 67.4652 29.3104 68.5345 29.3247 69.6128C29.3391 70.6911 29.5802 71.7543 30.0323 72.7334C30.4844 73.7124 31.1374 74.5854 31.9489 75.2956C32.7605 76.0058 33.7123 76.5374 34.7427 76.8557C36.5038 77.556 38.448 77.6494 40.2681 77.1211C39.9358 76.6548 39.6022 76.2531 39.3356 75.8563C35.4532 77.2376 27.95 70.0109 32.812 66.6021C33.3576 66.1651 34.0331 65.9218 34.7321 65.9106C35.4311 65.8993 36.114 66.1208 36.6734 66.5402ZM39.0033 75.395C37.6369 73.2154 36.8783 70.71 36.806 68.1385C36.699 67.8721 36.5335 67.6331 36.3217 67.4391C36.11 67.2452 35.8574 67.1012 35.5826 67.0179C35.3078 66.9346 35.0178 66.9141 34.734 66.9578C34.4502 67.0015 34.1799 67.1084 33.9429 67.2705C30.2613 69.314 34.8307 75.395 39.0033 75.395ZM48.4571 63.4116C46.5971 62.4791 43.264 62.8115 42.1988 64.4768C44.3291 64.0837 46.2573 63.7439 48.4571 63.4116Z" fill="#191919"/>
<path d="M83.678 59.4837C83.9446 62.2799 82.4889 59.8817 82.4132 59.4167C81.9978 56.8785 74.1375 15.8766 73.8238 13.6769C73.5217 12.2727 73.6601 10.8095 74.2202 9.48685C74.7803 8.16424 75.7348 7.04663 76.9535 6.28647C77.6594 5.92454 78.4271 5.69865 79.2165 5.62059C80.9438 5.33167 136.743 0.121186 139.138 0.0281857C146.611 -0.261974 145.917 0.73003 156.781 51.4274C156.781 52.8261 155.731 52.3562 155.583 51.7597C155.401 51.0232 155.1 50.3003 154.917 49.5637C145.263 10.5285 145.389 5.53627 144.531 3.95651C144.195 3.17437 143.623 2.51666 142.895 2.07502C142.167 1.63337 141.319 1.42978 140.47 1.49263C138.472 1.62903 79.0119 7.07263 78.0187 7.68519C75.6949 9.10747 75.6627 11.1398 75.3552 13.011C75.4221 13.0779 83.0121 55.6223 83.678 59.4837Z" fill="#191919"/>
<path d="M36.1402 110.283C34.615 110.582 28.9482 111.803 27.6189 112.081C25.5468 112.514 20.5186 113.253 11.9056 115.144C11.5693 115.245 11.2159 115.277 10.867 115.237C10.5181 115.197 10.1808 115.087 9.87577 114.913C9.57069 114.739 9.30413 114.505 9.09225 114.225C8.88037 113.945 8.72758 113.625 8.64316 113.284C-0.423722 91.7476 -0.118681 92.3887 0.0549187 91.1747C0.0549187 90.763 -0.29848 90.9503 24.2225 86.2482C25.9585 85.9171 27.6883 85.5984 29.4156 85.183C30.2167 84.9908 30.6147 85.4496 30.947 86.051C39.2054 100.916 35.8252 95.475 41.9992 105.492C42.5324 106.36 42.9428 107.215 43.4636 108.023C43.8046 108.55 43.5293 108.949 42.9986 109.088C42.5373 109.206 38.0733 109.905 36.1402 110.283ZM42.1331 107.754C42.0574 107.63 35.3131 95.4874 30.5478 87.3133C30.4383 87.0337 30.2239 86.8081 29.9502 86.6846C29.6765 86.561 29.3654 86.5495 29.0833 86.6524C20.2235 88.3041 12.6 89.6904 1.12008 91.9125C4.6764 100.358 1.74008 94.0726 10.7078 113.351C10.8404 113.684 10.9731 113.95 11.4394 113.817C14.8357 113.151 18.2321 112.629 21.626 111.957C27.2221 110.832 40.867 108.086 42.1331 107.754Z" fill="#191919"/>
<path d="M3.98324 53.4197C2.55104 53.7061 1.8678 51.7841 3.31736 51.422C5.17736 51.1988 74.2627 45.1476 76.4873 44.9641C77.4185 44.8872 77.7521 45.0298 77.819 45.6957C77.886 46.3616 77.6851 46.6952 76.951 46.6952C74.4574 46.7001 4.37632 53.4197 3.98324 53.4197Z" fill="#191919"/>
<path d="M211.443 88.3786C207.652 87.3456 209.777 88.3699 199.991 84.7168C197.411 83.631 194.991 82.1975 192.799 80.4562C192.337 80.1376 191.817 79.9115 191.268 79.7903C190.863 79.7345 190.482 79.5689 190.165 79.3114C189.848 79.0539 189.608 78.7145 189.471 78.33C189.334 77.9455 189.304 77.5307 189.386 77.1308C189.468 76.7308 189.659 76.361 189.936 76.0616C191.48 74.226 193.477 72.826 195.729 72.0006C199.604 70.3676 203.452 70.9367 207.247 72.2672C212.912 74.2512 219.921 76.3146 221.631 81.8549C221.896 82.8728 221.834 83.9487 221.451 84.9287C221.068 85.9087 220.385 86.7425 219.5 87.3109C214.781 89.9112 213.516 88.944 211.443 88.3786ZM194.532 80.7228C198.707 83.3313 203.269 85.2635 208.048 86.4479C207.27 85.6716 208.923 86.6537 194.998 80.5889C194.455 80.228 194.205 80.5591 194.532 80.7228ZM198.792 72.0676C196.118 72.6876 192.344 74.3542 190.803 76.5948C190.121 77.5868 190.401 78.2688 191.603 78.5925C197.807 80.1994 203.748 82.6878 209.245 85.9816C212.301 87.523 214.715 88.8262 218.7 85.5166C220.56 83.9741 220.632 82.6522 219.365 80.5889C218.347 78.8528 216.811 77.4795 214.972 76.6618C211.844 75.3251 208.648 74.131 205.384 72.9988C203.264 72.2804 201.028 71.9645 198.792 72.0676Z" fill="#191919"/>
<path d="M188.074 104.825C188.206 102.294 190.13 101.308 192.334 102.56C192.458 102.634 209.47 112.01 222.761 119.672C223.94 120.965 224.987 122.37 225.89 123.867C226.196 124.331 226.046 124.859 225.291 124.859C219.389 124.203 224.625 126.283 189.805 106.755C189.206 106.222 188.34 105.69 188.074 104.825ZM221.896 120.337L196.793 106.089C196.592 105.919 196.356 105.794 196.102 105.725C195.847 105.655 195.581 105.642 195.321 105.687C195.061 105.731 194.814 105.832 194.597 105.982C194.38 106.132 194.198 106.328 194.065 106.556C193.52 107.21 193.536 107.548 194.265 107.953C205.75 114.316 220.066 122.667 220.364 122.667C220.831 121.935 221.297 121.136 221.896 120.337ZM224.026 122.6L223.028 121.003C221.762 121.535 221.23 122.201 221.292 123.266C222.228 123.133 223.293 123.799 224.026 122.6ZM189.802 105.424C190.334 104.624 190.8 103.892 191.334 103.092C191.173 103.004 190.997 102.949 190.814 102.931C190.632 102.913 190.448 102.933 190.274 102.989C190.099 103.046 189.938 103.137 189.801 103.258C189.663 103.379 189.552 103.527 189.474 103.693C189.006 104.491 189.206 105.157 189.805 105.424H189.802ZM192.332 107.021C192.998 106.153 193.597 105.489 194.192 104.758C193.722 104.726 193.256 104.863 192.878 105.144C192.5 105.424 192.234 105.83 192.127 106.289C192.135 106.492 192.329 106.821 192.329 107.021H192.332ZM191 106.355C191.6 105.363 192.065 104.619 192.466 103.825C191.466 104.025 190.8 104.558 190.73 105.424C190.767 105.747 190.859 106.062 191.003 106.355H191Z" fill="#191919"/>
<path d="M64.7693 78.8574C68.8142 79.5617 67.6622 87.9727 53.5175 88.8444C48.028 89.1829 35.9889 87.029 38.0708 82.72C38.2452 82.2099 38.565 81.7619 38.991 81.4314C39.4169 81.1008 39.9303 80.9022 40.4678 80.86C40.3664 81.0615 40.203 81.2249 40.0015 81.3263C39.663 81.5049 39.3818 81.7754 39.1901 82.1067C38.9985 82.438 38.9043 82.8167 38.9183 83.1992C38.9322 83.5817 39.0539 83.9525 39.2692 84.2689C39.4845 84.5853 39.7848 84.8346 40.1354 84.988C46.1296 88.6311 58.449 89.0254 64.6366 83.996C64.9753 83.7457 65.2592 83.4288 65.4708 83.0647C65.6824 82.7006 65.8173 82.2971 65.8672 81.8789C65.917 81.4608 65.8807 81.0368 65.7606 80.6332C65.6404 80.2296 65.439 79.8548 65.1686 79.532C64.9689 79.3906 64.902 79.124 64.7693 78.8574Z" fill="#191919"/>
<path d="M204.319 34.5832C203.352 34.5832 203.167 33.7648 203.853 33.2514C204.982 32.0338 219.441 31.1211 219.566 31.1211C219.901 31.0946 220.234 31.2025 220.49 31.421C220.745 31.6395 220.904 31.9507 220.931 32.2861C220.957 32.6216 220.849 32.9538 220.631 33.2097C220.412 33.4656 220.101 33.6243 219.766 33.6507C214.639 34.2566 209.481 34.5679 204.319 34.5832Z" fill="#191919"/>
<path d="M160.043 36.8463C165.251 36.2523 166.112 36.163 166.835 36.5797C166.972 36.6427 167.086 36.745 167.164 36.8737C167.242 37.0023 167.28 37.1513 167.273 37.3016C167.266 37.4519 167.214 37.5967 167.124 37.7172C167.034 37.8378 166.91 37.9288 166.768 37.9784C165.84 38.3161 164.881 38.5616 163.905 38.7113C161.577 38.9989 159.178 39.1775 156.781 39.3102C155.783 39.4428 153.98 37.5382 160.043 36.8463Z" fill="#191919"/>
<path d="M180.15 97.7662C179.685 97.1673 179.158 96.4344 178.154 96.8337C177.954 96.9007 175.937 97.0458 175.426 96.1678C174.467 94.531 170.802 93.5638 169.367 93.4398C155.757 91.9816 149.61 94.7567 142.869 98.566C141.571 99.1228 142.514 98.84 138.341 97.3682C130.296 94.3512 116.696 95.027 103.72 103.294C102.044 104.327 100.613 105.713 99.5265 107.355C98.6858 108.614 98.0496 108.395 96.1971 109.215C95.9978 109.261 95.8128 109.354 95.6586 109.489C95.5045 109.623 95.3858 109.793 95.3133 109.984C95.2408 110.175 95.2166 110.381 95.2429 110.584C95.2693 110.787 95.3453 110.98 95.4642 111.146C96.5294 112.944 115.837 145.302 117.568 148.297C118.102 149.23 118.501 149.43 119.499 149.23C123.162 148.43 154.015 142.44 160.846 140.974C161.929 140.68 163.054 140.568 164.174 140.64C166.491 140.919 168.826 140.298 170.699 138.904C171.224 138.519 171.847 138.288 172.497 138.239C175.625 137.839 199.594 134.31 202.057 133.978C209.366 133.215 211.885 138.935 180.15 97.7662ZM121.162 146.103C120.666 145.607 99.7398 111.073 99.6567 110.949C100.238 110.367 98.4167 107.911 120.828 144.905C121.544 146.096 121.55 145.715 121.162 146.103ZM131.681 142.773C139.901 139.136 148.732 137.081 157.713 136.715L131.681 142.773ZM134.344 140.376C140.136 137.447 146.195 135.584 152.388 135.849C146.225 136.689 140.174 138.207 134.344 140.376ZM122.826 145.437C115.236 133.053 107.646 120.692 100.056 108.352C111.417 98.6801 126.585 94.9985 139.405 99.5642C140.988 100.112 142.33 101.195 143.199 102.627C154.168 119.439 163.9 133.886 165.237 136.116C149.325 131.189 135.477 135.517 122.826 145.437ZM166.835 135.849C159.045 124.131 151.189 112.28 143.266 100.43C150.73 94.252 166.413 93.5564 174.225 96.4344C174.817 96.5832 199.201 128.407 199.725 129.192C194.103 127.987 188.27 128.193 182.747 129.79C177.188 131.066 171.834 133.105 166.835 135.849ZM194.664 130.124C190.076 130.79 185.21 131.389 180.417 132.055C186.809 130.324 192.801 129.591 194.664 130.124ZM174.026 135.051C173.973 134.972 173.949 134.878 173.959 134.784C175.49 134.385 177.088 133.916 178.753 133.652C182.108 133.142 195.346 131.146 198.792 130.99C199.243 130.995 199.691 131.062 200.124 131.189C191.337 132.521 182.681 133.786 174.026 135.051Z" fill="#191919"/>
<path d="M189.805 105.423C188.441 104.815 189.585 102.25 191.269 103.092C190.803 103.888 190.271 104.623 189.805 105.423Z" fill="#38A1FF"/>
<path d="M72.6259 148.1C72.492 148.832 72.0915 149.179 71.4268 149.099C68.2884 148.718 72.3916 150.525 58.9772 142.574C55.4792 140.5 41.1336 132.769 41.1336 130.124C41.4598 129.798 45.2083 130.372 45.7948 130.723C75.468 148.646 70.4956 145.438 72.6259 148.1ZM58.7106 141.309C59.0467 141.645 65.2368 145.33 69.6958 147.966C70.1583 148.24 70.3617 148.033 70.6283 147.701C70.8949 147.301 70.6283 147.103 70.296 146.901C69.0436 146.141 61.5726 141.569 59.1769 140.177C59.0448 140.563 58.8891 140.941 58.7106 141.309Z" fill="#191919"/>
<path d="M156.581 57.1534C157.799 57.3406 156.953 56.8608 175.29 72.6658C175.982 73.1271 175.475 73.5983 175.024 73.5983C172.494 73.8636 112.24 80.727 109.511 81.1213C109.084 81.1912 108.646 81.141 108.247 80.9763C107.847 80.8117 107.5 80.539 107.247 80.1889C94.2267 64.3999 93.8101 64.4409 93.9973 63.8767C94.5218 62.8276 156.435 57.1298 156.581 57.1534ZM106.249 68.6048C105.449 68.7375 104.85 68.8702 104.184 68.9371C103.585 69.071 104.117 69.2707 104.517 69.2707C106.887 68.6122 107.901 70.1722 110.642 73.5983C109.711 73.731 108.978 73.7979 108.245 73.9306C107.579 74.1972 108.179 74.1302 108.245 74.1972C108.887 74.268 109.534 74.268 110.176 74.1972C110.508 74.1193 110.855 74.141 111.175 74.2594C111.495 74.3778 111.772 74.5878 111.974 74.8631C112.607 75.4967 113.274 76.0965 113.971 76.6598C114.171 76.7937 114.371 76.9264 114.171 76.4602C113.505 75.7286 112.906 74.9957 112.173 74.2641C112.16 74.2479 112.15 74.2284 112.146 74.2075C112.142 74.1866 112.144 74.1651 112.15 74.1449C112.157 74.1247 112.169 74.1066 112.185 74.0923C112.2 74.078 112.219 74.068 112.24 74.0633C113.305 73.9306 117.833 73.3317 120.163 73.132C120.499 73.1772 120.807 73.3429 121.031 73.5983C122.745 75.3132 125.063 78.0003 124.36 76.5941C123.427 75.462 122.5 74.2642 121.497 73.132C121.763 72.9981 123.631 72.8258 128.755 72.264C131.086 72.016 131.832 71.7172 132.549 72.5306C133.293 73.3813 134.08 74.1947 134.813 75.0602C135.145 75.5922 135.412 75.3268 135.013 74.8606C134.347 73.8612 133.614 72.9299 132.882 71.8648C135.744 71.5312 138.542 71.1989 141.404 70.8653C142.396 70.8653 143.551 73.0514 144.866 73.9281L145.065 73.7285C144.334 72.796 143.668 71.8685 142.935 70.9323C142.748 70.5603 142.7 70.7934 150.725 69.7332C151.659 69.6092 152.256 69.4678 152.922 70.3991C154.121 72.5306 154.658 72.8629 154.187 71.6651C153.987 71.3315 153.521 70.3991 153.256 69.8671C153.237 69.8327 153.227 69.7938 153.227 69.7544C153.228 69.715 153.239 69.6765 153.259 69.6427C153.279 69.6089 153.308 69.581 153.343 69.5619C153.377 69.5427 153.416 69.5329 153.455 69.5336C154.52 69.4009 157.185 68.8801 159.58 68.6023C161.778 68.3469 162.449 67.9315 163.241 68.802C163.845 69.4641 164.507 70.0667 165.173 70.7326C165.638 71.2646 165.838 71.1319 165.439 70.533L163.579 68.2688C163.547 68.244 163.524 68.2096 163.513 68.1705C163.502 68.1315 163.504 68.0901 163.519 68.0525C163.534 68.0149 163.561 67.9832 163.596 67.9623C163.631 67.9414 163.671 67.9323 163.711 67.9364L165.976 67.3375C166.508 67.2036 166.242 67.0709 165.909 67.0709C162.795 67.3536 163.043 67.9166 161.381 65.9388C160.652 65.0708 158.052 62.876 157.653 62.4767C157.868 62.352 158.09 62.2406 158.319 62.1432C158.785 62.0105 158.785 61.8108 158.119 61.9435C157.743 62.0235 157.351 62.0008 156.987 61.8778C156.854 61.8108 155.856 60.613 155.522 60.2125C155.123 59.8801 155.123 60.0798 155.323 60.3464L156.191 61.7439C156.21 61.7783 156.22 61.8172 156.219 61.8566C156.218 61.8959 156.207 61.9345 156.187 61.9683C156.167 62.0021 156.138 62.03 156.104 62.0491C156.069 62.0683 156.03 62.0781 155.991 62.0774C153.195 62.4098 150.464 62.7433 147.735 63.0087C146.846 63.0087 146.495 62.4073 145.538 61.6112C145.271 61.145 145.072 61.3446 145.405 61.7439C145.738 62.2101 146.004 62.6764 146.338 63.1426C146.47 63.4092 146.403 63.4749 146.271 63.4749C145.006 63.7415 142.475 63.8023 140.939 64.0081C137.076 64.5264 136.868 64.6157 135.346 62.809C135.001 62.4215 134.622 62.0651 134.214 61.7439C134.015 61.4785 133.882 61.6782 134.015 61.9435C134.615 62.6764 135.346 63.6088 136.012 64.4074C136.026 64.4236 136.035 64.443 136.039 64.4638C136.042 64.4845 136.041 64.5058 136.034 64.5258C136.028 64.5458 136.016 64.5637 136 64.5779C135.985 64.5922 135.966 64.6022 135.945 64.607C134.947 64.674 130.82 64.8761 129.021 65.2059C127.558 65.475 127.285 65.4056 126.159 64.0751C125.863 63.646 125.528 63.2447 125.16 62.876C124.694 62.2771 124.827 62.7433 124.96 63.0756C125.426 63.7415 125.893 64.4743 126.359 65.2059C126.373 65.2365 126.38 65.2696 126.381 65.3032C126.382 65.3368 126.376 65.3703 126.363 65.4015C126.351 65.4327 126.332 65.461 126.308 65.4847C126.285 65.5085 126.256 65.5271 126.225 65.5395C123.162 66.0058 120.18 66.4819 117.173 66.937C116.073 67.1044 116.455 66.689 114.709 64.9406L114.509 65.1402C114.91 65.8061 115.377 66.405 115.908 67.1366C113.312 67.6029 110.781 67.9315 108.251 68.4684C107.879 68.5773 107.48 68.5498 107.126 68.3906C106.772 68.2315 106.486 67.9513 106.32 67.6004C104.656 65.537 104.39 65.6697 104.656 66.0033C105.1 66.921 105.633 67.7924 106.249 68.6048Z" fill="#38A1FF"/>
<path d="M107.047 85.2497C106.923 85.1257 105.862 84.3135 107.18 83.9849C109.908 83.6513 178.087 75.8616 181.016 75.5293C181.59 75.5293 181.99 76.2349 181.083 76.4605C174.065 77.367 108.457 84.9669 107.047 85.2497Z" fill="#191919"/>
<path d="M87.4724 63.6115C105.689 84.0715 106.12 83.4949 105.316 84.1843C104.85 84.5836 104.521 84.1136 104.251 83.785C100.77 79.5442 86.4742 64.1459 86.4742 63.8768C86.4742 63.6772 86.4693 62.4831 87.4724 63.6115Z" fill="#191919"/>
<path d="M116.234 109.684C115.463 110.08 114.719 110.524 114.498 109.951C114.233 108.888 119.85 106.444 120.424 106.222C125.652 104.172 131.264 103.286 136.869 103.625C137.836 103.731 138.793 103.909 139.732 104.159C142.605 105.591 128.886 103.201 116.234 109.684Z" fill="#191919"/>
<path d="M140.27 108.618C141.868 109.284 140.336 109.486 140.07 109.486C136.834 109.505 133.613 109.93 130.483 110.751C130.283 110.818 128.685 110.618 130.216 109.883C136.157 107.98 137.469 107.972 140.27 108.618Z" fill="#191919"/>
<path d="M167.501 122.534C166.702 121.269 165.902 120.07 165.104 118.872C164.987 118.796 164.856 118.745 164.719 118.722C164.581 118.699 164.44 118.704 164.305 118.739C163.634 118.923 162.907 119.138 162.174 119.272C162.574 118.339 163.506 118.14 164.305 117.606C163.705 116.608 163.173 115.61 162.569 114.545C160.169 115.413 160.313 115.368 159.639 115.144C160.043 114.537 159.333 114.772 162.103 113.612C161.303 112.214 160.572 110.884 159.772 109.484C159.24 109.684 158.707 109.884 158.108 110.083C158.108 109.152 158.906 109.091 159.307 108.686C158.707 107.421 158.108 106.155 157.509 104.823C157.576 104.758 157.541 103.735 158.574 105.157C160.31 107.545 160.469 108.22 160.971 108.22C163.168 107.753 165.299 107.22 167.496 106.688C165.232 102.56 164.899 101.162 168.294 106.022C168.371 106.248 168.531 106.435 168.742 106.547C168.952 106.658 169.197 106.685 169.427 106.621C171.022 106.466 172.622 106.422 174.353 106.355C174.131 105.953 173.953 105.529 173.821 105.09C172.085 99.6971 174.752 104.691 174.752 104.758C175.977 108.433 178.945 105.333 180.208 107.686C179.143 107.621 178.011 107.554 176.679 107.487C177.412 108.619 178.011 109.617 178.677 110.617C178.833 110.928 182.097 110.64 183.071 111.609C181.939 112.207 180.807 111.609 179.542 112.008C180.076 112.876 180.608 113.744 181.208 114.604C181.273 114.738 181.607 114.738 181.872 114.738C182.872 114.804 183.804 114.804 184.803 114.871C185.078 114.929 185.346 115.019 185.601 115.138C185.601 115.621 185.995 115.239 182.005 115.869C182.604 116.869 183.137 117.867 183.803 118.799C184.149 119.147 185.291 118.906 187.997 119.066C188.258 119.066 189.485 119.502 189.129 119.864C187.664 119.997 186.199 120.131 184.665 120.264C184.779 120.764 184.935 121.254 185.13 121.728C186.866 126.522 186.795 126.722 184.262 122.328C183.766 121.665 183.332 120.53 182.665 120.53C180.929 120.797 179.268 121.064 177.472 121.329C177.938 122.461 178.803 124.725 179.069 125.591C179.669 127.188 178.669 125.723 178.604 125.657C176.915 123.266 176.423 121.795 175.674 121.795C173.676 122.194 171.745 122.663 169.748 123.06C170.348 124.125 170.88 125.125 171.413 126.123C171.879 126.856 171.346 126.722 171.079 126.322C170.68 125.856 170.211 125.454 169.815 124.991C169.351 124.456 168.947 123.593 168.417 123.459C167.714 123.226 166.95 123.89 164.688 124.392C165.104 123.4 166.369 123.2 167.501 122.534ZM163.306 113.146C165.436 112.614 167.501 112.014 169.564 111.482C169.032 110.283 168.433 109.152 167.828 107.82C165.631 108.22 163.364 108.688 160.971 109.152C161.841 110.55 162.569 111.881 163.306 113.146ZM166.102 118.14C166.97 119.471 167.767 120.736 168.566 121.935C168.62 122.004 168.694 122.054 168.777 122.078C168.861 122.101 168.95 122.098 169.032 122.068C170.963 121.535 172.961 121.003 174.957 120.404C174.292 119.272 173.626 118.207 172.961 117.141C172.912 117.065 172.842 117.005 172.759 116.969C172.675 116.933 172.583 116.924 172.494 116.942C170.43 117.341 168.366 117.74 166.102 118.14ZM172.095 115.81C171.562 114.877 170.963 113.95 170.43 113.013C170.192 112.536 169.233 113.067 163.839 114.079C164.438 115.144 164.904 115.939 165.436 116.807C165.57 116.941 165.837 117.14 166.036 117.073C168.033 116.675 170.03 116.276 172.095 115.81ZM174.158 116.608C175.861 119.395 176.211 120.204 176.622 120.204C178.358 119.938 180.084 119.604 181.881 119.272C181.282 118.272 180.75 117.341 180.145 116.409C179.958 116.024 179.463 116.06 174.158 116.608ZM169.032 107.686C171.005 111.304 170.412 111.332 172.761 111.083C174.026 110.948 175.29 110.816 176.622 110.682C176.089 109.684 175.572 108.742 175.024 107.886C174.959 107.78 174.872 107.69 174.768 107.621C174.665 107.552 174.548 107.506 174.425 107.487C172.693 107.52 170.963 107.621 169.032 107.686ZM171.629 112.48C172.228 113.545 172.761 114.411 173.365 115.276C173.428 115.358 173.508 115.424 173.601 115.47C173.693 115.516 173.794 115.541 173.897 115.543C175.695 115.343 177.426 115.077 179.289 114.877C176.886 111.28 178.777 111.969 171.629 112.48Z" fill="#191919"/>
<path d="M155.783 101.428C155.583 100.829 156.049 100.496 156.516 100.363C163.282 97.8707 170.209 98.3444 171.495 99.6302C172.074 100.209 171.435 100.559 171.03 100.43C166.193 98.89 160.592 100.227 155.783 101.428Z" fill="#191919"/>
<path d="M20.4938 89.1777C22.6148 89.1973 24.6826 89.8437 26.4372 91.0356C28.1917 92.2275 29.5545 93.9117 30.3543 95.8762C31.154 97.8407 31.3548 99.9979 30.9316 102.076C30.5084 104.155 29.4799 106.062 27.9756 107.557C26.4713 109.052 24.5584 110.069 22.4775 110.48C20.3966 110.891 18.2407 110.677 16.2809 109.866C14.3212 109.054 12.6452 107.682 11.4638 105.92C10.2824 104.158 9.6483 102.087 9.64136 99.9657C9.65546 97.0978 10.8054 94.3522 12.8395 92.3303C14.8735 90.3083 17.6258 89.1748 20.4938 89.1777ZM18.8967 98.2992C18.8967 98.2322 16.6994 93.9046 15.5673 91.5747C14.5022 92.5729 13.5697 93.4347 12.5045 94.3709C14.7018 95.7683 18.8298 98.2992 18.8967 98.2992ZM12.1052 104.756C13.1704 105.888 14.1029 106.819 15.1011 107.884C16.4998 105.621 19.1633 101.294 19.1633 101.227C18.9773 101.419 14.4538 103.583 12.1052 104.756ZM11.639 103.888C14.1029 102.623 18.5632 100.292 18.5632 100.226C16.0336 100.092 13.504 100.026 10.7735 99.8926C11.0413 101.295 11.3067 102.493 11.639 103.888ZM28.9494 104.619C29.3499 103.289 29.7492 102.09 30.1485 100.825C27.4205 100.692 22.3588 100.492 22.2918 100.558C24.4891 101.894 26.6194 103.226 28.9494 104.623V104.619ZM21.4933 90.3719C21.3594 93.0999 21.1597 98.1615 21.2267 98.1615C22.5584 96.0312 23.8902 93.9009 25.3546 91.5709C24.0229 91.1754 22.8213 90.7749 21.4933 90.3719ZM19.9619 97.9619C20.0288 97.9619 20.2942 92.9684 20.4281 90.3061C19.0964 90.5715 17.8316 90.9051 16.4998 91.1741C17.6976 93.5711 18.8298 95.7683 19.9619 97.9656V97.9619ZM28.3505 105.552C26.1532 104.154 21.9595 101.624 21.8926 101.691C23.0247 103.821 24.1556 105.951 25.2877 108.215C26.3528 107.36 27.2853 106.492 28.3505 105.556V105.552ZM18.1639 99.3606C18.1639 99.2937 14.1698 96.6326 11.9726 95.2327C11.5733 96.4975 11.1728 97.6953 10.7735 98.9613C13.437 99.0977 15.8339 99.2304 18.1639 99.3643V99.3606ZM29.4156 96.1639C27.0857 97.296 24.8884 98.3612 22.7581 99.4263C22.7581 99.4933 27.6189 99.7599 30.2154 99.8926C29.9488 98.5645 29.6822 97.3667 29.4156 96.1676V96.1639ZM24.3564 108.682C23.1574 106.417 20.8944 102.223 20.8944 102.223C20.8274 104.554 20.6935 106.951 20.6278 109.48C21.8926 109.22 23.0247 108.951 24.3564 108.685V108.682ZM26.2933 92.2405C24.9616 94.3709 23.6968 96.3015 22.365 98.2322C22.4307 98.2992 26.6256 96.1676 28.8899 95.0367C27.9512 94.1043 27.1526 93.1718 26.2933 92.2405ZM19.4349 109.417C19.6345 106.954 19.8342 102.293 19.7684 102.293C18.5036 104.224 17.3046 106.222 15.9071 108.352C17.1657 108.751 18.2333 109.085 19.4287 109.417H19.4349Z" fill="#191919"/>
<path d="M196.395 73.8642C197.395 73.8642 198.327 73.7984 199.258 73.8642C199.792 73.9311 201.118 75.4625 201.523 75.7948C200.655 75.6622 198.726 75.3298 198.593 75.2629C197.927 74.8636 197.261 74.3974 196.395 73.8642Z" fill="#191919"/>
<path d="M131.481 71.2015C130.283 71.3341 129.285 71.4755 128.286 71.6007C126.024 71.8847 123.759 72.067 121.494 72.3323C121.228 72.3323 120.828 72.3323 120.696 72.1327C119.497 70.7352 118.299 69.2708 116.967 67.6687C118.366 67.4691 124.431 66.642 126.155 66.3369C126.461 66.2552 126.784 66.2687 127.081 66.3758C127.379 66.4828 127.636 66.6782 127.82 66.9359C128.876 68.2788 130.15 69.6701 131.481 71.2015Z" fill="#38A1FF"/>
<path d="M161.375 67.2731C161.407 67.2978 161.43 67.3323 161.441 67.3713C161.452 67.4103 161.449 67.4518 161.434 67.4893C161.419 67.5269 161.393 67.5586 161.358 67.5795C161.323 67.6005 161.283 67.6096 161.243 67.6054C160.339 67.712 156.594 68.2948 152.72 68.6048C151.625 68.6048 152.4 68.6966 148.06 64.1408C148.028 64.1161 148.005 64.0817 147.994 64.0426C147.984 64.0036 147.986 63.9621 148.001 63.9246C148.016 63.887 148.043 63.8553 148.077 63.8344C148.112 63.8134 148.153 63.8044 148.193 63.8085C156.625 62.6454 156.625 62.3912 156.915 62.6764C158.446 64.2078 159.893 65.7578 161.375 67.2731Z" fill="#38A1FF"/>
<path d="M137.607 65.0096C140.681 64.6252 144.648 64.2557 146.195 64.0114C146.501 63.9529 146.816 63.9777 147.109 64.083C147.402 64.1884 147.661 64.3705 147.859 64.6103C149.019 65.9867 150.256 67.3383 151.522 68.8052C149.625 69.0755 149.904 68.9863 142.533 69.8704C142.254 69.8754 141.979 69.8065 141.735 69.6707C140.336 68.272 139.007 66.8076 137.607 65.3431V65.0096Z" fill="#38A1FF"/>
<path d="M141.136 70.0692C138.872 70.3358 136.672 70.466 134.477 70.9372C133.713 71.1447 132.901 71.0859 132.175 70.7704C131.449 70.4548 130.852 69.9013 130.483 69.2012C129.754 68.2301 128.976 67.2968 128.152 66.405C128.127 66.3719 128.11 66.3332 128.104 66.2922C128.097 66.2513 128.101 66.2094 128.114 66.1701C128.127 66.1308 128.149 66.0953 128.179 66.0666C128.209 66.038 128.246 66.0171 128.286 66.0057C136.403 65.1377 135.241 65.2146 136.142 65.1377C136.542 65.1377 136.743 65.4018 137.01 65.6697C138.485 67.0394 139.864 68.5094 141.136 70.0692Z" fill="#38A1FF"/>
<path d="M107.78 69.0709C110.043 68.7374 111.311 68.4993 114.038 68.1384C115.638 67.9264 116.299 67.3027 117.1 68.6704C118.398 70.8875 119.101 70.9731 120.097 72.466C116.231 72.8951 114.45 73.1939 112.108 73.3985C111.091 73.3985 110.992 72.9794 107.713 69.3363C107.686 69.3206 107.666 69.2968 107.654 69.2684C107.642 69.2399 107.64 69.2084 107.647 69.1785C107.655 69.1486 107.672 69.122 107.696 69.1026C107.72 69.0832 107.749 69.0721 107.78 69.0709Z" fill="#38A1FF"/>
</svg>
