<svg width="165" height="135" viewBox="0 0 165 135" fill="none" xmlns="http://www.w3.org/2000/svg">
<path d="M29.3737 75.1223C29.321 75.0359 24.619 66.5708 21.2968 60.8721C21.2205 60.6772 21.071 60.5198 20.8802 60.4337C20.6894 60.3476 20.4725 60.3396 20.2758 60.4113C14.0991 61.5628 8.7842 62.5293 0.780762 64.0785C3.26012 69.9665 1.21301 65.5844 7.46499 79.0246C7.55749 79.2572 7.64999 79.4422 7.97504 79.3497C10.3429 78.8855 12.7107 78.5215 15.0768 78.053C18.9782 77.2689 28.4911 75.354 29.3737 75.1223Z" fill="#38A1FF"/>
<path d="M61.3472 38.739C61.3408 38.7328 61.3338 38.7255 61.3263 38.717C61.3001 38.6878 61.2767 38.6549 61.2598 38.625C61.2456 38.5996 61.2416 38.5863 61.2415 38.5863C61.137 38.0473 60.4164 34.1442 59.5259 29.3203C59.1681 27.3826 58.783 25.2962 58.3993 23.2197C57.7292 19.5935 57.064 15.9987 56.5581 13.2813C56.3052 11.9227 56.092 10.783 55.9379 9.96818C55.8608 9.56088 55.7984 9.23408 55.7532 9.00147C55.7113 8.78624 55.6781 8.61909 55.6626 8.56404L55.6622 8.56271C55.5863 8.29637 55.6336 8.18694 55.6588 8.15002C55.6859 8.11043 55.7791 8.02044 56.0742 7.98612L56.0742 7.98612C58.6643 7.6848 95.9804 3.66493 98.1226 3.43779C98.3296 3.4162 98.3863 3.44211 98.3924 3.44552C98.3929 3.44575 98.3931 3.44584 98.394 3.44672C98.3951 3.44775 98.3994 3.45198 98.4061 3.46211C98.4203 3.4837 98.4444 3.53073 98.468 3.62218C98.8599 5.14367 105.142 31.5543 105.659 33.8255L105.659 33.8255L105.662 33.8377C105.678 33.9006 105.679 33.9662 105.666 34.0298C105.654 34.0933 105.626 34.1531 105.587 34.2048C105.548 34.2564 105.498 34.2985 105.44 34.3279C105.382 34.3574 105.318 34.3734 105.254 34.3749L105.24 34.3752L105.226 34.3762C104.497 34.4322 97.7566 35.1144 89.7663 35.923C87.4954 36.1528 85.1236 36.3929 82.7601 36.6316C77.4164 37.1715 72.1109 37.7054 68.1008 38.1015C66.0956 38.2996 64.4151 38.4631 63.2158 38.5757C62.616 38.632 62.1378 38.6754 61.8 38.704C61.6308 38.7183 61.4988 38.7288 61.405 38.7352C61.3819 38.7368 61.3628 38.738 61.3472 38.739Z" fill="#070707" stroke="white"/>
<path d="M30.1622 82.9198C29.9565 81.4812 29.4386 80.3903 30.7198 79.9961C31.7027 79.6926 31.6941 79.7168 31.6941 78.0466C31.601 76.2184 32.1786 74.4192 33.3184 72.9868C34.066 71.9001 35.0207 70.9718 36.1278 70.2549C37.235 69.5381 38.4727 69.0469 39.7701 68.8096C41.8864 68.3635 42.4207 68.0834 48.0787 68.7629C50.0671 69.0015 55.5704 70.115 58.1068 70.1556C61.2276 70.2057 63.9758 69.1078 63.0249 66.1167C61.723 61.9991 57.8993 60.2676 53.7878 57.6689C51.7243 56.3644 50.0204 55.1947 51.5133 52.9808C52.2202 52.0042 53.1622 51.2218 54.252 50.7063C57.2829 49.1174 57.1533 49.3136 58.6609 49.0811C58.6609 48.9886 58.6609 48.8027 58.7534 48.7569C59.3586 48.2927 59.1641 47.7368 59.0318 47.1783C58.8101 45.9295 58.8575 44.6477 59.171 43.4187C59.264 43.08 59.4628 42.78 59.7384 42.5622C60.0139 42.3445 60.3519 42.2205 60.7029 42.2084C62.7024 42.0528 106.336 37.4779 108.189 37.2428C108.877 37.1279 109.583 37.1728 110.25 37.3739C110.918 37.5751 111.531 37.9272 112.041 38.4029C116.21 42.0727 124.097 48.2019 128.194 51.5855C128.591 51.8406 128.89 52.2227 129.042 52.6696C129.194 53.1165 129.19 53.6017 129.03 54.0458C128.834 54.619 128.66 56.59 126.198 56.877C118.725 57.7484 88.0985 60.8087 77.7869 62.0294C72.3622 62.6708 66.6825 58.944 63.1658 54.8343C62.0171 53.5785 61.0198 52.1922 60.1945 50.7037C60.102 50.4254 59.4943 50.4669 59.3594 50.332C59.0344 49.8211 58.6168 50.007 58.1993 50.1461C55.9647 50.6848 53.9431 51.8816 52.396 53.5816C50.6791 55.6728 54.2209 56.6151 58.8943 59.7549C61.4532 61.4735 64.2447 64.5537 64.1859 67.5059C64.1474 68.1639 63.9334 68.7996 63.5661 69.3469C63.1988 69.8942 62.6916 70.3331 62.0973 70.6181C57.1896 72.788 48.5879 69.2098 42.6022 69.5971C38.8849 69.8366 35.7995 71.2794 33.876 74.6112C33.0757 75.9378 32.6879 77.4724 32.7617 79.02C32.7617 79.3918 32.8542 79.6701 33.3184 79.7626C34.2011 79.856 34.3489 80.596 34.5287 81.2945C34.7743 82.2662 34.763 82.2455 35.739 82.1305C49.4429 80.5294 43.9517 80.934 48.4107 80.5052C49.0564 80.4943 49.692 80.6673 50.243 81.0041C50.7941 81.3409 51.238 81.8275 51.5229 82.4071C53.5734 86.886 61.0262 101.65 61.2241 104.083C61.3157 104.617 61.1978 105.166 60.8952 105.616C60.5925 106.065 60.1282 106.381 59.5989 106.497C57.8505 107.238 56.0308 107.798 54.1682 108.168C54.0662 108.192 35.9854 111.981 33.1879 112.253C32.3511 112.334 29.4283 112.485 28.2214 111.835C25.3375 110.934 23.1754 105.803 21.9556 103.017C16.6131 90.8169 16.6995 90.4823 16.4782 88.0254C16.4133 87.4571 16.5629 86.8851 16.8978 86.4213C17.2326 85.9576 17.7286 85.6356 18.2885 85.5184C21.1153 84.8043 23.9474 84.2027 26.7829 83.569C28.5958 83.1627 29.9936 83.0892 30.1622 82.9198ZM18.9757 91.6001C18.8909 91.615 18.8106 91.6491 18.7409 91.6998C18.6712 91.7505 18.6141 91.8164 18.5738 91.8926C18.5335 91.9687 18.5112 92.053 18.5085 92.1391C18.5058 92.2253 18.5228 92.3108 18.5582 92.3894C20.0045 95.6554 26.31 108.821 26.5884 109.192C26.9342 109.537 59.0811 103.177 59.1727 103.157C59.2701 103.137 59.3616 103.094 59.4404 103.033C59.5192 102.972 59.5833 102.894 59.6279 102.805C59.6725 102.716 59.6964 102.618 59.698 102.519C59.6996 102.419 59.6787 102.32 59.6369 102.23C58.1051 99.0485 52.4885 87.0511 52.0294 86.1227C51.9733 86.0414 51.8961 85.9768 51.8061 85.936C51.7161 85.8952 51.6167 85.8796 51.5185 85.891C47.8963 86.4944 23.803 90.7183 18.9757 91.6001ZM61.4472 50.6138C62.4089 52.421 63.6285 54.0786 65.0677 55.5345C69.5319 59.7705 74.5891 61.2747 76.2075 61.1537C77.6918 61.0404 122.394 56.2045 125.642 55.8163C126.174 55.7907 126.681 55.583 127.078 55.2281C127.475 54.8733 127.738 54.3927 127.823 53.8669C127.898 53.5865 127.894 53.291 127.812 53.0127C127.73 52.7344 127.574 52.4839 127.359 52.2883C121.951 47.8146 116.531 43.2527 111.16 38.7349C110.893 38.4757 110.57 38.282 110.215 38.1692C109.861 38.0563 109.485 38.0275 109.118 38.0848C105.877 38.5629 65.6737 42.8447 61.0763 43.3305C59.4917 43.4974 59.9041 43.9227 60.287 47.7861C60.3285 48.2045 60.5654 48.3428 60.9786 48.3428C61.4246 48.3362 61.8619 48.4659 62.2321 48.7145C62.5782 49.0824 62.8326 49.5267 62.9747 50.0113C63.1606 50.383 62.9747 50.6164 62.5572 50.6164C62.1885 50.6619 61.8156 50.661 61.4472 50.6138Z" fill="white"/>
<path d="M122.07 18.447C121.652 17.0543 121.28 15.7083 120.816 14.4089C120.656 12.3573 120.796 10.2932 121.234 8.2823C121.925 7.93651 122.84 9.91532 124.066 11.206C125.037 12.2296 125.179 13.5272 125.551 14.734C125.737 15.3391 125.922 15.8941 126.108 16.4975C126.133 16.5004 126.158 16.4978 126.183 16.4897C126.207 16.4816 126.229 16.4684 126.247 16.4509C126.154 15.8457 125.783 9.86 125.783 7.63307C125.783 6.24989 126.828 4.82089 128.151 5.4511C129.419 6.05625 129.525 7.32445 129.728 8.74653C130.703 8.65403 130.825 8.74654 131.025 9.72168C131.224 10.7332 131.224 11.7739 131.025 12.7854C130.929 13.1675 130.804 13.3249 130.561 13.203C130.467 11.9927 130.189 9.53581 130.142 9.53581C130.059 9.85629 129.997 10.1821 129.957 10.511C130.097 12.6923 130.282 14.8737 130.514 17.0551C130.514 17.1848 130.64 17.8513 131.025 17.6603C131.62 14.1829 132.411 10.7419 133.395 7.35384C133.628 6.44527 134.276 5.59461 135.205 5.91447C135.453 6.07662 135.647 6.30882 135.763 6.58157C135.878 6.85432 135.911 7.15532 135.855 7.44634C135.855 7.53884 135.808 7.58553 135.808 7.67889C136.041 7.76604 136.239 7.92619 136.373 8.13533C136.506 8.34448 136.569 8.59138 136.551 8.83904C136.574 9.90754 136.574 10.9268 136.551 11.9953C136.542 12.109 136.492 12.2156 136.411 12.2952C136.329 12.3748 136.221 12.4219 136.107 12.4276C135.993 12.4333 135.881 12.3973 135.792 12.3263C135.703 12.2553 135.642 12.1542 135.622 12.042C135.602 11.6984 135.555 11.3568 135.483 11.0201C133.044 23.2146 134.783 17.2972 137.711 11.1593C137.969 10.7062 138.281 10.2856 138.639 9.90668C138.996 9.37528 139.401 8.87809 139.85 8.42149C139.918 8.30563 140.012 8.20738 140.125 8.13469C140.238 8.062 140.366 8.01692 140.5 8.00307C140.917 8.00307 140.97 8.28144 141.01 8.69985C141.121 9.85827 141.289 10.9743 141.428 12.1345C141.505 12.5218 141.374 12.6886 138.829 18.3078C138.64 18.7245 138.829 18.951 139.154 19.1437C139.53 19.3685 139.943 19.608 140.314 19.793C140.602 19.9414 140.832 20.1824 140.966 20.4771C141.101 20.7718 141.133 21.1033 141.056 21.4182C140.692 23.7471 137.632 40.628 137.297 42.7227C136.478 47.8292 129.017 46.8653 123.975 45.7864C121.443 45.2452 121.621 43.7116 121.005 41.0525C120.671 39.6148 116.864 23.4039 116.224 21.0932C115.628 18.9596 119.885 18.3294 122.07 18.447ZM139.619 21.9283C132.192 23.5068 124.858 23.646 117.617 21.0932C119.628 31.1446 120.573 33.8815 123.002 43.1376C123.302 44.2865 124.03 44.1396 124.44 44.3479C130.033 44.953 132.208 45.6446 134.698 44.4871C135.047 44.3614 135.356 44.1444 135.593 43.8587C135.83 43.573 135.986 43.2291 136.044 42.8627C139.453 24.6211 138.409 28.9263 139.614 21.9283H139.619ZM121.841 14.1764C122.207 16.4524 122.828 18.68 123.692 20.8174C123.743 20.9294 123.824 21.0256 123.925 21.0958C124.76 21.2349 125.595 21.3274 126.478 21.4208C126.338 20.8598 124.184 13.9862 124.157 13.8998C123.739 12.8304 121.65 13.9447 121.835 14.1764H121.841ZM139.247 12.8304C139.015 12.8771 138.782 13.0681 138.551 13.0162C138.364 12.9748 138.226 12.6912 138.04 12.4595C136.787 15.3832 135.256 18.1651 134.141 21.2323C134.977 21.139 135.673 21.0465 136.369 20.954C136.707 20.954 136.749 20.75 139.665 13.9447C139.819 13.6274 139.5 13.2618 139.242 12.8304H139.247ZM132.517 12.1811C131.867 15.3798 131.307 18.3545 130.66 21.464C131.31 21.4182 131.728 21.3715 132.192 21.3715C132.961 21.3715 132.524 21.3914 134.512 12.6912C133.811 12.5062 133.161 12.3661 132.512 12.1811H132.517ZM129.732 21.464C129.439 17.3646 129.237 15.4653 129.127 13.573C129.068 12.5529 128.941 12.3627 127.873 12.4595C127.591 12.5214 127.312 12.5987 127.038 12.6912C127.316 15.6158 127.595 18.5403 127.827 21.464H129.732ZM128.897 11.3495C128.711 9.911 128.533 8.3774 128.246 6.89393C128.067 5.96461 127.132 6.42971 126.993 6.66139C126.808 6.91801 126.711 7.22705 126.715 7.54317C126.789 10.6605 126.993 10.9544 126.993 11.7671C127.638 11.6236 128.195 11.4809 128.891 11.3452L128.897 11.3495ZM123.187 12.1388C122.305 10.7928 122.305 10.7928 121.701 10.9786C121.423 13.0672 121.237 12.7422 121.841 12.7422C122.331 12.6545 122.792 12.4456 123.181 12.1345L123.187 12.1388ZM138.969 11.6746C139.619 11.3037 139.619 11.3037 140.265 12.2313H140.405C140.359 11.6279 140.313 11.0245 140.265 10.421C140.023 10.3295 139.775 10.2521 139.523 10.1894C138.638 11.1593 138.638 11.1593 138.964 11.6702L138.969 11.6746Z" fill="white"/>
<path d="M5.5148 127.712C5.06835 127.775 4.61524 127.775 4.16879 127.712C4.08485 127.693 4.007 127.653 3.94226 127.597C3.87751 127.54 3.82791 127.468 3.79793 127.387C3.75124 127.295 3.93711 127.109 4.02961 126.97C4.19158 126.805 4.38789 126.678 4.60455 126.598C4.82121 126.517 5.0529 126.486 5.28312 126.505C13.4231 124.979 145.628 100.83 160.361 97.9591C161.725 97.6928 162.555 99.0155 161.475 99.2558C160.517 99.4745 5.60125 127.697 5.5148 127.712Z" fill="white"/>
<path d="M163.378 103.112C163.54 103.049 163.718 103.048 163.881 103.108C164.043 103.168 164.178 103.285 164.26 103.437C164.168 103.947 163.75 104.042 163.333 104.18C110.685 116.792 11.5284 135 6.76855 135C6.76855 133.015 38.1521 130.521 163.378 103.112Z" fill="white"/>
<path d="M28.4911 54.2812C27.1943 55.3955 23.5289 54.831 22.2253 54.0028C21.3313 53.4346 20.6003 52.6439 20.1039 51.708C19.6076 50.7722 19.363 49.7235 19.3941 48.6646C19.2601 44.1779 23.069 42.6893 25.474 44.7191C25.6599 44.8583 25.8457 45.0442 25.9849 44.7191C26.3543 44.009 26.8962 43.4031 27.5608 42.957C28.2255 42.5109 28.9915 42.239 29.7887 42.1663C34.4656 41.3588 36.8377 40.8739 43.853 42.213C45.9451 42.6123 47.0517 44.3941 46.8701 46.6685C46.5752 49.9503 45.2773 53.0619 43.1528 55.5805C42.3963 56.5293 41.2997 57.1458 40.096 57.2991C37.9615 57.6277 35.796 57.7055 33.6434 57.5308C31.0067 57.3112 29.372 55.0359 28.4911 54.2812ZM26.635 46.0193C26.4882 47.6885 26.7759 49.3673 27.4701 50.8924C28.3886 52.7493 29.704 54.3816 31.3231 55.6739C31.91 56.2088 32.666 56.5208 33.4593 56.5557C35.9887 56.7517 38.5329 56.6113 41.0253 56.1381C41.2777 56.0641 41.5034 55.9188 41.6754 55.7197C44.1651 53.1513 46.1802 49.2309 46.0385 45.5551C45.9581 43.4734 43.783 42.8414 41.7221 42.538C37.1265 41.8602 27.0828 41.4047 26.635 46.0193ZM34.2935 42.723C41.8656 41.945 46.7188 44.2998 44.7374 45.1833C41.2068 46.7576 35.3145 47.6653 28.5844 45.9259C27.8868 45.7461 26.7241 44.8021 28.2594 43.9298C29.3244 43.323 32.9933 42.8561 34.2935 42.723ZM25.5674 46.3902C25.6245 46.1041 25.575 45.8071 25.4282 45.5551C25.1313 45.1907 24.7427 44.9119 24.3024 44.7474C23.8621 44.5828 23.3859 44.5384 22.9228 44.6188C22.4597 44.6992 22.0263 44.9013 21.6672 45.2046C21.308 45.5078 21.0361 45.9012 20.8793 46.3443C20.5824 47.0351 20.4341 47.7805 20.4442 48.5323C20.4542 49.2841 20.6222 50.0253 20.9374 50.7079C21.2526 51.3905 21.7079 51.9991 22.2737 52.4942C22.8394 52.9893 23.503 53.3599 24.2214 53.5818C25.4492 54.0701 26.8046 54.1351 28.0735 53.7668C27.8419 53.4418 27.6093 53.1617 27.4234 52.8851C24.7167 53.8481 19.4857 48.8099 22.8754 46.4334C23.2558 46.1287 23.7267 45.9591 24.214 45.9512C24.7013 45.9434 25.1774 46.0978 25.5674 46.3902ZM27.1918 52.5635C26.2392 51.0439 25.7103 49.2972 25.6599 47.5045C25.5852 47.3187 25.4699 47.1521 25.3222 47.0169C25.1746 46.8817 24.9985 46.7813 24.8069 46.7233C24.6154 46.6652 24.4132 46.6508 24.2153 46.6813C24.0175 46.7118 23.829 46.7863 23.6638 46.8993C21.0971 48.324 24.2828 52.5635 27.1918 52.5635ZM33.7826 44.2091C32.4859 43.559 30.1621 43.7906 29.4195 44.9517C30.9047 44.6776 32.249 44.4407 33.7826 44.2091Z" fill="white"/>
<path d="M58.3373 41.4701C58.5232 43.4196 57.5083 41.7476 57.4556 41.4235C57.166 39.6539 51.686 11.0687 51.4673 9.53508C51.2566 8.55612 51.3532 7.53601 51.7437 6.61393C52.1341 5.69185 52.7996 4.91268 53.6492 4.38272C54.1414 4.1304 54.6766 3.97292 55.2269 3.91849C56.4311 3.71707 95.3323 0.0844868 97.0025 0.0196501C102.212 -0.18264 101.729 0.508954 109.302 35.8536C109.302 36.8287 108.57 36.5011 108.467 36.0852C108.34 35.5717 108.13 35.0677 108.003 34.5542C101.272 7.34014 101.36 3.85971 100.762 2.75835C100.528 2.21307 100.129 1.75454 99.6213 1.44663C99.1138 1.13873 98.5229 0.996799 97.9309 1.04061C96.5382 1.1357 55.0843 4.93081 54.3918 5.35787C52.7718 6.34944 52.7493 7.76633 52.5349 9.07084C52.5816 9.11753 57.8731 38.7781 58.3373 41.4701Z" fill="white"/>
<path d="M25.1958 76.8859C24.1324 77.0942 20.1817 77.9457 19.255 78.1394C17.8104 78.4411 14.3049 78.9563 8.30021 80.2747C8.06572 80.3451 7.81938 80.3671 7.57612 80.3394C7.33286 80.3118 7.09776 80.235 6.88507 80.1137C6.67238 79.9925 6.48654 79.8293 6.33883 79.634C6.19111 79.4388 6.08459 79.2156 6.02574 78.9779C-0.295405 63.9635 -0.0827408 64.4104 0.0382876 63.5641C0.0382876 63.2771 -0.20809 63.4076 16.8872 60.1295C18.0975 59.8987 19.3034 59.6765 20.5076 59.3869C21.0661 59.2529 21.3436 59.5727 21.5753 59.992C27.3328 70.3555 24.9762 66.5621 29.2805 73.5455C29.6522 74.1506 29.9384 74.7471 30.3014 75.3099C30.5392 75.6773 30.3473 75.9557 29.9773 76.0525C29.6557 76.1346 26.5435 76.6222 25.1958 76.8859ZM29.3738 75.1223C29.3211 75.0359 24.6192 66.5708 21.2969 60.8721C21.2206 60.6771 21.0711 60.5198 20.8803 60.4337C20.6895 60.3476 20.4726 60.3396 20.276 60.4113C14.0992 61.5628 8.78432 62.5293 0.780883 64.0785C3.26024 69.9665 1.21313 65.5844 7.46511 79.0246C7.55761 79.2572 7.65011 79.4422 7.97516 79.3497C10.343 78.8854 12.7108 78.5215 15.0769 78.0529C18.9784 77.2688 28.4912 75.354 29.3738 75.1223Z" fill="white"/>
<path d="M2.77683 37.243C1.77835 37.4427 1.30202 36.1028 2.3126 35.8503C3.60934 35.6947 51.7735 31.476 53.3244 31.3481C53.9736 31.2945 54.2061 31.3939 54.2528 31.8581C54.2995 32.3224 54.1594 32.5549 53.6477 32.5549C51.9092 32.5584 3.05088 37.243 2.77683 37.243Z" fill="white"/>
<path d="M147.411 61.6146C144.768 60.8945 146.25 61.6086 139.428 59.0618C137.629 58.3048 135.942 57.3054 134.414 56.0914C134.091 55.8693 133.728 55.7116 133.346 55.6272C133.064 55.5883 132.798 55.4728 132.577 55.2933C132.356 55.1138 132.189 54.8771 132.093 54.6091C131.997 54.341 131.977 54.0518 132.034 53.773C132.091 53.4942 132.224 53.2364 132.417 53.0276C133.494 51.7479 134.886 50.7719 136.456 50.1964C139.158 49.0579 141.84 49.4547 144.486 50.3823C148.436 51.7655 153.322 53.204 154.514 57.0665C154.699 57.7762 154.655 58.5263 154.389 59.2095C154.122 59.8927 153.646 60.474 153.029 60.8703C149.738 62.6831 148.857 62.0088 147.411 61.6146ZM135.621 56.2773C138.532 58.0958 141.713 59.4429 145.044 60.2686C144.502 59.7274 145.655 60.4121 135.946 56.1839C135.568 55.9323 135.394 56.1631 135.621 56.2773ZM138.592 50.2431C136.727 50.6754 134.096 51.8372 133.022 53.3994C132.546 54.091 132.742 54.5664 133.579 54.7921C137.905 55.9124 142.047 57.6472 145.879 59.9436C148.009 61.0181 149.693 61.9267 152.471 59.6194C153.768 58.544 153.818 57.6224 152.934 56.1839C152.225 54.9736 151.154 54.0161 149.872 53.4461C147.691 52.5141 145.463 51.6816 143.187 50.8924C141.709 50.3915 140.151 50.1713 138.592 50.2431Z" fill="white"/>
<path d="M131.119 73.0803C131.212 71.3159 132.552 70.6287 134.09 71.5018C134.176 71.5528 146.036 78.0901 155.302 83.4317C156.124 84.3326 156.854 85.3122 157.483 86.3563C157.697 86.6796 157.592 87.0479 157.066 87.0479C152.951 86.5906 156.602 88.0403 132.326 74.4264C131.908 74.0546 131.305 73.6838 131.119 73.0803ZM154.699 83.8951L137.198 73.9621C137.058 73.8432 136.893 73.7565 136.716 73.7079C136.539 73.6594 136.353 73.6503 136.172 73.6813C135.99 73.7123 135.818 73.7826 135.667 73.8873C135.516 73.9919 135.389 74.1284 135.296 74.2872C134.916 74.7436 134.927 74.9788 135.436 75.2614C143.442 79.6971 153.423 85.5195 153.631 85.5195C153.956 85.0094 154.281 84.4518 154.699 83.8951ZM156.184 85.4728L155.488 84.3593C154.606 84.7302 154.235 85.1944 154.278 85.937C154.931 85.8445 155.673 86.3087 156.184 85.4728ZM132.324 73.4979C132.695 72.9403 133.02 72.4302 133.392 71.8727C133.28 71.8108 133.157 71.7725 133.03 71.7601C132.903 71.7478 132.774 71.7617 132.653 71.8009C132.531 71.8401 132.419 71.9038 132.323 71.9881C132.227 72.0725 132.15 72.1756 132.095 72.2911C131.769 72.8478 131.908 73.312 132.326 73.4979H132.324ZM134.088 74.6114C134.552 74.0062 134.97 73.5437 135.385 73.0337C135.057 73.0118 134.732 73.1073 134.469 73.3029C134.205 73.4984 134.019 73.7815 133.945 74.1013C133.95 74.2431 134.086 74.4722 134.086 74.6114H134.088ZM133.159 74.1471C133.578 73.4555 133.902 72.9368 134.181 72.3836C133.484 72.5228 133.02 72.8945 132.971 73.4979C132.997 73.7236 133.061 73.9432 133.161 74.1471H133.159Z" fill="white"/>
<path d="M45.1551 54.9771C47.9751 55.4681 47.1719 61.3319 37.3107 61.9396C33.4836 62.1756 25.0903 60.674 26.5418 57.6699C26.6633 57.3143 26.8863 57.002 27.1833 56.7715C27.4802 56.5411 27.8381 56.4026 28.2129 56.3732C28.1422 56.5136 28.0282 56.6276 27.8878 56.6982C27.6518 56.8228 27.4557 57.0114 27.3221 57.2423C27.1885 57.4733 27.1228 57.7373 27.1326 58.004C27.1423 58.2707 27.2271 58.5291 27.3773 58.7498C27.5274 58.9704 27.7367 59.1441 27.9812 59.2511C32.1601 61.791 40.7488 62.0659 45.0626 58.5595C45.2987 58.385 45.4967 58.1641 45.6442 57.9102C45.7917 57.6564 45.8858 57.3751 45.9205 57.0835C45.9552 56.792 45.93 56.4965 45.8462 56.2151C45.7624 55.9337 45.622 55.6724 45.4335 55.4473C45.2943 55.3488 45.2476 55.1629 45.1551 54.9771Z" fill="white"/>
<path d="M142.444 24.1102C141.77 24.1102 141.641 23.5397 142.119 23.1818C142.907 22.3329 152.987 21.6966 153.074 21.6966C153.308 21.6781 153.54 21.7533 153.718 21.9056C153.896 22.058 154.007 22.2749 154.025 22.5088C154.044 22.7426 153.969 22.9743 153.816 23.1527C153.664 23.3311 153.447 23.4417 153.213 23.4601C149.639 23.8825 146.043 24.0996 142.444 24.1102Z" fill="white"/>
<path d="M111.577 25.6881C115.208 25.274 115.808 25.2118 116.312 25.5022C116.407 25.5461 116.487 25.6175 116.541 25.7072C116.596 25.7969 116.622 25.9007 116.617 26.0055C116.612 26.1103 116.576 26.2112 116.513 26.2953C116.45 26.3794 116.364 26.4428 116.265 26.4774C115.618 26.7128 114.949 26.8839 114.269 26.9883C112.646 27.1888 110.973 27.3133 109.302 27.4058C108.606 27.4983 107.35 26.1705 111.577 25.6881Z" fill="white"/>
<path d="M125.595 68.1597C125.271 67.7421 124.903 67.2312 124.203 67.5096C124.064 67.5563 122.657 67.6574 122.301 67.0454C121.633 65.9042 119.077 65.2299 118.077 65.1435C108.589 64.1269 104.303 66.0616 99.604 68.7173C98.6988 69.1054 99.3558 68.9083 96.4468 67.8822C90.838 65.7789 81.3563 66.25 72.3103 72.0136C71.1417 72.7338 70.1441 73.6999 69.3866 74.8448C68.8005 75.7222 68.357 75.5701 67.0655 76.1415C66.9265 76.1732 66.7976 76.2387 66.6901 76.3322C66.5826 76.4257 66.4999 76.5444 66.4493 76.6776C66.3988 76.8108 66.3819 76.9545 66.4003 77.0958C66.4186 77.2371 66.4716 77.3717 66.5546 77.4875C67.2972 78.741 80.7581 101.3 81.9649 103.388C82.3367 104.039 82.615 104.178 83.3109 104.039C85.8646 103.481 107.374 99.3046 112.136 98.2828C112.892 98.0781 113.676 97.9995 114.457 98.0503C116.072 98.2444 117.7 97.8112 119.006 96.84C119.372 96.5713 119.806 96.4105 120.259 96.3757C122.44 96.0974 139.151 93.637 140.868 93.4054C145.963 92.8737 147.72 96.8616 125.595 68.1597ZM84.4702 101.858C84.1244 101.513 69.5353 77.4365 69.4774 77.3501C69.8828 76.9446 68.6129 75.2321 84.2377 101.023C84.7365 101.854 84.7408 101.588 84.4702 101.858ZM91.8037 99.5372C97.5343 97.0014 103.691 95.5685 109.953 95.3133L91.8037 99.5372ZM93.6606 97.8661C97.6986 95.8242 101.923 94.5249 106.24 94.7099C101.943 95.2953 97.7246 96.3538 93.6606 97.8661ZM85.6304 101.394C80.3385 92.7607 75.047 84.1426 69.7558 75.5398C77.6762 68.7968 88.2506 66.2301 97.1886 69.4132C98.2921 69.7952 99.2277 70.5504 99.8339 71.5485C107.481 83.2692 114.266 93.3414 115.198 94.8957C104.104 91.4611 94.4499 94.4782 85.6304 101.394ZM116.312 94.7099C110.881 86.5405 105.404 78.2785 99.8806 70.0166C105.084 65.7097 116.018 65.2248 121.464 67.2312C121.877 67.335 138.877 89.5212 139.242 90.0684C135.322 89.2287 131.256 89.3721 127.405 90.486C123.53 91.3752 119.797 92.7966 116.312 94.7099ZM135.714 90.7185C132.515 91.1828 129.123 91.6003 125.781 92.0645C130.237 90.8577 134.414 90.3468 135.714 90.7185ZM121.325 94.1531C121.288 94.0986 121.271 94.0328 121.278 93.9673C122.346 93.6889 123.46 93.3621 124.621 93.178C126.96 92.8227 136.189 91.4309 138.592 91.3219C138.906 91.3257 139.218 91.3725 139.52 91.4611C133.394 92.3896 127.359 93.2713 121.325 94.1531Z" fill="white"/>
<path d="M132.326 73.4977C131.375 73.0741 132.173 71.2855 133.347 71.8725C133.022 72.4275 132.651 72.9401 132.326 73.4977Z" fill="#38A1FF"/>
<path d="M50.6327 103.251C50.5393 103.761 50.2601 104.003 49.7967 103.947C47.6087 103.681 50.4693 104.941 41.1172 99.3978C38.6785 97.9524 28.6772 92.5623 28.6772 90.7183C28.9046 90.491 31.518 90.8912 31.9269 91.1359C52.6141 103.631 49.1475 101.395 50.6327 103.251ZM40.9314 98.516C41.1656 98.7503 45.4812 101.32 48.5899 103.157C48.9123 103.349 49.0541 103.204 49.24 102.972C49.4258 102.693 49.24 102.556 49.0083 102.415C48.1352 101.885 42.9266 98.6976 41.2564 97.7267C41.1643 97.9962 41.0558 98.2598 40.9314 98.516Z" fill="white"/>
<path d="M109.164 39.8458C110.013 39.9763 109.423 39.6417 122.207 50.6605C122.69 50.9821 122.336 51.3106 122.021 51.3106C120.258 51.4956 78.2506 56.2805 76.3478 56.5555C76.0503 56.6042 75.7451 56.5692 75.4663 56.4544C75.1875 56.3396 74.9462 56.1495 74.7693 55.9054C65.6921 44.8978 65.4017 44.9264 65.5322 44.533C65.8979 43.8017 109.062 39.8293 109.164 39.8458ZM74.0734 47.8293C73.5158 47.9218 73.0982 48.0143 72.634 48.061C72.2164 48.1544 72.5873 48.2935 72.8665 48.2935C74.5186 47.8345 75.2257 48.922 77.1362 51.3106C76.487 51.4031 75.9761 51.4498 75.4652 51.5423C75.001 51.7281 75.4194 51.6815 75.4652 51.7281C75.9125 51.7775 76.3639 51.7775 76.8112 51.7281C77.0426 51.6739 77.2849 51.689 77.5078 51.7715C77.7308 51.8541 77.9244 52.0004 78.0647 52.1924C78.5066 52.6341 78.9714 53.0523 79.4574 53.445C79.5966 53.5384 79.7358 53.6309 79.5966 53.3058C79.1323 52.7958 78.7148 52.2849 78.2039 51.7748C78.1943 51.7635 78.1878 51.7499 78.185 51.7354C78.1822 51.7208 78.1832 51.7058 78.1879 51.6917C78.1926 51.6776 78.2008 51.665 78.2118 51.655C78.2228 51.6451 78.2361 51.6381 78.2506 51.6348C78.9932 51.5423 82.1494 51.1247 83.7738 50.9856C84.0082 51.0171 84.2232 51.1326 84.3789 51.3106C85.5745 52.5062 87.1902 54.3795 86.7001 53.3992C86.05 52.6099 85.4033 51.7748 84.704 50.9856C84.8898 50.8922 86.1918 50.772 89.7638 50.3804C91.3891 50.2075 91.9095 49.9992 92.4092 50.5663C92.9279 51.1593 93.4768 51.7264 93.9877 52.3298C94.2194 52.7007 94.4053 52.5157 94.1269 52.1906C93.6627 51.4939 93.1518 50.8446 92.6417 50.102C94.6369 49.8695 96.5872 49.6378 98.5825 49.4053C99.2741 49.4053 100.08 50.9294 100.996 51.5406L101.135 51.4014C100.625 50.7513 100.161 50.1046 99.6501 49.452C99.5196 49.1926 99.4859 49.3551 105.081 48.616C105.732 48.5295 106.148 48.431 106.613 49.0802C107.449 50.5663 107.823 50.798 107.494 49.9629C107.355 49.7303 107.03 49.0802 106.845 48.7094C106.832 48.6854 106.825 48.6583 106.826 48.6308C106.826 48.6033 106.834 48.5765 106.848 48.5529C106.862 48.5293 106.882 48.5099 106.906 48.4965C106.93 48.4832 106.957 48.4764 106.984 48.4768C107.727 48.3843 109.585 48.0212 111.254 47.8276C112.787 47.6495 113.255 47.3599 113.807 47.9668C114.228 48.4284 114.69 48.8485 115.154 49.3128C115.478 49.6836 115.617 49.5911 115.339 49.1736L114.042 47.595C114.02 47.5778 114.004 47.5538 113.996 47.5266C113.989 47.4993 113.99 47.4705 114.001 47.4443C114.011 47.4181 114.03 47.396 114.054 47.3814C114.078 47.3668 114.107 47.3604 114.135 47.3633L115.713 46.9458C116.084 46.8524 115.899 46.7599 115.666 46.7599C113.496 46.957 113.669 47.3495 112.51 45.9707C112.002 45.3655 110.189 43.8354 109.911 43.557C110.061 43.4701 110.216 43.3924 110.375 43.3245C110.7 43.232 110.7 43.0928 110.236 43.1853C109.973 43.241 109.701 43.2252 109.447 43.1395C109.354 43.0928 108.658 42.2577 108.426 41.9784C108.147 41.7468 108.147 41.8859 108.286 42.0718L108.891 43.0461C108.905 43.0701 108.912 43.0972 108.911 43.1246C108.911 43.1521 108.903 43.179 108.889 43.2025C108.875 43.2261 108.855 43.2455 108.831 43.2589C108.807 43.2723 108.78 43.2791 108.752 43.2786C106.803 43.5103 104.899 43.7429 102.997 43.9279C102.377 43.9279 102.132 43.5086 101.465 42.9536C101.279 42.6285 101.14 42.7677 101.372 43.0461C101.604 43.3711 101.79 43.6962 102.022 44.0212C102.115 44.2071 102.068 44.2529 101.976 44.2529C101.094 44.4388 99.3294 44.4811 98.2583 44.6246C95.5654 44.986 95.4202 45.0482 94.3594 43.7887C94.1186 43.5185 93.8545 43.27 93.5702 43.0461C93.431 42.8611 93.3385 43.0003 93.431 43.1853C93.8494 43.6962 94.3594 44.3463 94.8237 44.903C94.833 44.9143 94.8394 44.9279 94.842 44.9423C94.8447 44.9568 94.8437 44.9716 94.839 44.9856C94.8343 44.9995 94.8262 45.012 94.8153 45.0219C94.8045 45.0318 94.7913 45.0388 94.777 45.0422C94.0811 45.0889 91.2041 45.2298 89.9497 45.4597C88.9296 45.6473 88.7394 45.5989 87.9544 44.6713C87.7479 44.3722 87.5147 44.0924 87.2577 43.8354C86.9326 43.4178 87.026 43.7429 87.1185 43.9746C87.4435 44.4388 87.7686 44.9497 88.0936 45.4597C88.1034 45.4811 88.1087 45.5041 88.1092 45.5276C88.1098 45.551 88.1056 45.5743 88.0968 45.596C88.0881 45.6178 88.075 45.6375 88.0584 45.6541C88.0418 45.6706 88.022 45.6836 88.0003 45.6923C85.865 46.0173 83.7859 46.3493 81.6895 46.6666C80.9227 46.7833 81.189 46.4937 79.9718 45.2747L79.8326 45.4139C80.1118 45.8782 80.4377 46.2957 80.8077 46.8057C78.9975 47.1308 77.2331 47.3599 75.4695 47.7342C75.2098 47.8102 74.9316 47.7909 74.6848 47.68C74.4381 47.5691 74.239 47.3737 74.1235 47.1291C72.9633 45.6906 72.7775 45.7831 72.9634 46.0156C73.2724 46.6554 73.6443 47.263 74.0734 47.8293Z" fill="#38A1FF"/>
<path d="M74.63 59.4335C74.5435 59.347 73.8035 58.7808 74.7225 58.5517C76.6244 58.3191 124.157 52.8884 126.198 52.6567C126.599 52.6567 126.878 53.1486 126.245 53.306C121.353 53.9379 75.6129 59.2364 74.63 59.4335Z" fill="white"/>
<path d="M60.983 44.3479C73.6832 58.6119 73.9832 58.2099 73.423 58.6906C73.098 58.969 72.8689 58.6413 72.6804 58.4122C70.2538 55.4557 60.2871 44.7205 60.2871 44.5329C60.2871 44.3937 60.2837 43.5612 60.983 44.3479Z" fill="white"/>
<path d="M81.0345 76.468C80.4968 76.7438 79.9781 77.0533 79.8242 76.6539C79.6392 75.913 83.5554 74.2091 83.9556 74.0544C87.6003 72.6251 91.5127 72.0074 95.4205 72.2441C96.0942 72.3177 96.7615 72.442 97.4166 72.6159C99.4196 73.6144 89.8549 71.9485 81.0345 76.468Z" fill="white"/>
<path d="M97.7926 75.7255C98.906 76.1898 97.8384 76.3307 97.6525 76.3307C95.3966 76.3438 93.1513 76.6401 90.9692 77.2124C90.83 77.2591 89.7157 77.1199 90.7833 76.6073C94.9251 75.2803 95.8397 75.2751 97.7926 75.7255Z" fill="white"/>
<path d="M116.776 85.4269C116.219 84.5451 115.662 83.7092 115.105 82.8741C115.024 82.8209 114.932 82.7851 114.836 82.7691C114.741 82.753 114.643 82.757 114.548 82.7807C114.081 82.9095 113.573 83.0591 113.062 83.1525C113.342 82.5024 113.991 82.3632 114.548 81.9915C114.13 81.2955 113.759 80.5996 113.338 79.857C111.664 80.4622 111.765 80.4311 111.295 80.2746C111.577 79.8518 111.082 80.0152 113.013 79.2069C112.455 78.2318 111.945 77.3051 111.388 76.329C111.017 76.4682 110.645 76.6074 110.228 76.7466C110.228 76.0974 110.784 76.055 111.064 75.7723C110.645 74.8905 110.228 74.0079 109.81 73.0794C109.857 73.0336 109.833 72.3204 110.553 73.312C111.763 74.977 111.874 75.4473 112.224 75.4473C113.756 75.1222 115.241 74.7505 116.773 74.3796C115.194 71.5017 114.962 70.5266 117.329 73.9154C117.383 74.0725 117.494 74.2032 117.641 74.2808C117.788 74.3584 117.959 74.3771 118.119 74.3329C119.231 74.2249 120.346 74.1938 121.553 74.1471C121.398 73.8673 121.274 73.5717 121.182 73.2653C119.972 69.5056 121.832 72.9869 121.832 73.0336C122.686 75.596 124.754 73.4347 125.635 75.0755C124.893 75.0297 124.104 74.983 123.175 74.9364C123.686 75.7256 124.104 76.4216 124.568 77.1183C124.677 77.3353 126.952 77.1348 127.631 77.8099C126.842 78.2275 126.053 77.8099 125.171 78.0883C125.543 78.6934 125.914 79.2986 126.332 79.8985C126.378 79.9919 126.611 79.9919 126.796 79.9919C127.492 80.0377 128.142 80.0377 128.838 80.0844C129.03 80.1251 129.217 80.1875 129.395 80.2703C129.395 80.6074 129.67 80.3411 126.888 80.7803C127.306 81.4771 127.677 82.173 128.142 82.8231C128.383 83.0651 129.179 82.8974 131.065 83.009C131.248 83.009 132.103 83.3133 131.855 83.5657C130.834 83.6582 129.812 83.7515 128.742 83.844C128.822 84.1927 128.931 84.5342 129.067 84.865C130.277 88.2071 130.228 88.3463 128.461 85.2834C128.116 84.8209 127.813 84.0299 127.348 84.0299C126.138 84.2158 124.98 84.4016 123.727 84.5866C124.053 85.3759 124.656 86.9545 124.841 87.5579C125.259 88.6714 124.563 87.6504 124.517 87.6037C123.339 85.937 122.996 84.9117 122.474 84.9117C121.081 85.1901 119.735 85.5168 118.343 85.7935C118.761 86.5361 119.132 87.2328 119.504 87.9288C119.829 88.4397 119.457 88.3463 119.271 88.0679C118.993 87.7429 118.666 87.4628 118.389 87.1395C118.066 86.7669 117.784 86.1652 117.415 86.0718C116.925 85.9093 116.392 86.3718 114.815 86.7219C115.105 86.0303 115.987 85.8912 116.776 85.4269ZM113.852 78.8819C115.337 78.511 116.776 78.0926 118.215 77.7217C117.844 76.8858 117.426 76.0974 117.004 75.1689C115.472 75.4473 113.892 75.774 112.224 76.0974C112.831 77.0716 113.338 78.0001 113.852 78.8819ZM115.801 82.3632C116.406 83.2916 116.962 84.1734 117.519 85.0094C117.556 85.0572 117.608 85.0919 117.666 85.1085C117.725 85.1252 117.787 85.1228 117.844 85.1019C119.19 84.7302 120.582 84.3593 121.974 83.9417C121.511 83.1525 121.047 82.4099 120.582 81.6673C120.549 81.6138 120.5 81.5719 120.442 81.547C120.384 81.5222 120.319 81.5156 120.257 81.5281C118.818 81.8064 117.38 82.0848 115.801 82.3632ZM119.979 80.7388C119.607 80.0887 119.19 79.4421 118.818 78.7894C118.652 78.4566 117.984 78.8266 114.223 79.532C114.641 80.2746 114.966 80.8287 115.337 81.4339C115.43 81.5272 115.616 81.6664 115.755 81.6197C117.147 81.3422 118.54 81.0639 119.979 80.7388ZM121.418 81.2955C122.604 83.238 122.848 83.8026 123.135 83.8026C124.346 83.6167 125.549 83.3841 126.802 83.1525C126.384 82.4557 126.013 81.8064 125.591 81.1564C125.461 80.8884 125.116 80.9134 121.418 81.2955ZM117.844 75.0755C119.219 77.5973 118.806 77.6171 120.443 77.4434C121.325 77.3491 122.207 77.2575 123.135 77.1641C122.764 76.4682 122.403 75.8112 122.021 75.2147C121.976 75.1409 121.915 75.0777 121.843 75.0296C121.771 74.9816 121.689 74.9498 121.603 74.9364C120.396 74.9597 119.19 75.0297 117.844 75.0755ZM119.654 78.4177C120.072 79.1602 120.443 79.7637 120.864 80.3671C120.908 80.4238 120.964 80.4699 121.029 80.5021C121.093 80.5342 121.163 80.5516 121.235 80.5529C122.489 80.4138 123.695 80.2279 124.995 80.0887C123.319 77.5808 124.638 78.0615 119.654 78.4177Z" fill="white"/>
<path d="M108.607 70.7126C108.468 70.295 108.793 70.0625 109.118 69.97C113.835 68.2324 118.664 68.5626 119.561 69.4591C119.964 69.8628 119.519 70.1066 119.237 70.0167C115.864 68.943 111.959 69.8749 108.607 70.7126Z" fill="white"/>
<path d="M14.2882 62.1719C15.7669 62.1855 17.2085 62.6362 18.4317 63.4671C19.6549 64.2981 20.605 65.4722 21.1625 66.8418C21.7201 68.2114 21.8601 69.7153 21.5651 71.1643C21.27 72.6134 20.553 73.9427 19.5042 74.9852C18.4555 76.0278 17.1219 76.7368 15.6711 77.0233C14.2204 77.3097 12.7173 77.1607 11.3511 76.595C9.9848 76.0293 8.81635 75.0722 7.9927 73.8441C7.16905 72.616 6.72701 71.1717 6.72217 69.6929C6.732 67.6935 7.53372 65.7794 8.95178 64.3697C10.3698 62.9601 12.2887 62.1698 14.2882 62.1719ZM13.1747 68.5311C13.1747 68.4844 11.6428 65.4673 10.8536 63.8429C10.111 64.5388 9.46087 65.1397 8.71827 65.7924C10.2501 66.7666 13.128 68.5311 13.1747 68.5311ZM8.43991 73.0325C9.1825 73.8217 9.8326 74.471 10.5285 75.2136C11.5037 73.6359 13.3606 70.6188 13.3606 70.5721C13.2309 70.7061 10.0772 72.2146 8.43991 73.0325ZM8.11486 72.4273C9.8326 71.5455 12.9422 69.9203 12.9422 69.8745C11.1786 69.7811 9.41505 69.7353 7.51145 69.6419C7.69818 70.6197 7.88318 71.4548 8.11486 72.4273ZM20.1831 72.9374C20.4623 72.0098 20.7407 71.1738 21.0191 70.292C19.1172 70.1995 15.5884 70.0595 15.5417 70.1062C17.0736 71.0372 18.5587 71.9657 20.1831 72.9399V72.9374ZM14.985 63.0044C14.8916 64.9063 14.7524 68.4351 14.7991 68.4351C15.7275 66.9499 16.656 65.4647 17.677 63.8403C16.7485 63.5646 15.9108 63.2853 14.985 63.0044ZM13.9173 68.2959C13.964 68.2959 14.149 64.8146 14.2424 62.9586C13.3139 63.1436 12.4321 63.3761 11.5037 63.5637C12.3388 65.2348 13.128 66.7666 13.9173 68.2985V68.2959ZM19.7656 73.5875C18.2337 72.6132 15.31 70.8488 15.2633 70.8954C16.0526 72.3806 16.841 73.8658 17.6303 75.4444C18.3729 74.8479 19.023 74.2427 19.7656 73.59V73.5875ZM12.6638 69.2711C12.6638 69.2244 9.87928 67.3692 8.34741 66.3932C8.06904 67.275 7.78981 68.1101 7.51145 68.9927C9.36837 69.0878 11.0394 69.1803 12.6638 69.2737V69.2711ZM20.5082 67.0424C18.8838 67.8317 17.3519 68.5743 15.8667 69.3169C15.8667 69.3636 19.2555 69.5494 21.0658 69.6419C20.8799 68.7161 20.694 67.881 20.5082 67.045V67.0424ZM16.9811 75.7694C16.1451 74.1909 14.5674 71.2663 14.5674 71.2663C14.5207 72.8915 14.4274 74.5626 14.3815 76.3262C15.2633 76.1446 16.0526 75.957 16.9811 75.772V75.7694ZM18.3314 64.3072C17.4029 65.7924 16.5211 67.1384 15.5927 68.4844C15.6385 68.5311 18.5631 67.045 20.1416 66.2566C19.4872 65.6065 18.9305 64.9564 18.3314 64.3072ZM13.5499 76.2821C13.6891 74.5652 13.8283 71.3156 13.7824 71.3156C12.9007 72.6616 12.0647 74.0543 11.0904 75.5395C11.9679 75.8178 12.7122 76.0504 13.5456 76.2821H13.5499Z" fill="white"/>
<path d="M136.921 51.4955C137.618 51.4955 138.268 51.4496 138.917 51.4955C139.289 51.5421 140.214 52.6098 140.496 52.8415C139.89 52.749 138.546 52.5173 138.453 52.4706C137.989 52.1922 137.524 51.8672 136.921 51.4955Z" fill="white"/>
<path d="M91.6647 49.6396C90.8296 49.7321 90.1337 49.8306 89.437 49.918C87.8601 50.1159 86.2807 50.243 84.7021 50.428C84.5163 50.428 84.2379 50.428 84.1454 50.2888C83.3095 49.3145 82.4744 48.2936 81.5459 47.1767C82.521 47.0375 86.7493 46.4609 87.9518 46.2482C88.1646 46.1912 88.3899 46.2006 88.5972 46.2753C88.8046 46.3499 88.9842 46.4862 89.1119 46.6658C89.8484 47.602 90.7363 48.5719 91.6647 49.6396Z" fill="#38A1FF"/>
<path d="M112.506 46.9009C112.528 46.9181 112.544 46.9421 112.552 46.9694C112.559 46.9966 112.557 47.0255 112.547 47.0517C112.537 47.0779 112.518 47.0999 112.494 47.1145C112.47 47.1291 112.441 47.1355 112.413 47.1326C111.783 47.2069 109.172 47.6132 106.472 47.8293C105.708 47.8293 106.249 47.8933 103.223 44.7172C103.201 44.7 103.184 44.6759 103.177 44.6487C103.17 44.6215 103.171 44.5926 103.182 44.5664C103.192 44.5402 103.211 44.5181 103.235 44.5035C103.259 44.4889 103.287 44.4826 103.315 44.4855C109.194 43.6746 109.194 43.4974 109.396 43.6962C110.464 44.7639 111.473 45.8445 112.506 46.9009Z" fill="#38A1FF"/>
<path d="M95.9351 45.3224C98.0781 45.0545 100.844 44.7968 101.923 44.6265C102.136 44.5858 102.356 44.603 102.56 44.6765C102.764 44.7499 102.944 44.8769 103.083 45.0441C103.891 46.0037 104.754 46.946 105.636 47.9686C104.314 48.1571 104.508 48.0949 99.3697 48.7112C99.1751 48.7147 98.983 48.6667 98.8129 48.5721C97.8378 47.5969 96.9111 46.576 95.9351 45.555V45.3224Z" fill="#38A1FF"/>
<path d="M98.3955 48.8502C96.8169 49.036 95.2833 49.1268 93.7532 49.4553C93.2206 49.6 92.6546 49.559 92.1485 49.339C91.6423 49.119 91.2262 48.7332 90.9687 48.245C90.4604 47.568 89.918 46.9174 89.3434 46.2956C89.3261 46.2725 89.3145 46.2456 89.3099 46.217C89.3053 46.1885 89.3077 46.1593 89.3169 46.1319C89.3261 46.1045 89.3418 46.0797 89.3627 46.0597C89.3836 46.0398 89.409 46.0252 89.4368 46.0173C95.0958 45.4121 94.2857 45.4657 94.9142 45.4121C95.1926 45.4121 95.3326 45.5962 95.5193 45.783C96.5476 46.7379 97.5086 47.7628 98.3955 48.8502Z" fill="#38A1FF"/>
<path d="M75.1406 48.1544C76.7182 47.9218 77.6026 47.7559 79.5036 47.5043C80.6188 47.3565 81.0796 46.9216 81.6381 47.8752C82.5432 49.4209 83.0333 49.4805 83.7275 50.5214C81.032 50.8205 79.7906 51.0288 78.1576 51.1714C77.4487 51.1714 77.3796 50.8792 75.0939 48.3394C75.0754 48.3285 75.0609 48.3119 75.0526 48.292C75.0443 48.2722 75.0427 48.2502 75.0479 48.2294C75.0532 48.2086 75.0651 48.19 75.0818 48.1765C75.0985 48.1629 75.1191 48.1552 75.1406 48.1544Z" fill="#38A1FF"/>
</svg>
