<svg width="176" height="176" viewBox="0 0 176 176" fill="none" xmlns="http://www.w3.org/2000/svg">
<path d="M83.6353 15.5445C77.0731 15.7275 71.8978 20.7365 72.0809 26.7311C72.2815 33.7095 79.4606 38.5019 86.6572 36.932L86.2726 32.4071C86.189 31.6571 86.2539 30.898 86.4638 30.1732C86.6737 29.4484 87.0243 28.772 87.4957 28.1828C87.9671 27.5935 88.5502 27.1029 89.2111 26.7391C89.8719 26.3753 90.5988 26.1452 91.3486 26.0623L95.8067 25.6786C95.4397 19.8688 90.0629 15.3606 83.6353 15.5445Z" fill="#0A7EFE"/>
<path fill-rule="evenodd" clip-rule="evenodd" d="M77.4243 132.736L130.919 128.227C132.38 128.102 133.731 127.403 134.676 126.282C135.622 125.161 136.084 123.71 135.961 122.25L132.856 85.7683C132.731 84.3075 132.031 82.9562 130.91 82.0108C129.79 81.0654 128.339 80.6034 126.879 80.7259L98.2962 83.131C97.7911 83.9012 97.462 84.3025 96.7034 84.8988C95.8894 85.5212 94.9399 85.9412 93.9314 86.1239C92.9238 86.3066 91.8863 86.2468 90.906 85.9495C89.9257 85.6522 89.0298 85.1259 88.2933 84.414C88.163 84.2856 88.0328 84.1568 87.9028 84.0276L78.986 84.7767C81.9439 95.2741 82.2545 102.557 82.4718 112.958C82.6518 116.015 82.2333 119.078 81.2398 121.974L77.4243 132.736ZM108.579 108.993L113.973 111.514L113.004 100.06L108.112 103.466C107.94 102.387 107.366 101.414 106.504 100.742C105.642 100.069 104.559 99.7489 103.471 99.8439L93.0347 100.746C92.4671 100.793 91.9145 100.952 91.4076 101.213C90.9016 101.475 90.4528 101.834 90.0867 102.271C89.7198 102.707 89.4443 103.212 89.2736 103.756C89.1038 104.298 89.043 104.87 89.095 105.438L89.5121 110.278C89.5587 110.846 89.718 111.398 89.9794 111.904C90.2407 112.41 90.6006 112.86 91.0371 113.226C91.4727 113.592 91.9778 113.868 92.5208 114.039C93.0646 114.209 93.6366 114.27 94.2042 114.218L104.623 113.35C105.189 113.302 105.742 113.142 106.247 112.879C106.752 112.617 107.2 112.257 107.566 111.822C107.932 111.386 108.209 110.882 108.379 110.339C108.517 109.902 108.584 109.447 108.579 108.992V108.993Z" fill="#0A7EFE"/>
<path d="M147.782 85.9192C147.828 86.3178 147.793 86.7216 147.682 87.107C147.57 87.4925 147.383 87.852 147.133 88.165C146.881 88.4782 146.57 88.7378 146.218 88.9297C145.866 89.1224 145.479 89.243 145.08 89.2843C144.681 89.3266 144.278 89.2887 143.893 89.1743C143.509 89.059 143.151 88.8698 142.84 88.6155C142.529 88.3612 142.272 88.0488 142.083 87.6948C141.894 87.3409 141.777 86.9531 141.738 86.5537L141.254 81.9777C141.178 81.1801 141.419 80.3844 141.926 79.7638C142.433 79.1433 143.165 78.7482 143.962 78.6646C144.758 78.5809 145.556 78.8154 146.181 79.3171C146.806 79.8188 147.207 80.547 147.298 81.3432L147.782 85.9192Z" fill="#0A7EFE"/>
<path d="M114.289 30.7709C114.548 31.3781 114.744 32.0103 114.873 32.6576C115.374 31.6059 115.67 30.4682 115.744 29.3057C115.225 29.8733 114.741 30.3537 114.289 30.7709Z" fill="white"/>
<path d="M68.8916 53.728C69.0352 54.5177 69.306 55.2788 69.6933 55.9817C70.979 55.9817 72.3984 55.8154 72.7486 55.2979C72.7988 55.2099 72.849 55.114 72.8991 55.0137C72.4151 55.9676 70.6639 54.9996 68.8916 53.728Z" fill="white"/>
<path d="M24.697 90.8607C21.5915 86.4027 1.83993 102.682 4.67793 106.789L5.16193 107.223C9.26974 109.511 27.1179 94.3675 24.697 90.8607Z" fill="white"/>
<path d="M58.4899 148.329C54.4313 150.259 66.9827 172.9 70.8099 169.684C73.0996 166.361 61.6957 146.793 58.4899 148.329Z" fill="white"/>
<path d="M20.3059 105.019C20.2277 105.307 20.2053 105.608 20.2399 105.904C20.4071 106.973 21.7755 107.023 22.6943 106.772C22.0509 106.004 21.2315 105.403 20.3059 105.019Z" fill="white"/>
<path d="M29.1709 96.3034C29.8054 97.0884 30.4566 97.8724 31.0409 98.5914C31.1388 98.3116 31.2005 98.0194 31.2248 97.7237C31.2415 97.4729 31.1928 97.2212 31.0834 96.9951C30.974 96.768 30.8077 96.5744 30.6007 96.431C30.3938 96.2876 30.1532 96.2013 29.9027 96.1784C29.6521 96.1564 29.4 96.1996 29.1709 96.3034Z" fill="white"/>
<path d="M59.5581 62.48C59.3732 62.4999 59.1982 62.5741 59.0554 62.6934C58.9126 62.8126 58.8085 62.9715 58.7559 63.1501C58.7035 63.3286 58.7051 63.5186 58.7607 63.6962C58.8163 63.8737 58.9232 64.0309 59.0681 64.1477C59.2129 64.2644 59.3891 64.3356 59.5744 64.3523C59.7597 64.3689 59.9458 64.3302 60.1091 64.2411C60.2724 64.152 60.4057 64.0165 60.4919 63.8516C60.5782 63.6868 60.6137 63.5001 60.5939 63.3151C60.5825 63.1915 60.5463 63.0716 60.4877 62.9623C60.4291 62.8529 60.3491 62.7565 60.2525 62.6786C60.1559 62.6008 60.0447 62.5431 59.9254 62.5089C59.8062 62.4748 59.6812 62.4649 59.5581 62.48Z" fill="white"/>
<path d="M52.8799 70.2404C52.6949 70.2603 52.52 70.3345 52.3772 70.4538C52.2344 70.5731 52.1302 70.732 52.0778 70.9106C52.0252 71.089 52.0269 71.2791 52.0824 71.4567C52.1381 71.6342 52.245 71.7914 52.3898 71.9081C52.5347 72.0249 52.7109 72.0961 52.8962 72.1127C53.0815 72.1294 53.2675 72.0906 53.4309 72.0016C53.5942 71.9124 53.7274 71.7769 53.8138 71.6121C53.9 71.4473 53.9355 71.2605 53.9157 71.0756C53.9027 70.9526 53.8657 70.8335 53.8065 70.7249C53.7474 70.6163 53.6674 70.5205 53.5712 70.4428C53.475 70.3653 53.3643 70.3075 53.2457 70.2727C53.1271 70.238 53.0027 70.227 52.8799 70.2404Z" fill="white"/>
<path d="M56.8373 80.4927C56.6522 80.5124 56.4772 80.5865 56.3343 80.7056C56.1914 80.8249 56.087 80.9838 56.0345 81.1623C55.9819 81.3407 55.9834 81.5309 56.0389 81.7085C56.0943 81.8862 56.2012 82.0433 56.346 82.1602C56.4908 82.2771 56.6671 82.3483 56.8524 82.3651C57.0378 82.3817 57.2239 82.3431 57.3873 82.254C57.5506 82.1649 57.6839 82.0293 57.7702 81.8644C57.8565 81.6996 57.892 81.5129 57.8722 81.3278C57.8591 81.2049 57.822 81.086 57.7629 80.9775C57.7038 80.8691 57.6239 80.7733 57.5278 80.6958C57.4317 80.6182 57.3212 80.5604 57.2028 80.5255C57.0843 80.4907 56.9601 80.4795 56.8373 80.4927Z" fill="white"/>
<path d="M48.1551 68.4707C47.9701 68.4904 47.795 68.5645 47.6521 68.6838C47.5092 68.8029 47.4049 68.9618 47.3523 69.1403C47.2997 69.3189 47.3013 69.5089 47.3567 69.6865C47.4122 69.8642 47.5191 70.0214 47.6639 70.1382C47.8087 70.2551 47.985 70.3264 48.1703 70.3431C48.3556 70.3598 48.5417 70.3211 48.7051 70.232C48.8685 70.1429 49.0018 70.0074 49.088 69.8425C49.1744 69.6776 49.2098 69.4909 49.19 69.3058C49.177 69.1831 49.1399 69.064 49.0807 68.9556C49.0217 68.8471 48.9418 68.7513 48.8457 68.6738C48.7496 68.5962 48.6391 68.5384 48.5206 68.5035C48.4022 68.4687 48.2779 68.4575 48.1551 68.4707Z" fill="white"/>
<path d="M67.5066 66.1504C67.3216 66.1701 67.1464 66.2443 67.0035 66.3635C66.8606 66.4828 66.7563 66.6417 66.7038 66.8203C66.6513 66.9988 66.6528 67.189 66.7084 67.3666C66.7639 67.5442 66.8709 67.7014 67.0158 67.8182C67.1608 67.935 67.337 68.0062 67.5225 68.0228C67.7078 68.0394 67.894 68.0006 68.0573 67.9114C68.2207 67.8221 68.3538 67.6864 68.44 67.5214C68.5262 67.3565 68.5616 67.1697 68.5415 66.9847C68.5283 66.8619 68.4912 66.743 68.432 66.6347C68.3729 66.5263 68.293 66.4306 68.1969 66.3532C68.1008 66.2757 67.9904 66.2179 67.8719 66.1831C67.7535 66.1483 67.6294 66.1372 67.5066 66.1504Z" fill="white"/>
<path d="M62.0629 73.7639C61.8779 73.7838 61.7029 73.858 61.5602 73.9774C61.4173 74.0967 61.3132 74.2557 61.2607 74.4343C61.2084 74.6128 61.21 74.8029 61.2657 74.9805C61.3213 75.1581 61.4283 75.3151 61.5733 75.4318C61.7182 75.5486 61.8945 75.6197 62.0798 75.6362C62.2652 75.6527 62.4513 75.6139 62.6146 75.5247C62.7778 75.4354 62.911 75.2997 62.9971 75.1348C63.0834 74.9699 63.1187 74.7831 63.0987 74.5981C63.0857 74.4753 63.0484 74.3562 62.9893 74.2477C62.9302 74.1393 62.8502 74.0435 62.7539 73.966C62.6577 73.8885 62.5472 73.8308 62.4286 73.7961C62.31 73.7614 62.1857 73.7504 62.0629 73.7639Z" fill="white"/>
<path d="M71.8309 77.3032C71.6459 77.3229 71.4708 77.397 71.3279 77.5162C71.185 77.6354 71.0807 77.7944 71.0281 77.9728C70.9755 78.1514 70.977 78.3414 71.0325 78.519C71.088 78.6967 71.1948 78.8539 71.3397 78.9707C71.4845 79.0876 71.6607 79.1589 71.846 79.1756C72.0314 79.1923 72.2176 79.1536 72.3809 79.0645C72.5443 78.9754 72.6775 78.8399 72.7639 78.675C72.8502 78.5101 72.8857 78.3234 72.8658 78.1383C72.8528 78.0155 72.8156 77.8965 72.7566 77.788C72.6974 77.6796 72.6175 77.5839 72.5214 77.5063C72.4253 77.4287 72.3149 77.3709 72.1964 77.3361C72.0779 77.3012 71.9537 77.29 71.8309 77.3032Z" fill="white"/>
<path d="M75.8876 61.1078C75.7026 61.1275 75.5275 61.2016 75.3846 61.3207C75.2416 61.44 75.1374 61.5989 75.0847 61.7774C75.0321 61.9559 75.0337 62.146 75.0891 62.3236C75.1447 62.5013 75.2515 62.6584 75.3963 62.7753C75.5412 62.8922 75.7174 62.9634 75.9027 62.9802C76.088 62.9969 76.2742 62.9582 76.4376 62.8691C76.601 62.78 76.7342 62.6444 76.8205 62.4795C76.9069 62.3147 76.9423 62.128 76.9224 61.9429C76.911 61.8194 76.8749 61.6996 76.8163 61.5903C76.7578 61.4811 76.6779 61.3846 76.5814 61.3067C76.4849 61.2289 76.3739 61.1712 76.2546 61.137C76.1355 61.1028 76.0107 61.0929 75.8876 61.1078Z" fill="white"/>
<path d="M84.6366 76.9023C84.4516 76.922 84.2765 76.9961 84.1335 77.1152C83.9907 77.2345 83.8864 77.3934 83.8337 77.5719C83.7812 77.7504 83.7827 77.9405 83.8381 78.1181C83.8937 78.2957 84.0005 78.4529 84.1453 78.5698C84.2902 78.6866 84.4664 78.7579 84.6518 78.7746C84.8371 78.7914 85.0232 78.7526 85.1866 78.6636C85.35 78.5744 85.4832 78.4389 85.5695 78.274C85.6559 78.1092 85.6913 77.9224 85.6714 77.7374C85.6449 77.4895 85.521 77.2622 85.3269 77.1056C85.1329 76.949 84.8845 76.8759 84.6366 76.9023Z" fill="white"/>
<path d="M84.6702 68.1363C84.793 68.1234 84.9121 68.0863 85.0206 68.0273C85.1291 67.9682 85.2249 67.8883 85.3025 67.7922C85.3801 67.696 85.4379 67.5855 85.4727 67.467C85.5075 67.3484 85.5186 67.2243 85.5053 67.1014C85.4725 66.8586 85.3462 66.6382 85.1534 66.487C84.9606 66.3358 84.7163 66.2659 84.4727 66.292C84.229 66.3181 84.0052 66.4383 83.8489 66.627C83.6925 66.8156 83.6158 67.0578 83.6353 67.3021C83.6482 67.4249 83.6853 67.544 83.7443 67.6524C83.8035 67.7609 83.8833 67.8566 83.9795 67.9341C84.0756 68.0116 84.1861 68.0694 84.3046 68.1041C84.4232 68.1388 84.5474 68.1498 84.6702 68.1363Z" fill="white"/>
<path d="M94.8717 78.8892C94.6869 78.9089 94.5118 78.983 94.3684 79.1022C94.2258 79.2214 94.1211 79.3803 94.0692 79.5588C94.0164 79.7373 94.0181 79.9274 94.0736 80.105C94.129 80.2826 94.2355 80.4398 94.3807 80.5567C94.525 80.6735 94.7019 80.7448 94.8867 80.7615C95.0724 80.7783 95.2581 80.7395 95.4217 80.6505C95.5854 80.5613 95.7183 80.4258 95.8045 80.2609C95.8908 80.0961 95.926 79.9093 95.9066 79.7243C95.8934 79.6014 95.8565 79.4825 95.7975 79.374C95.7385 79.2655 95.6585 79.1698 95.5625 79.0923C95.4657 79.0146 95.3557 78.9568 95.2369 78.922C95.119 78.8871 94.9941 78.876 94.8717 78.8892Z" fill="white"/>
<path d="M96.0407 68.9391C95.8559 68.9588 95.6808 69.033 95.5373 69.1522C95.3948 69.2714 95.29 69.4304 95.2381 69.6089C95.1853 69.7875 95.1871 69.9776 95.2425 70.1553C95.298 70.3329 95.4053 70.4901 95.5497 70.6069C95.6949 70.7237 95.8708 70.7949 96.0565 70.8115C96.2422 70.8281 96.4279 70.7893 96.5916 70.7C96.7544 70.6108 96.8881 70.4751 96.9744 70.3102C97.0606 70.1452 97.0958 69.9584 97.0756 69.7733C97.0624 69.6505 97.0254 69.5316 96.9664 69.4231C96.9075 69.3147 96.8274 69.2191 96.7315 69.1415C96.6347 69.064 96.5247 69.0063 96.4059 68.9715C96.288 68.9368 96.163 68.9258 96.0407 68.9391Z" fill="white"/>
<path d="M104.388 65.5995C104.369 65.4144 104.294 65.2394 104.175 65.0965C104.056 64.9536 103.897 64.8492 103.718 64.7967C103.54 64.744 103.35 64.7456 103.172 64.8011C102.994 64.8565 102.838 64.9634 102.721 65.1083C102.604 65.253 102.532 65.4293 102.516 65.6146C102.499 65.7999 102.538 65.9861 102.626 66.1495C102.716 66.3128 102.852 66.4461 103.016 66.5325C103.181 66.6187 103.368 66.6542 103.553 66.6344C103.676 66.6213 103.795 66.5842 103.903 66.5251C104.012 66.466 104.107 66.3861 104.185 66.29C104.262 66.1939 104.32 66.0835 104.356 65.9649C104.39 65.8465 104.401 65.7223 104.388 65.5995Z" fill="white"/>
<path d="M132.254 13.3564C132.152 12.0618 131.592 10.8459 130.674 9.92739C129.756 9.00885 128.54 8.44785 127.246 8.34521C125.951 8.24255 124.663 8.60501 123.612 9.36745C122.56 10.1298 121.815 11.2422 121.511 12.5046C120.003 11.8026 118.339 11.5008 116.68 11.6284C115.021 11.756 113.424 12.3087 112.04 13.2331C110.657 14.1576 109.535 15.4226 108.783 16.9064C108.03 18.3903 107.673 20.0428 107.744 21.705C109.755 21.1599 111.822 20.846 113.904 20.7695C114.017 21.4535 114.173 22.1295 114.372 22.7935C114.555 23.2106 114.839 23.2441 115.34 22.4758C116.459 20.8566 118.729 23.3611 116.074 25.298C117.22 27.2812 118.676 29.0682 120.386 30.5912C122.483 29.9157 124.289 28.5488 125.509 26.7138C126.728 24.8789 127.288 22.6847 127.099 20.4897C127.065 20.0869 127.006 19.6867 126.923 19.2911C127.044 19.2917 127.163 19.285 127.283 19.2709C127.997 19.2089 128.694 19.0069 129.33 18.6761C129.967 18.3454 130.532 17.8924 130.993 17.3432C131.455 16.794 131.804 16.1593 132.02 15.4752C132.236 14.7912 132.316 14.0711 132.254 13.3564Z" fill="white"/>
<path d="M61.4951 101.329L61.679 108.105L64.0638 105.952C63.0239 104.52 62.1613 102.969 61.4951 101.329Z" fill="white"/>
<path d="M76.8232 70.3911L79.1939 73.7642L79.3276 78.0885L76.8232 70.3911Z" fill="white"/>
<path d="M72.7316 47.5336C73.0221 47.4805 73.2841 47.3256 73.4708 47.0969C73.6576 46.8681 73.7568 46.5804 73.7507 46.2852C73.7448 45.9899 73.6339 45.7065 73.4379 45.4855C73.242 45.2646 72.9739 45.1206 72.6815 45.0793C72.9076 44.9141 73.0716 44.6774 73.1469 44.4076C73.2222 44.1378 73.2044 43.8505 73.0965 43.5919C72.9885 43.3335 72.7967 43.1189 72.5518 42.9827C72.307 42.8466 72.0235 42.7968 71.7469 42.8415C71.8886 42.6063 71.9487 42.3308 71.918 42.0579C71.8872 41.785 71.7673 41.5299 71.5768 41.3321C71.3863 41.1343 71.1358 41.0048 70.8643 40.9638C70.5928 40.9228 70.3153 40.9725 70.0749 41.1052C70.1324 40.8251 70.0921 40.5339 69.9608 40.2798C69.8296 40.0258 69.6153 39.8244 69.3536 39.7093C69.0919 39.5941 68.7986 39.5721 68.5227 39.647C68.2467 39.7218 68.0047 39.8889 67.8371 40.1205C67.81 39.8196 67.6789 39.5374 67.4662 39.3228C67.2535 39.1082 66.9726 38.9745 66.6719 38.9447C66.3712 38.9151 66.0695 38.9912 65.819 39.16C65.5683 39.3289 65.3845 39.5798 65.2991 39.8697C65.181 39.6097 64.9775 39.3979 64.7223 39.2697C64.4671 39.1415 64.1757 39.1046 63.8966 39.165C63.6175 39.2256 63.3675 39.3798 63.1883 39.6022C63.0091 39.8246 62.9115 40.1016 62.9117 40.3872C62.7033 40.208 62.4419 40.1023 62.1676 40.0864C61.8933 40.0704 61.6214 40.145 61.3936 40.2987C61.1659 40.4525 60.995 40.6768 60.9071 40.9372C60.8194 41.1975 60.8197 41.4795 60.9079 41.7397C60.6482 41.6431 60.3637 41.6358 60.0995 41.7191C59.8352 41.8025 59.6063 41.9716 59.4492 42.1998C59.2919 42.428 59.2153 42.7021 59.2315 42.9787C59.2478 43.2553 59.3559 43.5185 59.5387 43.7268C59.244 43.7106 58.9531 43.7991 58.7174 43.9766C58.4817 44.1541 58.3162 44.4091 58.2503 44.6968C58.1844 44.9844 58.2223 45.286 58.3573 45.5484C58.4922 45.8109 58.7155 46.0172 58.9878 46.1309C58.6983 46.187 58.4382 46.344 58.2538 46.5739C58.0693 46.8039 57.9724 47.0918 57.9804 47.3864C57.9885 47.6811 58.1009 47.9634 58.2976 48.1829C58.4944 48.4025 58.7626 48.545 59.0547 48.5852C58.8333 48.7532 58.6744 48.9904 58.6034 49.2591C58.5324 49.5278 58.5533 49.8125 58.6628 50.0679C58.7723 50.3233 58.9641 50.5348 59.2076 50.6685C59.4512 50.8024 59.7325 50.8509 60.0068 50.8064C59.8684 51.0427 59.8116 51.3181 59.8453 51.5899C59.8788 51.8617 60.0009 52.115 60.1927 52.3105C60.3844 52.5061 60.6352 52.6331 60.9064 52.672C61.1775 52.711 61.4539 52.6596 61.6929 52.5259C61.6376 52.8054 61.6798 53.0953 61.8122 53.3475C61.9447 53.5997 62.1596 53.799 62.4209 53.9121C62.6824 54.0252 62.9747 54.0455 63.2493 53.9693C63.5237 53.8932 63.764 53.7255 63.9299 53.4939C63.9444 53.7023 64.0104 53.904 64.122 54.0807C64.2335 54.2574 64.3873 54.4035 64.5693 54.5062C64.7513 54.6088 64.9559 54.6647 65.1648 54.6689C65.3738 54.6729 65.5805 54.6251 65.7664 54.5296C65.9169 54.3457 67.9664 51.8245 68.6889 50.9058C66.9192 48.9029 68.3879 47.6005 69.3401 48.9196C69.8408 49.6377 70.5721 49.4371 70.1409 47.2996C70.6942 47.059 71.2243 46.7686 71.7249 46.4319C72.0769 47.7836 72.3409 48.9364 72.5591 49.9044C72.8127 49.838 73.039 49.6939 73.2066 49.4924C73.3741 49.2909 73.4744 49.042 73.4934 48.7807C73.5124 48.5193 73.4492 48.2586 73.3126 48.035C73.176 47.8114 72.9728 47.6361 72.7316 47.5336Z" fill="white"/>
<path d="M72.565 49.9049C72.3485 48.9369 72.081 47.785 71.7307 46.4324C71.2301 46.7691 70.7 47.0595 70.1467 47.3001C70.5815 49.4376 69.852 49.6338 69.346 48.9202C68.4044 47.5931 66.9251 48.9034 68.6947 50.9063C67.9767 51.825 65.9227 54.3462 65.7723 54.5302C65.5863 54.6256 65.3797 54.6734 65.1707 54.6694C64.9618 54.6652 64.7572 54.6094 64.5751 54.5067C64.3931 54.404 64.2394 54.2578 64.1278 54.0812C64.0162 53.9045 63.9502 53.7029 63.9357 53.4944C63.7698 53.7259 63.5296 53.8937 63.2551 53.9699C62.9806 54.0459 62.6882 54.0257 62.4269 53.9126C62.1654 53.7994 61.9505 53.6002 61.8181 53.348C61.6856 53.0958 61.6435 52.8059 61.6988 52.5264C61.4597 52.6602 61.1833 52.7115 60.9122 52.6726C60.6411 52.6337 60.3903 52.5066 60.1985 52.3111C60.0068 52.1154 59.8846 51.8623 59.8511 51.5904C59.8175 51.3186 59.8742 51.0432 60.0127 50.8069C59.7384 50.8514 59.457 50.8029 59.2135 50.6691C58.97 50.5352 58.7781 50.3238 58.6686 50.0684C58.5592 49.813 58.5382 49.5282 58.6092 49.2596C58.6803 48.9909 58.8391 48.7537 59.0605 48.5858C58.7684 48.5455 58.5002 48.403 58.3034 48.1834C58.1068 47.9639 57.9944 47.6816 57.9863 47.3869C57.9783 47.0923 58.0752 46.8043 58.2596 46.5743C58.4441 46.3445 58.7042 46.1875 58.9936 46.1314C58.7214 46.0177 58.498 45.8114 58.363 45.549C58.2281 45.2865 58.1903 44.9849 58.2562 44.6973C58.3221 44.4096 58.4875 44.1545 58.7232 43.977C58.959 43.7996 59.2499 43.7111 59.5445 43.7273C59.3617 43.5191 59.2536 43.2558 59.2374 42.9792C59.2212 42.7025 59.2978 42.4284 59.455 42.2003C59.6122 41.9721 59.8411 41.803 60.1053 41.7196C60.3696 41.6363 60.6541 41.6435 60.9138 41.7402C60.8281 41.4807 60.8295 41.2004 60.9179 40.9417C61.0064 40.6832 61.1768 40.4605 61.4035 40.3079C61.6301 40.1552 61.9004 40.0808 62.1733 40.096C62.4462 40.1112 62.7066 40.2152 62.9149 40.3921C62.9147 40.1065 63.0123 39.8294 63.1915 39.607C63.3707 39.3847 63.6207 39.2304 63.8998 39.1699C64.1789 39.1095 64.4703 39.1463 64.7255 39.2746C64.9807 39.4028 65.1843 39.6146 65.3024 39.8746C65.3877 39.5848 65.5715 39.3338 65.8222 39.1649C66.0727 38.996 66.3744 38.9199 66.6751 38.9497C66.9758 38.9794 67.2567 39.1131 67.4694 39.3277C67.6821 39.5423 67.8133 39.8245 67.8403 40.1254C68.0079 39.8938 68.2499 39.7267 68.5259 39.6518C68.8018 39.577 69.0951 39.599 69.3568 39.7142C69.6185 39.8293 69.8329 40.0307 69.9641 40.2847C70.0954 40.5388 70.1356 40.83 70.0781 41.1102C70.3185 40.9774 70.596 40.9277 70.8676 40.9687C71.139 41.0097 71.3895 41.1392 71.58 41.337C71.7705 41.5348 71.8904 41.79 71.9212 42.0628C71.9519 42.3357 71.8918 42.6112 71.7501 42.8464C72.0267 42.8017 72.3102 42.8514 72.555 42.9875C72.7999 43.1237 72.9917 43.3383 73.0997 43.5969C73.2076 43.8553 73.2254 44.1426 73.1501 44.4125C73.0749 44.6823 72.9108 44.919 72.6847 45.0842C72.9771 45.1255 73.2452 45.2695 73.4411 45.4904C73.637 45.7114 73.748 45.9949 73.754 46.29C73.76 46.5852 73.6608 46.873 73.474 47.1018C73.2873 47.3305 73.0253 47.4853 72.7348 47.5386C72.9745 47.6416 73.1761 47.8167 73.3117 48.0395C73.4472 48.2624 73.51 48.522 73.4914 48.7821C73.4727 49.0423 73.3734 49.2902 73.2075 49.4914C73.0414 49.6926 72.8168 49.8371 72.565 49.9049Z" stroke="white" stroke-width="1.5" stroke-linecap="round" stroke-linejoin="round"/>
<path d="M72.7656 43.0591L77.2404 42.6922C77.7747 42.6455 78.3128 42.7049 78.824 42.8671C79.3352 43.0292 79.8092 43.2908 80.2189 43.6369C80.6285 43.983 80.9657 44.4066 81.2111 44.8834C81.4564 45.3603 81.605 45.8809 81.6483 46.4155L82.8671 61.0578" stroke="white" stroke-width="1.5" stroke-linecap="round" stroke-linejoin="round"/>
<path d="M79.4941 77.8546L80.1788 77.8044C80.7765 77.7977 81.3604 77.6243 81.8649 77.3037" stroke="white" stroke-width="1.5" stroke-linecap="round" stroke-linejoin="round"/>
<path d="M48.506 80.4559L39.5238 81.2241C38.4459 81.3143 37.3764 80.9729 36.55 80.2749C35.7237 79.5769 35.2082 78.5795 35.1168 77.5017L32.8288 50.52C32.7382 49.4418 33.0795 48.3717 33.7777 47.5451C34.4759 46.7185 35.4739 46.203 36.5521 46.1121L58.5147 44.2617" stroke="white" stroke-width="1.5" stroke-linecap="round" stroke-linejoin="round"/>
<path d="M77.4243 132.736L130.919 128.227C132.38 128.102 133.731 127.403 134.676 126.282C135.622 125.161 136.084 123.71 135.961 122.25L132.856 85.7683C132.731 84.3075 132.031 82.9562 130.91 82.0108C129.79 81.0654 128.339 80.6034 126.879 80.7259L98.2962 83.131" stroke="white" stroke-width="1.5" stroke-linecap="round" stroke-linejoin="round"/>
<path d="M79.0098 84.7666L87.8925 84.0151" stroke="white" stroke-width="1.5" stroke-linecap="round" stroke-linejoin="round"/>
<path d="M107.828 24.6401L91.3318 26.0596C89.8208 26.2282 88.4383 26.9888 87.4868 28.1747C86.5354 29.3606 86.0928 30.8752 86.2558 32.3868L89.5621 70.438" stroke="white" stroke-width="1.5" stroke-linecap="round" stroke-linejoin="round"/>
<path d="M101.483 76.0176L151.522 71.6933C152.633 71.593 153.688 71.1601 154.548 70.4511C155.409 69.7422 156.035 68.7901 156.347 67.7192" stroke="white" stroke-width="1.5" stroke-linecap="round" stroke-linejoin="round"/>
<path d="M154.745 43.8775L153.258 26.597C153.159 25.0788 152.462 23.662 151.32 22.6572C150.176 21.6524 148.682 21.1416 147.164 21.2369L127.012 22.974" stroke="white" stroke-width="1.5" stroke-linecap="round" stroke-linejoin="round"/>
<path d="M136.428 48.9033C134.709 51.6076 131.086 59.5056 128.982 64.6307C133.021 66.2096 136.425 69.0802 138.662 72.7953" stroke="white" stroke-width="1.5" stroke-linecap="round" stroke-linejoin="round"/>
<path d="M109.531 57.5518C110.142 60.6963 110.939 63.8017 111.919 66.8516C111 70.3074 110.633 73.3794 110.199 75.2662" stroke="white" stroke-width="1.5" stroke-linecap="round" stroke-linejoin="round"/>
<path d="M111.134 44.6958C109.873 46.6398 109.137 48.8772 108.997 51.1902" stroke="white" stroke-width="1.5" stroke-linecap="round" stroke-linejoin="round"/>
<path d="M128.965 64.6475C124.257 68.0372 115.357 69.8395 111.918 66.8519" stroke="white" stroke-width="1.5" stroke-linecap="round" stroke-linejoin="round"/>
<path d="M126.829 65.9331C129.34 67.8972 131.353 70.4254 132.704 73.3128" stroke="white" stroke-width="1.5" stroke-linecap="round" stroke-linejoin="round"/>
<path d="M114.885 32.6382C115.378 31.5909 115.669 30.4605 115.744 29.3057C115.226 29.8733 114.741 30.3537 114.289 30.7709" stroke="white" stroke-width="1.5" stroke-linecap="round" stroke-linejoin="round"/>
<path d="M134.041 53.378L140.019 63.4787C144.643 71.8607 154.275 74.4972 160.321 61.9765C163.175 56.0656 164.529 52.0924 167.033 47.9845C162.938 46.8169 159.208 44.6216 156.2 41.6072C153.42 45.791 150.949 50.1711 148.803 54.713C136.699 28.9844 135.212 33.5208 127.148 33.0747C124.688 33.0068 122.318 32.1327 120.403 30.5869" stroke="white" stroke-width="1.5" stroke-linecap="round" stroke-linejoin="round"/>
<path d="M102.769 53.578C105.156 45.4635 110.505 41.713 112.853 39.153C113.957 38.0935 114.694 36.7074 114.952 35.1987C115.21 33.6898 114.978 32.1379 114.289 30.771C110.082 34.4776 107.761 31.5226 107.761 21.707" stroke="white" stroke-width="1.5" stroke-linecap="round" stroke-linejoin="round"/>
<path d="M128.164 33.1084C124.818 35.7979 121.797 38.8694 119.164 42.2604C118.752 42.7741 118.213 43.172 117.601 43.4151C116.988 43.6583 116.323 43.7384 115.67 43.6477C115.018 43.557 114.399 43.2985 113.877 42.8976C113.354 42.4967 112.944 41.9669 112.687 41.3602C112.472 40.8586 112.285 40.3922 112.119 39.9407" stroke="white" stroke-width="1.5" stroke-linecap="round" stroke-linejoin="round"/>
<path d="M148.8 54.7129L146.814 59.1877" stroke="white" stroke-width="1.5" stroke-linecap="round" stroke-linejoin="round"/>
<path d="M65.7696 54.5298C63.4359 57.5218 61.7841 57.3255 57.3885 59.2879C48.4389 63.2787 51.511 79.2736 51.511 79.2736" stroke="white" stroke-width="1.5" stroke-linecap="round" stroke-linejoin="round"/>
<path d="M72.5648 49.9048C73.2943 53.2866 73.2283 54.5811 72.7487 55.2807C72.3967 55.799 70.979 55.9653 69.6934 55.9653" stroke="white" stroke-width="1.5" stroke-linecap="round" stroke-linejoin="round"/>
<path d="M72.9023 55C72.435 55.968 70.6627 55 68.8921 53.7144C69.2265 55.2508 69.4597 57.0918 70.7119 57.1701C81.8122 57.8662 82.9844 59.1237 92.6178 75.6501" stroke="white" stroke-width="1.5" stroke-linecap="round" stroke-linejoin="round"/>
<path d="M91.432 73.5969C91.8491 72.4283 94.4372 67.1016 95.9402 62.2933C99.2314 61.939 102.539 62.8 105.24 64.7142C104.204 69.6228 101.2 77.0703 98.611 82.5439C98.171 83.469 97.5172 84.2761 96.7032 84.8987C95.8892 85.5211 94.9397 85.941 93.9312 86.1237C92.9236 86.3065 91.8861 86.2466 90.9058 85.9494C89.9254 85.652 89.0296 85.1257 88.293 84.4139C83.9704 80.1636 80.1295 75.4497 76.8398 70.3576" stroke="white" stroke-width="1.5" stroke-linecap="round" stroke-linejoin="round"/>
<path d="M76.8564 70.3579L79.3275 78.0887" stroke="white" stroke-width="1.5" stroke-linecap="round" stroke-linejoin="round"/>
<path d="M58.6084 84.3999C63.5672 85.9839 72.0486 85.3846 78.6777 83.5815C79.6791 81.6111 79.262 73.8311 79.262 73.8311" stroke="white" stroke-width="1.5" stroke-linecap="round" stroke-linejoin="round"/>
<path d="M58.5571 84.0153C56.4205 87.0873 52.2211 87.2009 50.2922 83.9985C47.8616 79.9505 46.8197 74.1813 46.3022 67.7696C46.3022 67.7696 50.0862 66.5587 51.6702 67.033" stroke="white" stroke-width="1.5" stroke-linecap="round" stroke-linejoin="round"/>
<path d="M64.0641 105.952L46.4333 121.563C45.2671 122.589 43.7686 123.158 42.2154 123.164C40.6622 123.169 39.1594 122.612 37.9853 121.596L20.6396 106.589" stroke="white" stroke-width="1.5" stroke-linecap="round" stroke-linejoin="round"/>
<path d="M43.9481 108.976L30.8247 96.6045" stroke="white" stroke-width="1.5" stroke-linecap="round" stroke-linejoin="round"/>
<path d="M55.8689 67.6533C55.8689 67.6533 58.7729 79.3573 58.5908 84.6998C55.0581 86.7078 52.3283 89.876 50.8644 93.6661C48.7321 99.4275 41.3472 106.438 41.3472 106.438" stroke="white" stroke-width="1.5" stroke-linecap="round" stroke-linejoin="round"/>
<path d="M78.6768 83.5815C81.9487 94.7179 82.2743 102.15 82.4995 112.933C82.6794 115.99 82.261 119.053 81.2675 121.95L73.6212 143.454C68.9447 142.963 64.4492 141.379 60.4978 138.83L68.145 116.924C68.2923 113.182 67.037 109.52 64.625 106.656C62.2372 103.748 60.7413 100.21 60.3174 96.4709" stroke="white" stroke-width="1.5" stroke-linecap="round" stroke-linejoin="round"/>
<path d="M61.9302 57.5018C61.9302 57.5018 64.601 60.4401 70.9458 57.1841" stroke="white" stroke-width="1.5" stroke-linecap="round" stroke-linejoin="round"/>
<path d="M47.6216 67.3859C47.5694 64.8384 47.2843 62.3011 46.7698 59.8056C46.2773 57.8849 45.5717 56.0254 44.6657 54.2616C43.3369 51.6709 43.7681 50.9695 45.9021 53.327C48.0094 55.9724 49.745 58.8935 51.0607 62.0091" stroke="white" stroke-width="1.5" stroke-linecap="round" stroke-linejoin="round"/>
<path d="M50.3193 60.3592C51.3797 61.5612 52.0142 57.8952 52.4129 57.0838C52.9637 55.9653 53.6449 54.7474 53.5982 58.1864C53.585 59.1377 53.6985 60.6575 53.849 62.1596" stroke="white" stroke-width="1.5" stroke-linecap="round" stroke-linejoin="round"/>
<path d="M45.7682 56.7166C45.2842 56.1825 44.1842 55.115 43.8647 54.8132C42.4057 53.4175 42.1153 53.9094 42.2807 54.1972C42.9143 55.3078 44.1023 57.0185 44.6567 58.0692C45.5438 59.7711 47.3443 63.0113 47.4446 64.6806" stroke="white" stroke-width="1.5" stroke-linecap="round" stroke-linejoin="round"/>
<path d="M44.5996 57.9689C44.3154 57.7692 44.0804 57.6046 43.9484 57.5184C42.2571 56.4157 42.0784 56.9173 42.2764 57.1664C43.0781 58.1678 44.5336 59.6515 45.2491 60.6054C46.089 61.7807 46.8156 63.0329 47.4192 64.3454" stroke="white" stroke-width="1.5" stroke-linecap="round" stroke-linejoin="round"/>
<path d="M104.456 64.1636C105.352 61.4931 106.48 58.9064 107.829 56.4336C108.97 54.5673 110.32 52.8365 111.852 51.2742C114.102 48.9862 113.876 48.0851 110.851 49.8715C107.765 51.9792 104.979 54.4954 102.569 57.3515" stroke="white" stroke-width="1.5" stroke-linecap="round" stroke-linejoin="round"/>
<path d="M103.973 55.7673C102.289 57.023 102.91 52.7339 102.753 51.7245C102.541 50.3711 102.235 48.8531 101.149 52.5095C100.849 53.5101 99.6295 56.6112 97.3301 62.2089" stroke="white" stroke-width="1.5" stroke-linecap="round" stroke-linejoin="round"/>
<path d="M109.881 53.494C110.566 53.0769 112.069 52.3254 112.503 52.1089C114.506 51.1066 114.638 51.7393 114.389 51.9751C113.362 52.9511 111.552 54.3643 110.633 55.2971C109.149 56.8028 106.191 59.6382 105.523 61.3753" stroke="white" stroke-width="1.5" stroke-linecap="round" stroke-linejoin="round"/>
<path d="M110.716 55.2145C111.083 55.0975 111.384 54.998 111.551 54.9505C113.692 54.2949 113.721 54.932 113.421 55.1344C112.248 55.9264 110.234 57.0238 109.163 57.8052C107.896 58.7737 106.723 59.8581 105.657 61.0445" stroke="white" stroke-width="1.5" stroke-linecap="round" stroke-linejoin="round"/>
<path d="M24.6974 90.861C21.7256 86.5921 3.50871 101.319 4.43447 106.194C4.57791 106.949 5.23087 107.625 6.75415 107.418C12.6088 106.625 26.893 94.0202 24.6974 90.861Z" stroke="white" stroke-width="1.5" stroke-linecap="round" stroke-linejoin="round"/>
<path d="M24.6973 90.8608C25.6151 92.0295 28.7708 95.8029 31.0253 98.6048" stroke="white" stroke-width="1.5" stroke-linecap="round" stroke-linejoin="round"/>
<path d="M71.7809 143.221C71.0769 145.875 67.1257 151.7 70.1608 159.165C71.7157 162.988 72.6151 168.563 70.5128 169.966" stroke="white" stroke-width="1.5" stroke-linecap="round" stroke-linejoin="round"/>
<path d="M57.9561 148.831C58.4559 147.704 60.2731 143.595 61.8967 139.767" stroke="white" stroke-width="1.5" stroke-linecap="round" stroke-linejoin="round"/>
<path d="M58.4903 148.329C54.7573 150.104 64.7224 168.354 69.2931 170.019C70.5559 170.479 71.1596 169.579 71.1095 168.238C70.9018 162.663 61.3758 146.96 58.4903 148.329Z" stroke="white" stroke-width="1.5" stroke-linecap="round" stroke-linejoin="round"/>
<path d="M29.1556 96.3034C29.3845 96.1996 29.6365 96.1564 29.887 96.1784C30.1376 96.2004 30.378 96.2876 30.5849 96.431C30.7917 96.5736 30.958 96.768 31.0673 96.9942C31.1767 97.2212 31.2253 97.4721 31.2087 97.7229C30.9324 101.243 24.3931 107.273 21.453 106.917C20.573 106.81 20.0151 106.188 20.309 105.003" stroke="white" stroke-width="1.5" stroke-linecap="round" stroke-linejoin="round"/>
<path d="M72.5801 137.238L77.7043 121.031C78.5936 118.498 78.9682 115.813 78.8061 113.134C78.0959 101.531 77.237 92.5637 75.1497 84.3999" stroke="white" stroke-width="1.5" stroke-linecap="round" stroke-linejoin="round"/>
<path d="M62.5806 132.852C66.3707 135.735 70.9612 137.375 75.7207 137.544" stroke="white" stroke-width="1.5" stroke-linecap="round" stroke-linejoin="round"/>
<path d="M25.5815 110.863C30.6407 109.243 33.4795 105.583 35.1823 100.812" stroke="white" stroke-width="1.5" stroke-linecap="round" stroke-linejoin="round"/>
<path d="M61.4954 101.329L47.2869 113.918C46.1181 114.959 44.6092 115.538 43.0441 115.544C41.479 115.55 39.9654 114.984 38.7887 113.952L31.292 107.373" stroke="white" stroke-width="1.5" stroke-linecap="round" stroke-linejoin="round"/>
<path d="M63.8996 88.8406C63.6831 88.874 63.3655 93.0822 63.9331 94.785C65.0188 96.2854 66.4067 97.5429 68.0075 98.4748C68.9231 96.9498 70.0222 95.5418 71.2802 94.2842C71.113 92.1634 70.9123 91.045 70.6791 88.8071C68.4314 89.1283 66.1503 89.1398 63.8996 88.8406Z" stroke="white" stroke-width="1.5" stroke-linecap="round" stroke-linejoin="round"/>
<path d="M54.4337 87.9893C55.2908 88.0016 56.1324 88.2189 56.888 88.6237C55.3515 89.3744 53.7992 93.1997 53.7992 93.1997L50.376 94.8365" stroke="white" stroke-width="1.5" stroke-linecap="round" stroke-linejoin="round"/>
<path d="M163.059 33.4399C165.699 34.2742 167.167 35.6267 168.867 37.7977" stroke="white" stroke-width="1.5" stroke-linecap="round" stroke-linejoin="round"/>
<path d="M162.409 34.6782C163.33 35.6133 164.046 36.7301 164.512 37.9574C164.977 39.1846 165.182 40.4954 165.113 41.8062" stroke="white" stroke-width="1.5" stroke-linecap="round" stroke-linejoin="round"/>
<path d="M167.483 36.1467C168.508 34.7971 169.365 33.3282 170.035 31.7722C171.267 28.8841 172.022 29.6857 171.338 32.4234C171.154 33.1582 170.971 33.7927 170.804 34.3269C170.321 35.8633 169.846 37.4148 169.401 38.9689C168.928 40.6197 165.793 47.6008 165.793 47.6008C162.855 46.8158 159.799 44.6792 157.412 42.7089C157.462 42.6085 158.732 40.2721 158.78 40.1877C159.039 39.7206 159.149 39.1859 159.095 38.6548C159.042 38.1238 158.827 37.6218 158.48 37.2159C157.273 35.7674 155.656 33.6079 156.192 33.0245C157.024 32.1207 159.648 35.1769 161.051 35.3626C161.551 35.4286 161.953 33.9097 162.035 33.3589C162.187 32.3574 162.714 28.9501 162.753 28.6174C163.117 25.5216 164.223 26.0461 164.206 28.7837C164.19 31.3885 164.19 33.0746 164.19 33.0746" stroke="white" stroke-width="1.5" stroke-linecap="round" stroke-linejoin="round"/>
<path d="M163.978 33.7428C163.978 33.7428 165.798 28.0334 165.914 27.6488C166.819 24.6612 167.769 25.345 167.316 28.0325C166.883 30.6048 166.414 33.7428 166.414 33.7428" stroke="white" stroke-width="1.5" stroke-linecap="round" stroke-linejoin="round"/>
<path d="M165.968 34.6613C166.839 32.9151 167.609 31.1198 168.272 29.2845C169.354 26.3453 170.15 27.0959 169.641 29.7694C169.362 31.4314 168.966 33.0717 168.456 34.678" stroke="white" stroke-width="1.5" stroke-linecap="round" stroke-linejoin="round"/>
<path d="M147.782 85.9187C147.828 86.3174 147.793 86.7211 147.682 87.1065C147.57 87.492 147.383 87.8515 147.133 88.1645C146.881 88.4778 146.57 88.7374 146.218 88.9292C145.866 89.1219 145.479 89.2425 145.08 89.2838C144.681 89.3261 144.278 89.2882 143.893 89.1738C143.509 89.0586 143.151 88.8694 142.84 88.615C142.529 88.3607 142.272 88.0483 142.083 87.6943C141.894 87.3404 141.777 86.9526 141.738 86.5532L141.254 81.9772C141.178 81.1796 141.419 80.3839 141.926 79.7633C142.433 79.1428 143.165 78.7477 143.962 78.6641C144.758 78.5804 145.556 78.8149 146.181 79.3166C146.806 79.8183 147.207 80.5465 147.298 81.3427L147.782 85.9187Z" stroke="white" stroke-width="1.5" stroke-linecap="round" stroke-linejoin="round"/>
<path d="M139.267 84.7165L139.5 86.9702C139.572 87.663 139.781 88.3351 140.113 88.9475C140.445 89.56 140.894 90.1012 141.435 90.5395C141.976 90.9786 142.599 91.3059 143.266 91.5048C143.934 91.7028 144.634 91.7679 145.327 91.6958C146.02 91.6227 146.692 91.4151 147.304 91.0833C147.917 90.7507 148.458 90.3019 148.897 89.7607C149.335 89.2195 149.663 88.5973 149.861 87.9294C150.059 87.2616 150.125 86.5613 150.052 85.8684L149.819 83.6147" stroke="white" stroke-width="1.5" stroke-linecap="round" stroke-linejoin="round"/>
<path d="M145.328 91.6958L145.778 95.9031" stroke="white" stroke-width="1.5" stroke-linecap="round" stroke-linejoin="round"/>
<path d="M143.524 96.1371L148.016 95.6689" stroke="white" stroke-width="1.5" stroke-linecap="round" stroke-linejoin="round"/>
<path d="M108.579 108.993L113.973 111.515L113.004 100.061L108.112 103.466" stroke="white" stroke-width="1.5" stroke-linecap="round" stroke-linejoin="round"/>
<path d="M103.471 99.844C104.559 99.749 105.643 100.069 106.504 100.742C107.366 101.414 107.94 102.387 108.112 103.466L108.562 108.658C108.613 109.225 108.55 109.796 108.379 110.339C108.209 110.882 107.932 111.386 107.566 111.822C107.2 112.257 106.752 112.617 106.247 112.879C105.742 113.142 105.189 113.302 104.623 113.35L94.2044 114.218C93.6368 114.27 93.0648 114.209 92.521 114.039C91.978 113.869 91.4729 113.592 91.0373 113.226C90.6008 112.86 90.2409 112.41 89.9795 111.904C89.7182 111.398 89.5589 110.846 89.5123 110.278L89.0951 105.438C89.0432 104.871 89.1039 104.299 89.2738 103.756C89.4445 103.212 89.7199 102.707 90.0869 102.271C90.453 101.835 90.9018 101.475 91.4078 101.213C91.9147 100.952 92.4673 100.793 93.0349 100.746L103.471 99.844Z" stroke="white" stroke-width="1.5" stroke-linecap="round" stroke-linejoin="round"/>
<path d="M132.255 13.3568C132.151 12.0655 131.591 10.8533 130.675 9.93714C129.759 9.02089 128.547 8.46048 127.255 8.35612C125.964 8.25176 124.678 8.61027 123.627 9.36752C122.575 10.1248 121.828 11.2313 121.519 12.4891C122.89 13.1216 124.093 14.0651 125.036 15.2449C125.978 16.4245 126.632 17.8078 126.946 19.2845C127.691 19.2673 128.425 19.0973 129.102 18.7852C129.78 18.4731 130.385 18.0255 130.884 17.47C131.381 16.9146 131.759 16.2629 131.995 15.5555C132.231 14.8481 132.319 14.0997 132.255 13.3568Z" stroke="white" stroke-width="1.5" stroke-linecap="round" stroke-linejoin="round"/>
<path d="M127.096 20.4862C126.886 17.9568 125.692 15.6107 123.771 13.9515C121.851 12.2924 119.356 11.4524 116.823 11.612C114.29 11.7715 111.92 12.9178 110.223 14.8049C108.526 16.6919 107.636 19.1692 107.745 21.705C109.756 21.1599 111.823 20.846 113.905 20.7695C114.017 21.4534 114.173 22.1295 114.372 22.7935C114.556 23.2106 114.839 23.2441 115.34 22.4758C116.459 20.8566 118.73 23.3611 116.075 25.298C117.221 27.2812 118.676 29.0682 120.387 30.5912C122.484 29.9149 124.29 28.5472 125.508 26.7116C126.726 24.876 127.287 22.6812 127.096 20.4862Z" stroke="white" stroke-width="1.5" stroke-linecap="round" stroke-linejoin="round"/>
<path d="M15.2974 76.8365L18.7866 76.4854" stroke="white" stroke-width="1.5" stroke-linecap="round" stroke-linejoin="round"/>
<path d="M24.9639 75.8507L28.4539 75.5005" stroke="white" stroke-width="1.5" stroke-linecap="round" stroke-linejoin="round"/>
<path d="M21.2075 69.5894L21.5586 73.0794" stroke="white" stroke-width="1.5" stroke-linecap="round" stroke-linejoin="round"/>
<path d="M22.1929 79.2573L22.5431 82.7465" stroke="white" stroke-width="1.5" stroke-linecap="round" stroke-linejoin="round"/>
<path d="M16.75 71.9946L19.471 74.1982" stroke="white" stroke-width="1.5" stroke-linecap="round" stroke-linejoin="round"/>
<path d="M24.2793 78.1221L27.0011 80.3423" stroke="white" stroke-width="1.5" stroke-linecap="round" stroke-linejoin="round"/>
<path d="M26.0496 71.0425L23.8452 73.7643" stroke="white" stroke-width="1.5" stroke-linecap="round" stroke-linejoin="round"/>
<path d="M19.9214 78.5723L17.7012 81.2941" stroke="white" stroke-width="1.5" stroke-linecap="round" stroke-linejoin="round"/>
<path d="M96.1411 36.8647L94.1171 31.9227C95.3543 30.0832 95.9527 27.8878 95.8199 25.6747C95.4529 19.8667 90.0594 15.3567 83.6319 15.5406C77.0697 15.7236 71.8944 20.7326 72.0775 26.7271C72.2596 33.0552 78.1794 37.5855 84.6465 37.2044C86.9631 37.0583 89.197 36.2878 91.111 34.9745L96.1411 36.8647Z" stroke="white" stroke-width="1.5" stroke-linecap="round" stroke-linejoin="round"/>
<path d="M57.6726 34.3435C57.3639 34.6392 56.9744 34.8368 56.5534 34.9111C56.1325 34.9855 55.6989 34.9334 55.3076 34.7614C54.9162 34.5893 54.5847 34.3051 54.3549 33.9446C54.1251 33.5841 54.0074 33.1636 54.0166 32.7361C54.0259 32.3088 54.1616 31.8937 54.4068 31.5436C54.6519 31.1933 54.9954 30.9236 55.3938 30.7686C55.7922 30.6137 56.2276 30.5803 56.645 30.6727C57.0623 30.7652 57.4429 30.9794 57.7386 31.2882C58.1336 31.7028 58.3484 32.257 58.336 32.8295C58.3237 33.402 58.0851 33.9464 57.6726 34.3435Z" stroke="white" stroke-width="1.5" stroke-linecap="round" stroke-linejoin="round"/>
<path d="M146.964 5.85986L147.715 14.9767" stroke="white" stroke-width="1.5" stroke-linecap="round" stroke-linejoin="round"/>
<path d="M151.906 10.0337L142.79 10.8019" stroke="white" stroke-width="1.5" stroke-linecap="round" stroke-linejoin="round"/>
<path d="M22.6935 106.772C22.0581 105.993 21.238 105.385 20.3079 105.003C18.6887 104.418 17.1003 104.936 15.2135 105.471C11.4119 106.527 7.33664 108.82 5.19824 107.237" stroke="white" stroke-width="1.5" stroke-linecap="round" stroke-linejoin="round"/>
<path d="M61.6795 108.108L61.4956 101.329" stroke="white" stroke-width="1.5" stroke-linecap="round" stroke-linejoin="round"/>
</svg>
