<svg width="35" height="23" viewBox="0 0 35 23" fill="none" xmlns="http://www.w3.org/2000/svg">
<path d="M20.7344 19.484C21.6408 20.8776 22.9807 21.9431 24.5529 22.5203C26.1251 23.0976 27.8446 23.1554 29.4529 22.6851C31.0612 22.2149 32.4715 21.2419 33.4718 19.9124C34.4721 18.583 35.0083 16.9689 34.9999 15.3127C34.9991 13.9413 34.6252 12.5952 33.9175 11.4152C33.2097 10.2351 32.1939 9.26439 30.9764 8.60438C29.7588 7.94437 28.384 7.61932 26.9957 7.66317C25.6074 7.70702 24.2565 8.11817 23.0841 8.85366C23.6936 7.06662 24.8289 5.16015 26.6993 3.24907C27.0572 2.88356 27.2533 2.39265 27.2446 1.88435C27.2403 1.63266 27.1858 1.38428 27.0842 1.15338C26.9827 0.922489 26.8361 0.713604 26.6528 0.538652C26.4695 0.363699 26.2531 0.226107 26.0159 0.133732C25.7787 0.041357 25.5255 -0.00399208 25.2706 0.000274658C24.7557 0.00889015 24.2655 0.219076 23.9076 0.584593C16.9936 7.65925 17.8916 15.3495 20.7344 19.4748V19.484ZM2.12321 19.484C3.02955 20.8776 4.3695 21.9431 5.9417 22.5203C7.51389 23.0976 9.23337 23.1554 10.8417 22.6851C12.45 22.2149 13.8603 21.2419 14.8606 19.9124C15.8609 18.583 16.3971 16.9689 16.3887 15.3127C16.3879 13.9413 16.014 12.5952 15.3063 11.4152C14.5985 10.2351 13.5827 9.26439 12.3651 8.60438C11.1476 7.94437 9.77279 7.61932 8.38448 7.66317C6.99616 7.70702 5.64525 8.11817 4.47288 8.85366C5.08239 7.06662 6.21767 5.16015 8.0881 3.24907C8.26529 3.06809 8.40465 2.85441 8.49821 2.62025C8.59177 2.3861 8.6377 2.13603 8.63338 1.88435C8.62906 1.63266 8.57457 1.38428 8.47303 1.15338C8.37148 0.922489 8.22488 0.713604 8.04157 0.538652C7.85827 0.363699 7.64186 0.226107 7.4047 0.133732C7.16754 0.041357 6.91427 -0.00399208 6.65936 0.000274658C6.40445 0.00453949 6.15288 0.0583382 5.91903 0.158594C5.68518 0.258852 5.47362 0.403606 5.29642 0.584593C-1.61764 7.65925 -0.71965 15.3495 2.12321 19.4748V19.484Z" fill="#0A7EFE"/>
</svg>
