<svg width="84" height="176" viewBox="0 0 84 176" fill="none" xmlns="http://www.w3.org/2000/svg">
<path d="M44.6527 81.5615C44.6527 81.5615 47.443 116.579 47.2882 122.318C47.1334 128.057 46.669 163.424 46.669 163.424C46.669 163.424 42.9538 165.441 39.0838 163.424C39.0838 163.424 36.7619 141.552 35.6781 135.038C34.5946 128.523 34.9042 119.681 34.9042 119.681L29.3312 105.876L19.7069 163.874C19.7069 163.874 14.7799 165.131 12.458 163.58C12.458 163.58 12.9222 152.566 12.458 141.708C11.9934 130.85 12.9222 122.938 14.3155 118.75C14.3155 118.75 11.2217 97.0338 11.8409 82.4527L44.6527 81.5615Z" fill="#201F20"/>
<path d="M11.929 91.4127C11.9358 91.4126 11.9427 91.412 11.9494 91.4108C19.1493 90.1269 17.9668 82.1297 17.954 82.0491C17.9437 81.9857 17.8842 81.9426 17.8209 81.9526C17.7576 81.9627 17.7144 82.0222 17.7242 82.0857C17.7366 82.1641 18.8823 89.9376 11.9087 91.1812C11.8494 91.1918 11.8079 91.246 11.8131 91.3062C11.8184 91.3664 11.8687 91.4126 11.929 91.4126V91.4127Z" fill="white"/>
<path d="M45.3875 89.7822C45.4411 89.7822 45.4877 89.7456 45.5005 89.6934C45.5133 89.6412 45.4889 89.5871 45.4414 89.5622C45.3911 89.5359 40.4087 86.8681 40.6722 82.0737C40.6739 82.0428 40.6633 82.0125 40.6427 81.9895C40.6221 81.9665 40.5932 81.9526 40.5624 81.9509C40.5315 81.9489 40.5011 81.9594 40.478 81.9801C40.455 82.0008 40.4412 82.0299 40.4399 82.061C40.168 87.0067 45.282 89.7419 45.3337 89.769C45.3503 89.7776 45.3687 89.7822 45.3875 89.7822Z" fill="white"/>
<path d="M34.8673 121.709C34.8711 121.709 34.875 121.709 34.8788 121.709C34.9095 121.706 34.9378 121.691 34.9573 121.667C34.9769 121.643 34.9863 121.612 34.9832 121.581C34.9795 121.543 34.6285 117.764 36.1387 115.242C36.1717 115.187 36.1538 115.116 36.0987 115.083C36.0436 115.049 35.9722 115.067 35.9391 115.123C34.3888 117.711 34.7477 121.566 34.7516 121.604C34.7574 121.664 34.8075 121.709 34.8673 121.709Z" fill="white"/>
<g style="mix-blend-mode:overlay" opacity="0.6">
<path d="M44.6524 81.5615L44.8574 84.313C31.9177 89.4523 11.7757 85.8651 11.7757 85.8651L11.8407 82.4527L44.6524 81.5615Z" fill="#030F1C"/>
</g>
<g style="mix-blend-mode:overlay" opacity="0.6">
<path d="M29.3312 105.876L32.4295 94.3193C32.4295 94.3193 34.0527 100.578 33.356 107.349C32.6593 114.12 33.356 115.846 33.356 115.846L29.3312 105.876Z" fill="#030F1C"/>
</g>
<g style="mix-blend-mode:overlay" opacity="0.6">
<path d="M45.3312 90.4341C45.3312 90.4341 42.1625 90.6926 42.0704 93.5172C41.9974 95.7543 42.5885 104.272 43.2077 110.322C43.8269 116.371 43.707 127.747 43.8248 132.555C43.9425 137.364 47.0404 136.747 47.0404 136.747C47.0404 136.747 47.4423 123.063 47.213 119.522C46.9836 115.98 46.3879 101.874 45.3312 90.4341" fill="white"/>
</g>
<g style="mix-blend-mode:overlay" opacity="0.6">
<path d="M28.4282 111.465C28.4282 111.465 24.1829 111.342 23.2362 116.931C22.0725 123.8 19.6239 143.776 19.1082 147.292C18.5922 150.808 18.8611 155.073 21.117 155.376L28.4282 111.465Z" fill="white"/>
</g>
<path fill-rule="evenodd" clip-rule="evenodd" d="M20.0551 163.8L12.5236 163L6.49731 172.666H21.3541L20.0551 163.8ZM54.3507 169.783L46.2094 163.874H39.4756L38.6744 172.666H60.9688C60.8912 172.12 60.5851 170.589 59.4979 170.205L54.3507 169.783Z" fill="#6FA3EF"/>
<path fill-rule="evenodd" clip-rule="evenodd" d="M18.1681 165.628C18.1681 165.373 17.9617 165.167 17.7071 165.167H13.3058C13.0512 165.167 12.8448 165.373 12.8448 165.628C12.8448 165.883 13.0512 166.089 13.3058 166.089H17.7071C17.9617 166.089 18.1681 165.883 18.1681 165.628ZM17.2646 166.748C17.5192 166.748 17.7256 166.954 17.7256 167.209C17.7256 167.463 17.5192 167.67 17.2646 167.67H12.8634C12.6088 167.67 12.4024 167.463 12.4024 167.209C12.4024 166.954 12.6088 166.748 12.8634 166.748H17.2646ZM16.8545 168.256C17.1091 168.256 17.3155 168.463 17.3155 168.717C17.3155 168.972 17.1091 169.178 16.8545 169.178H12.4533C12.1987 169.178 11.9923 168.972 11.9923 168.717C11.9923 168.463 12.1987 168.256 12.4533 168.256H16.8545ZM51.9447 168.036H47.8567C47.6032 168.036 47.3978 168.242 47.3978 168.496C47.3978 168.75 47.6032 168.956 47.8567 168.956H53.2114L51.9447 168.036ZM45.7669 166.532H49.8549L51.1216 167.451H45.7669C45.5136 167.451 45.3082 167.246 45.3082 166.992C45.3082 166.738 45.5136 166.532 45.7669 166.532ZM47.9778 165.167H43.8898C43.6365 165.167 43.4311 165.373 43.4311 165.627C43.4311 165.88 43.6365 166.086 43.8898 166.086H49.2446L47.9778 165.167Z" fill="white"/>
<path fill-rule="evenodd" clip-rule="evenodd" d="M19.5187 162.149C19.9882 162.149 20.3688 162.53 20.3688 163C20.3688 163.469 19.9882 163.85 19.5187 163.85H12.7346C12.2651 163.85 11.8844 163.469 11.8844 163C11.8844 162.53 12.2651 162.149 12.7346 162.149H19.5187ZM42.6219 172.666C42.6219 172.666 43.3193 168.956 39.0126 168.956L38.6746 172.666C38.6746 172.666 38.5569 174.376 39.1156 174.376H59.5604C60.2105 174.408 60.7831 173.951 60.896 173.308L60.9688 172.666H42.6219ZM46.401 162.178H39.0095C38.7138 162.178 38.4742 162.418 38.4742 162.715V163.338C38.4742 163.634 38.7139 163.874 39.0097 163.874H46.4008C46.6962 163.874 46.9357 163.634 46.9357 163.338V162.714C46.9357 162.418 46.6963 162.178 46.401 162.178ZM18.2445 169.551H9.60673C8.78204 169.551 7.99113 169.879 7.40799 170.463C6.82485 171.048 6.49725 171.84 6.49725 172.666V174.38H21.354V172.666C21.354 170.946 19.9618 169.551 18.2445 169.551Z" fill="#2F65BC"/>
<path d="M21.2255 16.3511C21.2255 12.6283 25.3284 13.815 26.0267 14.0482C26.7249 14.2814 28.3542 8.91711 28.3542 8.91711C28.3542 8.91711 36.7334 8.21742 38.3627 9.85004C38.3627 9.85004 38.8282 16.847 38.5955 21.2784C38.3627 25.7098 36.9417 27.5713 35.3124 27.5713C34.7972 27.5423 34.2908 27.4239 33.816 27.2212V35.379L23.9603 30.2601L25.1741 20.6235C25.1242 20.5941 25.0956 20.5787 25.0956 20.5787C25.0956 20.5787 21.2255 19.8671 21.2255 16.3511Z" fill="#F7B17D"/>
<path d="M38.6608 15.007C38.6608 15.007 40.6904 13.1155 40.9232 9.15057C41.156 5.18563 40.3179 0.994612 37.841 1.14973C35.3642 1.30485 32.2166 1.45161 29.7397 1.14555C27.2629 0.839496 21.6384 2.18385 21.2256 6.52717C19.9034 8.54511 19.2864 10.9455 19.4712 13.3524C19.7808 17.3854 21.1212 22.7065 25.3021 23.9004L25.4956 20.7076C25.4956 20.7076 21.2256 17.0817 22.5681 15.3698C24.2909 13.1727 26.6953 15.1621 26.9533 16.6616C26.9533 16.6616 27.7214 15.884 27.8305 13.0421C27.8305 13.0421 29.8945 11.5427 29.9461 9.47441C29.9461 9.47441 36.551 8.80224 37.9442 9.93977L38.6608 15.007Z" fill="#161B36"/>
<g style="mix-blend-mode:overlay" opacity="0.6">
<path d="M33.8086 27.2098C33.8086 27.2098 30.4545 25.6463 29.3709 24.5088C29.3709 24.5088 29.6212 27.5756 31.8363 29.7311C34.0513 31.8866 33.8086 30.1448 33.8086 30.1448L33.8086 27.2098Z" fill="#030F1C"/>
</g>
<ellipse cx="0.43538" cy="0.717422" rx="0.43538" ry="0.717422" transform="matrix(-1 0 0 1 33.8091 14.481)" fill="#161B36"/>
<ellipse cx="0.43538" cy="0.717421" rx="0.43538" ry="0.717421" transform="matrix(-1 0 0 1 38.1172 14.7793)" fill="#161B36"/>
<path d="M34.2733 12.3289C34.1185 12.1544 33.9056 12.0187 33.2671 12.0574C32.6285 12.0962 31.661 12.6973 31.8738 12.8524C32.0867 13.0075 32.7253 12.484 33.2284 12.6585C33.7315 12.833 34.0203 12.9766 34.1894 12.8815C34.4023 12.7619 34.3477 12.4128 34.2733 12.3289Z" fill="#161B36"/>
<path d="M37.0407 12.1509C37.2434 12.0358 37.4886 11.9762 38.0805 12.2195C38.6724 12.4628 39.3944 13.3447 39.1429 13.4227C38.8915 13.5006 38.4558 12.7985 37.9235 12.8009C37.3911 12.8033 37.0714 12.8457 36.942 12.7011C36.7791 12.519 36.9433 12.2062 37.0407 12.1509Z" fill="#161B36"/>
<g style="mix-blend-mode:overlay" opacity="0.6">
<path d="M36.0961 20.0377C36.3206 20.0459 36.5433 19.9941 36.7412 19.8876C36.8711 19.8149 36.9616 19.6875 36.9877 19.5407C37.036 19.2367 36.7259 18.7663 36.3464 18.2278C36.2498 18.0992 36.1614 17.9646 36.0816 17.8249C36.0044 17.6592 36.0264 16.149 36.0924 14.7848L35.8598 14.7734C35.837 15.2466 35.7302 17.6219 35.8706 17.9235C35.9554 18.0764 36.0508 18.223 36.1562 18.3623C36.3952 18.7015 36.7952 19.2691 36.7579 19.504C36.7423 19.5836 36.6913 19.6517 36.6194 19.6888C36.2852 19.8328 35.909 19.8445 35.5666 19.7215L35.4955 19.9436C35.6897 20.0056 35.8923 20.0374 36.0961 20.0377Z" fill="#030F1C"/>
</g>
<path d="M36.3783 22.2568C36.398 22.188 36.3895 22.1141 36.3546 22.0515C36.3197 21.989 36.2614 21.943 36.1925 21.9238C35.8501 21.8244 35.2189 21.6376 34.7381 21.4736C34.2368 21.2744 33.7493 21.042 33.2788 20.778C33.1968 20.7334 33.0976 20.7342 33.0164 20.7803C32.9351 20.8263 32.8833 20.9111 32.8792 21.0045C32.8466 21.7223 32.9328 23.1243 34.0593 23.4101C35.4294 23.7576 36.1467 23.0149 36.3783 22.2568Z" fill="#161B36"/>
<path d="M35.7827 23.1518C35.7827 23.1518 34.6038 21.5018 32.9198 21.8787C32.9198 21.8787 32.9172 23.1674 34.0028 23.4578C35.1718 23.7705 35.7827 23.1518 35.7827 23.1518Z" fill="#E55151"/>
<path d="M23.7941 15.5562C24.9084 15.1767 25.9463 17.6117 25.9899 17.7156C26.0148 17.775 25.987 17.8433 25.9277 17.8683C25.8685 17.8933 25.8002 17.8654 25.7753 17.806C25.5947 17.3857 25.3737 16.984 25.1154 16.6066C24.8804 16.5656 24.6386 16.6101 24.4335 16.732C24.2296 16.8842 24.0995 17.1156 24.0752 17.3691C24.066 17.4254 24.0174 17.4667 23.9606 17.4667C23.9542 17.4668 23.9478 17.4662 23.9415 17.4652C23.911 17.4601 23.8838 17.4432 23.8659 17.418C23.8479 17.3929 23.8406 17.3616 23.8457 17.3311C23.886 16.767 24.3665 16.3372 24.9304 16.3607C24.5987 15.9496 24.2208 15.6569 23.8688 15.7772C23.8295 15.7906 23.7859 15.7819 23.7547 15.7544C23.7234 15.7269 23.7092 15.6848 23.7173 15.6439C23.7254 15.6031 23.7547 15.5696 23.7941 15.5562H23.7941Z" fill="#0B122D"/>
<path d="M33.8162 27.3387C33.8712 27.3387 33.9187 27.3002 33.9301 27.2463C33.9415 27.1924 33.9137 27.1379 33.8634 27.1155C33.825 27.0984 30.0008 25.3842 28.3867 23.3119C28.3472 23.2612 28.2741 23.2522 28.2234 23.2918C28.1728 23.3314 28.1638 23.4047 28.2033 23.4554C29.8535 25.574 33.61 27.2581 33.7691 27.3287C33.7839 27.3353 33.8 27.3387 33.8162 27.3387Z" fill="#0B122D"/>
<path d="M28.8885 7.9884C28.9088 7.98839 28.9288 7.98305 28.9465 7.97292C30.8739 6.86165 30.5909 4.14748 30.5779 4.03246C30.5751 4.00146 30.5597 3.97296 30.5354 3.95357C30.5111 3.93418 30.4799 3.92557 30.4491 3.92974C30.3853 3.93698 30.3394 3.99467 30.3465 4.05866C30.3496 4.0853 30.6245 6.73639 28.8303 7.77066C28.7846 7.79701 28.7622 7.85088 28.7759 7.90195C28.7895 7.95301 28.8357 7.98849 28.8885 7.98841L28.8885 7.9884Z" fill="white"/>
<path d="M25.1827 11.1425C25.2127 11.1425 25.2415 11.131 25.2631 11.1102C27.2347 9.22301 26.4547 6.16628 26.4466 6.13565C26.4302 6.07338 26.3665 6.03626 26.3043 6.05274C26.2422 6.06922 26.2051 6.13305 26.2216 6.19532C26.2293 6.22471 26.9734 9.15069 25.1024 10.9416C25.068 10.9745 25.0571 11.0251 25.0748 11.0693C25.0925 11.1135 25.1352 11.1425 25.1827 11.1425H25.1827Z" fill="white"/>
<rect width="7.32492" height="13.4155" rx="2.86665" transform="matrix(-0.979985 -0.199069 -0.19829 0.980143 82.9634 35.1045)" fill="#36C9D8"/>
<g style="mix-blend-mode:overlay" opacity="0.6">
<path d="M73.772 45.8032L75.9953 34.8133C76.0685 34.4514 76.4206 34.2175 76.7818 34.2908L77.849 34.5076L77.839 34.5569C77.821 34.6461 77.839 34.7389 77.8892 34.8147C77.9394 34.8906 78.0176 34.9434 78.1067 34.9614L80.3144 35.4099C80.4034 35.428 80.4959 35.41 80.5717 35.3597C80.6474 35.3094 80.7001 35.231 80.7181 35.1418L80.7281 35.0924L81.7953 35.3092C82.1564 35.3826 82.3898 35.7354 82.3167 36.0973L80.0933 47.0873C80.0581 47.2611 79.9555 47.4138 79.808 47.5118C79.6605 47.6097 79.4802 47.645 79.3068 47.6097L74.2934 46.5914C74.1199 46.5561 73.9675 46.4533 73.8698 46.3055C73.772 46.1577 73.7368 45.977 73.772 45.8032Z" fill="white"/>
</g>
<path fill-rule="evenodd" clip-rule="evenodd" d="M3.79321 50.2973C2.95915 52.4445 2.01897 54.865 0.937454 57.597C-0.993179 62.4739 2.24477 67.2619 8.87547 66.6026C10.3818 66.4529 11.8663 66.29 13.4037 66.0915C13.5188 68.5832 13.4959 71.0665 12.3621 75.3855C11.719 77.9921 11.3723 80.6633 11.3287 83.348C11.3287 83.348 38.6216 87.9497 44.1985 83.348C45.3568 82.392 44.789 80.1017 44.2731 78.0207C44.0188 76.9948 43.777 76.0198 43.7609 75.2806C43.716 73.2079 43.6202 71.2363 43.5294 69.3692C43.4664 68.0717 43.4058 66.8247 43.3664 65.6293C44.0777 66.7511 44.8447 67.8364 45.6646 68.8811C48.0759 71.9546 49.8975 73.0595 53.231 71.2884C57.2459 69.1553 62.8243 63.8144 74.8984 51.7501C72.7506 51.052 71.6863 49.1712 71.4849 46.8679L61.6479 53.1511L52.7081 58.6866C52.5033 58.8141 52.2473 58.8265 52.0312 58.7194C51.8151 58.6124 51.6695 58.401 51.6463 58.1606C51.3506 55.1062 50.8788 52.0715 50.2332 49.0718C48.8556 42.799 46.8674 37.1651 41.7866 34.6101C39.0947 33.1012 35.4794 31.4866 35.4794 31.4866L30.8872 32.6248L23.1969 30.8662C23.1969 30.8662 17.6582 32.0389 15.2471 32.7847C10.0263 34.2505 8.89529 37.1621 3.79321 50.2973ZM12.9681 55.6258L13.0133 56.7995L12.3751 56.8297C12.5855 56.3993 12.7593 56.044 12.9681 55.6258Z" fill="#3268AE"/>
<path fill-rule="evenodd" clip-rule="evenodd" d="M24.259 26.8848L23.1979 30.8657L29.3901 35.6747C29.3901 35.6747 29.6997 33.7616 30.8865 32.6241L33.5697 35.6747L35.479 31.4866L33.7761 29.4699C33.7761 29.4699 32.8726 31.7179 30.8865 32.624C27.9125 31.8368 25.4672 29.7192 24.259 26.8848ZM21.1854 47.2475H28.8482V48.507H21.1854V47.2475Z" fill="#FCC92C"/>
<path d="M41.0518 79.1209C41.0723 79.1209 41.0924 79.1155 41.11 79.1051C43.1405 77.9312 43.8442 75.4183 43.8733 75.3119C43.8843 75.2717 43.873 75.2287 43.8438 75.1991C43.8145 75.1695 43.7717 75.1578 43.7315 75.1684C43.6912 75.179 43.6597 75.2102 43.6487 75.2504C43.6419 75.2755 42.9398 77.7782 40.9936 78.9034C40.9481 78.9298 40.9259 78.9835 40.9395 79.0345C40.9532 79.0854 40.9992 79.1208 41.0518 79.1209Z" fill="#0B122D"/>
<path d="M44.1568 51.1874C44.2144 51.1873 44.2632 51.1451 44.2716 51.0881C45.0474 45.9242 44.6794 42.189 44.6755 42.1519C44.6682 42.0884 44.6116 42.0422 44.548 42.0478C44.5173 42.0509 44.4891 42.0661 44.4696 42.0901C44.4502 42.1141 44.441 42.1448 44.4442 42.1756C44.4478 42.2125 44.8126 45.9207 44.0416 51.0534C44.037 51.084 44.0447 51.1152 44.0631 51.14C44.0814 51.1649 44.1088 51.1814 44.1393 51.186C44.1451 51.1869 44.151 51.1874 44.1568 51.1874Z" fill="#0B122D"/>
<g style="mix-blend-mode:overlay" opacity="0.6">
<path d="M31.5706 43.534C31.5707 43.7339 31.7325 43.8958 31.932 43.8957C32.1314 43.8956 32.293 43.7336 32.293 43.5337C32.2929 43.3339 32.1312 43.1719 31.9318 43.1719C31.836 43.1719 31.7441 43.2101 31.6763 43.278C31.6086 43.3459 31.5706 43.438 31.5706 43.534Z" fill="#030F1C"/>
</g>
<g style="mix-blend-mode:overlay" opacity="0.6">
<path d="M31.3169 50.7089C31.3168 50.8553 31.4047 50.9874 31.5397 51.0436C31.6747 51.0997 31.8302 51.0688 31.9336 50.9654C32.037 50.8619 32.068 50.7061 32.0121 50.5708C31.9562 50.4355 31.8245 50.3472 31.6783 50.3472C31.4789 50.3472 31.3172 50.509 31.3169 50.7089Z" fill="#030F1C"/>
</g>
<g style="mix-blend-mode:overlay" opacity="0.6">
<path d="M30.5901 65.9549C30.59 66.1013 30.6779 66.2333 30.8129 66.2895C30.9478 66.3456 31.1032 66.3147 31.2065 66.2113C31.3099 66.1078 31.3409 65.9522 31.2851 65.8169C31.2293 65.6816 31.0976 65.5934 30.9515 65.5933C30.7521 65.5933 30.5904 65.7551 30.5901 65.9549Z" fill="#030F1C"/>
</g>
<g style="mix-blend-mode:overlay" opacity="0.6">
<path d="M30.9512 76.3202C30.9511 76.4667 31.039 76.5988 31.174 76.6549C31.3091 76.7111 31.4645 76.6801 31.5679 76.5766C31.6713 76.4731 31.7023 76.3173 31.6463 76.182C31.5904 76.0467 31.4586 75.9585 31.3124 75.9585C31.113 75.9585 30.9514 76.1204 30.9512 76.3202Z" fill="#030F1C"/>
</g>
<g style="mix-blend-mode:overlay" opacity="0.6">
<path d="M33.5693 35.6747L28.8479 33.2703L30.8864 32.624L33.5693 35.6747Z" fill="#030F1C"/>
</g>
<path d="M32.1374 55.8945C32.4762 50.3725 32.8427 42.7082 32.7383 40.8264C32.5928 38.2103 30.7944 32.8382 30.7762 32.7844C30.7624 32.7448 30.7709 32.7009 30.7985 32.6693C30.826 32.6377 30.8683 32.6234 30.9093 32.6317C30.9503 32.6401 30.9837 32.6699 30.9967 32.7097C31.0149 32.7642 32.8235 38.1659 32.9706 40.8136C33.0751 42.6974 32.7096 50.3541 32.3709 55.8834L32.1374 55.8945Z" fill="#0B122D"/>
<path d="M31.9286 62.4136C31.8831 64.7505 32.0432 69.1053 32.199 73.3429C32.384 78.3676 32.5752 83.5637 32.4213 85.3739C32.4162 85.4342 32.366 85.4806 32.3056 85.4808C32.3022 85.4808 32.2988 85.4805 32.2956 85.4803C32.2316 85.4749 32.1841 85.4185 32.1894 85.3544C32.342 83.558 32.151 78.3692 31.9665 73.3516C31.8119 69.1522 31.6532 64.837 31.695 62.4717C31.7727 62.4524 31.8504 62.4331 31.9286 62.4136Z" fill="#0B122D"/>
<g style="mix-blend-mode:overlay" opacity="0.6">
<path d="M12.9736 55.2632C13.3551 54.5058 13.8826 53.4784 14.8683 51.5774C14.9521 51.4165 15.0359 51.2533 15.1221 51.09C15.2058 50.9291 15.292 50.7658 15.3781 50.6026C16.2354 48.9663 17.1753 47.2052 18.1617 45.4072C18.508 49.1258 18.3956 52.8729 17.8269 56.5639L13.0038 56.7918C12.9909 56.2418 12.981 55.7287 12.9736 55.2632Z" fill="#030F1C"/>
</g>
<g style="mix-blend-mode:overlay" opacity="0.6">
<path d="M13.3989 66.0692C14.1916 65.9657 15 65.8521 15.8327 65.7261C15.3186 72.154 18.4762 76.8012 21.1854 79.6763C23.9775 82.6395 29.7514 83.3478 33.8965 85.3932C25.9587 85.8296 11.3298 83.3478 11.3298 83.3478C11.3298 83.3478 11.0099 79.4973 12.7275 73.8865C13.3274 71.9271 13.4861 69.2863 13.3989 66.0692Z" fill="#030F1C"/>
</g>
<g style="mix-blend-mode:overlay" opacity="0.6">
<path d="M29.3901 35.6747L19.3996 31.718L23.1979 30.8657L29.3901 35.6747Z" fill="#030F1C"/>
</g>
<g style="mix-blend-mode:overlay" opacity="0.6">
<path d="M43.3229 62.7166C43.3369 61.0956 43.5464 58.3575 43.8094 55.2439C43.9102 54.0479 44.0186 52.7965 44.1264 51.5317C44.4226 52.0963 44.6696 52.6854 44.8647 53.2925C46.3671 57.9877 44.8094 60.7941 44.8787 63.2808C44.9327 65.2195 49.0103 68.0572 47.0997 70.6933C46.1112 69.6453 45.4878 68.8814 45.4878 68.8814C44.719 67.9013 44.0183 66.9118 43.3762 65.9181C43.3369 64.8071 43.3138 63.7385 43.3229 62.7166Z" fill="#030F1C"/>
</g>
<g style="mix-blend-mode:overlay" opacity="0.6">
<path d="M53.2492 61.1198C53.7398 60.8786 59.1121 57.9637 61.2024 56.0466C62.3634 54.9817 62.1883 53.6666 61.6518 53.1511L52.712 58.6866C52.5072 58.8141 52.2512 58.8265 52.0351 58.7194C51.819 58.6124 51.6734 58.401 51.6502 58.1606C51.3545 55.1062 50.8827 52.0715 50.2371 49.0718C49.4632 49.3975 48.6118 50.1731 48.844 52.3447C49.0985 54.7246 49.1278 59.284 50.0566 60.7987C50.2934 61.1848 51.4313 62.0138 53.2492 61.1198Z" fill="white"/>
</g>
<path d="M51.7106 63.0725C51.7513 63.0726 51.7891 63.0514 51.8102 63.0165C51.8314 62.9817 51.8328 62.9383 51.814 62.9021C50.9089 61.1524 51.6651 59.3483 51.6728 59.3303C51.6898 59.292 51.6849 59.2475 51.66 59.2138C51.6351 59.1801 51.5941 59.1624 51.5526 59.1673C51.5111 59.1723 51.4754 59.1992 51.4592 59.2378C51.4257 59.3153 50.6502 61.159 51.6071 63.0096C51.6272 63.0483 51.6671 63.0725 51.7106 63.0725Z" fill="#0B122D"/>
<g style="mix-blend-mode:overlay" opacity="0.60001">
<path d="M45.6465 37.7208C45.6465 37.7208 43.0403 35.7502 40.2927 35.0906C38.5003 34.6405 36.7518 34.0307 35.0679 33.2684L35.8653 31.6641C35.8653 31.6641 41.7887 34.302 43.4387 35.6208C44.25 36.2367 44.9905 36.941 45.6465 37.7208" fill="white"/>
</g>
<path d="M15.3443 49.7756C15.368 49.7755 15.3911 49.7683 15.4107 49.7548C18.7388 47.4391 18.7493 42.3989 18.749 42.3484C18.7486 42.2842 18.6966 42.2325 18.6326 42.2324H18.632C18.5677 42.2329 18.516 42.2854 18.5163 42.3497C18.5165 42.3991 18.5044 47.3184 15.2779 49.5631C15.2361 49.5921 15.2179 49.6451 15.2331 49.6938C15.2483 49.7425 15.2934 49.7756 15.3443 49.7756Z" fill="#0B122D"/>
<path d="M22.601 56.4548L22.6065 56.4546L34.9048 55.8717C34.9356 55.8703 34.9646 55.8567 34.9854 55.8338C35.0062 55.811 35.017 55.7807 35.0155 55.7499C35.0147 55.7188 35.0013 55.6893 34.9783 55.6684C34.9554 55.6474 34.9249 55.6368 34.8939 55.6389L22.5956 56.2218C22.5325 56.2248 22.4834 56.2777 22.4849 56.341C22.4863 56.4042 22.5379 56.4547 22.601 56.4548V56.4548Z" fill="#0B122D"/>
<path d="M22.177 64.7156C22.1861 64.7156 22.1951 64.7146 22.2039 64.7124L35.8196 61.4941C35.8819 61.479 35.9203 61.4163 35.9055 61.3539C35.8908 61.2914 35.8284 61.2527 35.766 61.2672L22.1502 64.4855C22.0928 64.4992 22.0546 64.5538 22.0615 64.6125C22.0683 64.6713 22.118 64.7156 22.177 64.7156Z" fill="#0B122D"/>
<path d="M9.42661 59.1754C9.48347 59.1751 9.53187 59.1338 9.54117 59.0776C9.5539 59.0011 9.87758 57.2022 12.0047 57.1409C12.0689 57.139 12.1195 57.0853 12.1176 57.0209C12.1121 56.9582 12.0606 56.9096 11.9978 56.9077C9.67528 56.9747 9.31501 59.0193 9.3116 59.0398C9.30659 59.0703 9.31388 59.1016 9.33187 59.1267C9.34986 59.1518 9.37708 59.1688 9.40753 59.1738C9.41384 59.1747 9.42022 59.1753 9.42661 59.1754Z" fill="#0B122D"/>
<g style="mix-blend-mode:overlay" opacity="0.6">
<path d="M17.3872 58.4592C20.0382 58.13 20.6406 57.2765 20.6406 56.4312L12.1986 56.83C12.8107 55.5776 15.5704 50.2355 15.6565 50.0723C14.86 49.8166 13.8446 50.5229 12.9947 51.8667C12.0014 53.4373 9.2214 57.2571 10.359 58.3494C11.0135 58.9779 15.8854 58.6457 17.3872 58.4592Z" fill="white"/>
</g>
<path fill-rule="evenodd" clip-rule="evenodd" d="M72.9004 43.3347C72.989 42.3087 72.6545 40.8689 72.4211 39.864C72.2825 39.2674 72.1795 38.824 72.2218 38.7117C72.3353 38.4097 73.9932 38.5535 74.3808 39.6872C74.4235 39.8145 74.4581 39.9443 74.4844 40.076L73.2576 46.1401C73.2225 46.3138 73.2576 46.4945 73.3554 46.6423C73.4532 46.7901 73.6056 46.8929 73.779 46.9282L79.3019 48.0501C78.585 48.8983 77.7076 49.8041 76.7018 50.1645C75.9505 50.4337 75.1327 51.0294 74.472 51.5884C72.6781 50.8197 71.7452 49.1413 71.5112 47.1021C71.9807 46.6229 72.3945 46.1613 72.4668 45.9565C72.6914 45.0978 72.8365 44.2201 72.9004 43.3347ZM81.2017 42.226C80.91 42.2531 80.6268 42.119 80.4626 41.876C80.2984 41.633 80.2793 41.3196 80.4127 41.0584C80.5461 40.7971 80.811 40.6294 81.1037 40.6208L82.0932 40.5595C82.2899 40.5474 82.482 40.6229 82.6179 40.7659C82.7539 40.9089 82.8199 41.1048 82.7982 41.3011L82.774 41.5206C82.7397 41.8307 82.4962 42.076 82.1868 42.1119L81.2017 42.226ZM81.1207 42.7334C80.7384 42.6936 80.3806 42.9275 80.2628 43.2941C80.1817 43.5468 80.2285 43.8233 80.3882 44.0351C80.548 44.2469 80.8008 44.3673 81.0655 44.3579L81.8392 44.3506C82.1125 44.348 82.3479 44.1566 82.4066 43.8891L82.4886 43.5149C82.525 43.3493 82.4881 43.176 82.3876 43.0395C82.287 42.9031 82.1325 42.8168 81.9638 42.8029L81.1207 42.7334ZM80.6951 45.1355L81.4068 45.2194C81.5562 45.237 81.689 45.3229 81.7666 45.4519C81.8442 45.581 81.8579 45.7387 81.8037 45.8792L81.6608 46.2494C81.584 46.4484 81.387 46.5742 81.1745 46.5599L80.4446 46.5107C80.1946 46.471 79.9858 46.2987 79.8988 46.0605C79.8118 45.8223 79.8604 45.5556 80.0257 45.3635C80.191 45.1715 80.4472 45.0842 80.6951 45.1355ZM35.2976 56.1682L34.7211 56.3793C33.9882 58 34.5198 59.8566 35.4673 60.9208L37.1166 60.6297C37.1166 60.6297 43.4468 60.9181 44.5871 60.2844C45.7273 59.6507 45.0159 59.041 45.0159 59.041C45.0159 59.041 46.8515 58.4424 46.0664 57.4133C46.0664 57.4133 47.6881 57.0558 47.1518 55.7233C47.1518 55.7233 52.5983 55.2811 52.3376 54.2892C52.077 53.2972 41.3858 54.1029 41.3858 54.1029C41.3858 54.1029 44.7922 50.6474 43.5738 49.6083C42.2241 50.9247 40.6631 52.0043 38.956 52.8018C36.1241 54.1233 35.2976 56.1682 35.2976 56.1682Z" fill="#F7B17D"/>
<path d="M44.7483 55.6601C44.7483 55.6291 44.7605 55.5995 44.7823 55.5776C44.8042 55.5557 44.8338 55.5434 44.8647 55.5435H46.889C46.9533 55.5435 47.0054 55.5957 47.0054 55.6601C47.0054 55.7245 46.9533 55.7767 46.889 55.7767H44.8647C44.8338 55.7767 44.8042 55.7644 44.7823 55.7426C44.7605 55.7207 44.7483 55.691 44.7483 55.6601Z" fill="#030F1C"/>
<path d="M43.0402 57.3954C43.0402 57.3645 43.0525 57.3348 43.0743 57.3129C43.0961 57.2911 43.1257 57.2788 43.1566 57.2788H45.8133C45.8776 57.2788 45.9297 57.331 45.9297 57.3954C45.9297 57.4598 45.8776 57.512 45.8133 57.512H43.1566C43.1257 57.5121 43.0961 57.4998 43.0743 57.4779C43.0525 57.456 43.0402 57.4264 43.0402 57.3954Z" fill="#030F1C"/>
<path d="M42.9226 58.8975H44.7078C44.7721 58.8975 44.8242 58.9497 44.8242 59.0141C44.8242 59.0785 44.7721 59.1307 44.7078 59.1307H42.9226C42.8583 59.1307 42.8062 59.0785 42.8062 59.0141C42.8062 58.9497 42.8583 58.8975 42.9226 58.8975Z" fill="#030F1C"/>
</svg>
