<svg width="24" height="24" viewBox="0 0 24 24" fill="none" xmlns="http://www.w3.org/2000/svg">
<mask id="mask0_233_8550" style="mask-type:alpha" maskUnits="userSpaceOnUse" x="0" y="0" width="24" height="24">
<rect width="24" height="24" fill="#D9D9D9"/>
</mask>
<g mask="url(#mask0_233_8550)">
<path d="M11 14.9999V12.9999H13V14.9999H11ZM9.99998 6.49995H14V4.80768C14 4.73074 13.9679 4.66023 13.9038 4.59613C13.8397 4.53201 13.7692 4.49995 13.6923 4.49995H10.3077C10.2308 4.49995 10.1602 4.53201 10.0961 4.59613C10.032 4.66023 9.99998 4.73074 9.99998 4.80768V6.49995ZM4.3077 20.4999C3.80257 20.4999 3.375 20.3249 3.025 19.9749C2.675 19.6249 2.5 19.1973 2.5 18.6922V14.7499H9.5V15.5961C9.5 15.8537 9.58623 16.0688 9.75868 16.2412C9.93111 16.4137 10.1462 16.4999 10.4039 16.4999H13.5961C13.8538 16.4999 14.0688 16.4137 14.2413 16.2412C14.4137 16.0688 14.5 15.8537 14.5 15.5961V14.7499H21.5V18.6922C21.5 19.1973 21.325 19.6249 20.975 19.9749C20.625 20.3249 20.1974 20.4999 19.6923 20.4999H4.3077ZM2.5 13.25V8.30765C2.5 7.80252 2.675 7.37495 3.025 7.02495C3.375 6.67495 3.80257 6.49995 4.3077 6.49995H8.5V4.80768C8.5 4.30256 8.675 3.875 9.025 3.525C9.375 3.175 9.80257 3 10.3077 3H13.6923C14.1974 3 14.625 3.175 14.975 3.525C15.325 3.875 15.5 4.30256 15.5 4.80768V6.49995H19.6923C20.1974 6.49995 20.625 6.67495 20.975 7.02495C21.325 7.37495 21.5 7.80252 21.5 8.30765V13.25H14.5V12.4038C14.5 12.1461 14.4137 11.9311 14.2413 11.7586C14.0688 11.5862 13.8538 11.5 13.5961 11.5H10.4039C10.1462 11.5 9.93111 11.5862 9.75868 11.7586C9.58623 11.9311 9.5 12.1461 9.5 12.4038V13.25H2.5Z" fill="#0A7EFE"/>
</g>
</svg>
