<svg width="24" height="24" viewBox="0 0 24 24" fill="none" xmlns="http://www.w3.org/2000/svg">
<path d="M21.79 17.8602L23.79 19.8602H24V17.8602H21.79ZM1.11 2.84018L2.66 4.40018C2.25 4.77018 2 5.29018 2 5.88018V15.8602C2 16.9602 2.9 17.8602 4.01 17.8602H0V19.8602H18.13L20.84 22.5702L22.25 21.1602L2.52 1.43018L1.11 2.84018ZM4 5.88018H4.13L9.08 10.8102C7.94 11.9302 7.31 13.3802 7 14.8602C7.96 13.5702 9.13 12.7802 10.67 12.4002L14.13 15.8802H4V5.88018ZM20 5.88018V16.0702L21.3 17.3702C21.72 17.0002 22 16.4802 22 15.8802V5.88018C22 4.77018 21.1 3.88018 20 3.88018H7.8L9.8 5.88018H20ZM12.93 9.01018L15.72 11.7902L17 10.5902L13 6.86018V8.99018L12.93 9.01018Z" fill="white"/>
</svg>
