<svg width="24" height="24" viewBox="0 0 24 24" fill="none" xmlns="http://www.w3.org/2000/svg">
<path d="M9.99018 8.57018L7.99018 6.57018L3.84018 2.43018L2.43018 3.84018L5.16018 6.57018H4.43018C3.88018 6.57018 3.43018 7.02018 3.43018 7.57018V17.5702C3.43018 18.1202 3.88018 18.5702 4.43018 18.5702H16.4302C16.6402 18.5702 16.8202 18.4902 16.9802 18.3902L20.1602 21.5702L21.5702 20.1602L12.7102 11.3002L9.99018 8.57018ZM5.43018 16.5702V8.57018H7.16018L15.1602 16.5702H5.43018ZM15.4302 8.57018V11.1802L21.4302 17.1802V7.07018L17.4302 11.0702V7.57018C17.4302 7.02018 16.9802 6.57018 16.4302 6.57018H10.8202L12.8202 8.57018H15.4302Z" fill="white"/>
</svg>
